SplineFontDB: 3.0
FontName: Aileron-UltraLight
FullName: Aileron UltraLight
FamilyName: Aileron UltraLight
Weight: Light
Copyright: No Rights Reserved.
Version: 001.001
ItalicAngle: 0
UnderlinePosition: -200
UnderlineWidth: 50
Ascent: 770
Descent: 230
InvalidEm: 0
sfntRevision: 0x00011a1d
LayerCount: 2
Layer: 0 0 "Back" 1
Layer: 1 0 "Fore" 0
XUID: [1021 1017 285194369 15892]
StyleMap: 0x0040
FSType: 8
OS2Version: 3
OS2_WeightWidthSlopeOnly: 0
OS2_UseTypoMetrics: 0
CreationTime: 1408560985
ModificationTime: 1485743749
PfmFamily: 81
TTFWeight: 250
TTFWidth: 5
LineGap: 0
VLineGap: 0
Panose: 0 0 3 0 0 0 0 0 0 0
OS2TypoAscent: 770
OS2TypoAOffset: 0
OS2TypoDescent: -230
OS2TypoDOffset: 0
OS2TypoLinegap: 200
OS2WinAscent: 970
OS2WinAOffset: 0
OS2WinDescent: 230
OS2WinDOffset: 0
HheadAscent: 970
HheadAOffset: 0
HheadDescent: -230
HheadDOffset: 0
OS2SubXSize: 650
OS2SubYSize: 600
OS2SubXOff: 0
OS2SubYOff: 75
OS2SupXSize: 650
OS2SupYSize: 600
OS2SupXOff: 0
OS2SupYOff: 350
OS2StrikeYSize: 50
OS2StrikeYPos: 318
OS2CapHeight: 690
OS2XHeight: 530
OS2Vendor: 'UKWN'
OS2CodePages: 20000093.00000000
OS2UnicodeRanges: 00000007.00000000.00000000.00000000
Lookup: 1 0 0 "'aalt' Access All Alternates lookup 0" { "'aalt' Access All Alternates lookup 0 subtable"  } ['aalt' ('DFLT' <'dflt' > 'cyrl' <'BGR ' 'dflt' > 'latn' <'CAT ' 'MOL ' 'ROM ' 'dflt' > ) ]
Lookup: 1 0 0 "'locl' Localized Forms in Cyrillic lookup 1" { "'locl' Localized Forms in Cyrillic lookup 1 subtable"  } ['locl' ('cyrl' <'BGR ' > ) ]
Lookup: 1 0 0 "'locl' Localized Forms in Latin lookup 2" { "'locl' Localized Forms in Latin lookup 2 subtable"  } ['locl' ('latn' <'MOL ' > ) ]
Lookup: 1 0 0 "'locl' Localized Forms in Latin lookup 3" { "'locl' Localized Forms in Latin lookup 3 subtable"  } ['locl' ('latn' <'ROM ' > ) ]
Lookup: 6 0 0 "'locl' Localized Forms in Latin lookup 4" { "'locl' Localized Forms in Latin lookup 4 contextual 0"  "'locl' Localized Forms in Latin lookup 4 contextual 1"  } ['locl' ('latn' <'CAT ' > ) ]

StartChar: .notdef
Encoding: 256 -1 0
Width: 500
Flags: MW
HStem: 0 50<80 420 80 500> 650 50<80 420 80 80>
VStem: 0 50<95 605 95 700> 450 50<95 605 605 605>
LayerCount: 2
Fore
SplineSet
0 0 m 1
 0 700 l 1
 500 700 l 1
 500 0 l 1
 0 0 l 1
250 395 m 1
 420 650 l 1
 80 650 l 1
 250 395 l 1
280 350 m 1
 450 95 l 1
 450 605 l 1
 280 350 l 1
80 50 m 1
 420 50 l 1
 250 305 l 1
 80 50 l 1
50 605 m 1
 50 95 l 1
 220 350 l 1
 50 605 l 1
EndSplineSet
Validated: 1
EndChar

StartChar: exclam
Encoding: 33 33 2
Width: 202
GlyphClass: 2
Flags: MW
HStem: -14 40<95.5 106.5> 670 20G<87 115 115 115>
VStem: 89 24
LayerCount: 2
Fore
SplineSet
111 110 m 1
 91 110 l 1
 87 690 l 1
 115 690 l 1
 111 110 l 1
101 26 m 0
 112 26 121 17 121 6 c 0
 121 -5 112 -14 101 -14 c 0
 90 -14 81 -5 81 6 c 0
 81 17 90 26 101 26 c 0
EndSplineSet
Validated: 1
EndChar

StartChar: quotedbl
Encoding: 34 34 3
Width: 150
GlyphClass: 2
Flags: MW
HStem: 715 20G<21 43 43 43 93 115 115 115>
VStem: 22 19 94 19
LayerCount: 2
Fore
SplineSet
40 491 m 1
 24 491 l 1
 21 735 l 1
 43 735 l 1
 40 491 l 1
112 491 m 1
 96 491 l 1
 93 735 l 1
 115 735 l 1
 112 491 l 1
EndSplineSet
Validated: 1
EndChar

StartChar: numbersign
Encoding: 35 35 4
Width: 530
GlyphClass: 2
Flags: MW
HStem: 0 21G<115 136 115 115 247 268 247 247> 245 21<55 167 55 172 193 299 55 188 325 445> 424 21<85 205 85 210 85 227 231 338 363 475> 670 20G<262 283 283 283 394 415 415 415>
VStem: 55 420<245 445 266 445>
LayerCount: 2
Fore
SplineSet
358 424 m 1
 325 266 l 1
 445 266 l 1
 445 245 l 1
 320 245 l 1
 268 0 l 1
 247 0 l 1
 299 245 l 1
 188 245 l 1
 136 0 l 1
 115 0 l 1
 167 245 l 1
 55 245 l 1
 55 266 l 1
 172 266 l 1
 205 424 l 1
 85 424 l 1
 85 445 l 1
 210 445 l 1
 262 690 l 1
 283 690 l 1
 231 445 l 1
 342 445 l 1
 394 690 l 1
 415 690 l 1
 363 445 l 1
 475 445 l 1
 475 424 l 1
 358 424 l 1
338 424 m 1
 227 424 l 1
 193 266 l 1
 304 266 l 1
 338 424 l 1
EndSplineSet
Validated: 1
EndChar

StartChar: dollar
Encoding: 36 36 5
Width: 530
GlyphClass: 2
Flags: MW
HStem: -14 21<264 264> 683 21<264 264>
VStem: 52 22<180 180> 82 24<474.5 575.5 474.5 578> 264 22<-90 -14 -90 -14 7 329 358 683 704 780> 453 24<112 198.5>
LayerCount: 2
Fore
SplineSet
286 683 m 1
 286 354 l 1
 407 319 477 256 477 155 c 0
 477 68 411 -10 286 -14 c 1
 286 -90 l 1
 264 -90 l 1
 264 -14 l 1
 158 -9 65 52 52 180 c 1
 74 180 l 1
 86 72 162 12 264 7 c 1
 264 333 l 1
 169 361 82 409 82 525 c 0
 82 631 162 698 264 704 c 1
 264 780 l 1
 286 780 l 1
 286 704 l 1
 406 700 466 615 479 514 c 1
 457 514 l 1
 444 617 383 679 286 683 c 1
106 525 m 0
 106 424 176 385 264 358 c 1
 264 683 l 1
 183 678 106 626 106 525 c 0
286 329 m 1
 286 7 l 1
 393 10 453 71 453 153 c 0
 453 244 393 296 286 329 c 1
EndSplineSet
Validated: 1
EndChar

StartChar: percent
Encoding: 37 37 6
Width: 699
GlyphClass: 2
Flags: MW
HStem: -14 21<466 534 466 540> 0 21G<113 139 113 113> 283 21<466 534> 386 21<165 233 165 239> 670 20G<560 586 586 586> 683 21<165 233>
VStem: 71 24<505 585.5 505 590> 303 24<505 585.5> 372 24<105 185.5 105 190> 604 24<105 185.5>
LayerCount: 2
Fore
SplineSet
199 704 m 0xb7c0
 279 704 327 635 327 545 c 0
 327 457 279 386 199 386 c 0
 119 386 71 457 71 545 c 0
 71 635 119 704 199 704 c 0xb7c0
139 0 m 1x7bc0
 113 0 l 1
 560 690 l 1
 586 690 l 1
 139 0 l 1x7bc0
199 683 m 0xb7c0
 131 683 95 626 95 545 c 0
 95 465 131 407 199 407 c 0
 267 407 303 465 303 545 c 0
 303 626 267 683 199 683 c 0xb7c0
500 304 m 0
 580 304 628 235 628 145 c 0
 628 57 580 -14 500 -14 c 0
 420 -14 372 57 372 145 c 0
 372 235 420 304 500 304 c 0
500 283 m 0
 432 283 396 226 396 145 c 0
 396 65 432 7 500 7 c 0
 568 7 604 65 604 145 c 0
 604 226 568 283 500 283 c 0
EndSplineSet
Validated: 1
EndChar

StartChar: ampersand
Encoding: 38 38 7
Width: 640
GlyphClass: 2
Flags: MW
HStem: -14 21<262.5 355> 1 21G<508 508> 334 21<365 486 376 486 508 618> 674 20G<452 452> 683 21<273.5 353.5>
VStem: 70 24<98 213> 108 24<459.5 569 451.5 570> 486 22<19 334 1 334 355 507>
LayerCount: 2
Fore
SplineSet
618 355 m 1xad
 618 334 l 1
 508 334 l 1
 508 1 l 1
 451 -9 377 -14 333 -14 c 0
 172 -14 70 22 70 158 c 0xad
 70 268 152 331 264 344 c 1
 177 355 108 403 108 516 c 0
 108 624 199 704 332 704 c 0xaf
 381 704 414 701 452 694 c 1xb5
 452 672 l 1
 411 680 378 683 329 683 c 0
 218 683 132 621 132 517 c 0xaf
 132 386 235 360 315 356 c 0
 335 355 354 355 376 355 c 2
 486 355 l 1
 486 507 l 1
 508 507 l 1
 508 355 l 1
 618 355 l 1xad
94 158 m 0
 94 38 190 7 335 7 c 0xad
 376 7 446 11 486 19 c 1x6d
 486 334 l 1
 376 334 l 2
 354 334 335 334 315 332 c 0
 200 322 94 283 94 158 c 0
EndSplineSet
Validated: 1
EndChar

StartChar: quotesingle
Encoding: 39 39 8
Width: 78
GlyphClass: 2
Flags: MW
HStem: 715 20G<21 43 43 43>
VStem: 22 19
LayerCount: 2
Fore
SplineSet
40 491 m 1
 24 491 l 1
 21 735 l 1
 43 735 l 1
 40 491 l 1
EndSplineSet
Validated: 1
EndChar

StartChar: parenleft
Encoding: 40 40 9
Width: 293
GlyphClass: 2
Flags: MW
HStem: -80 860<237 259 237 259>
VStem: 121 24<271 429>
LayerCount: 2
Fore
SplineSet
237 780 m 1
 259 780 l 1
 187 662 145 510 145 350 c 0
 145 190 187 38 259 -80 c 1
 237 -80 l 1
 167 26 121 192 121 350 c 0
 121 508 167 674 237 780 c 1
EndSplineSet
Validated: 1
EndChar

StartChar: parenright
Encoding: 41 41 10
Width: 293
GlyphClass: 2
Flags: MW
HStem: -80 860<34 56 34 56>
VStem: 148 24<271 429 271 430>
LayerCount: 2
Fore
SplineSet
34 780 m 1
 56 780 l 1
 126 674 172 508 172 350 c 0
 172 192 126 26 56 -80 c 1
 34 -80 l 1
 106 38 148 190 148 350 c 0
 148 510 106 662 34 780 c 1
EndSplineSet
Validated: 1
EndChar

StartChar: asterisk
Encoding: 42 42 11
Width: 530
GlyphClass: 2
Flags: MW
HStem: 100 374<157 277 253 373>
VStem: 254 21
LayerCount: 2
Fore
SplineSet
274 280 m 1
 433 337 l 1
 440 315 l 1
 280 263 l 1
 393 114 l 1
 373 100 l 1
 265 254 l 1
 157 100 l 1
 137 114 l 1
 250 263 l 1
 90 315 l 1
 97 337 l 1
 256 280 l 1
 253 474 l 1
 277 474 l 1
 274 280 l 1
EndSplineSet
Validated: 1
EndChar

StartChar: plus
Encoding: 43 43 12
Width: 530
GlyphClass: 2
Flags: MW
HStem: 307 21<65 254 65 254 276 465>
VStem: 254 22<87 307 87 307 328 548>
LayerCount: 2
Fore
SplineSet
465 307 m 1
 276 307 l 1
 276 87 l 1
 254 87 l 1
 254 307 l 1
 65 307 l 1
 65 328 l 1
 254 328 l 1
 254 548 l 1
 276 548 l 1
 276 328 l 1
 465 328 l 1
 465 307 l 1
EndSplineSet
Validated: 1
EndChar

StartChar: comma
Encoding: 44 44 13
Width: 150
GlyphClass: 2
Flags: MW
HStem: -116 140<-2 67 -2 67>
VStem: -2 70
LayerCount: 2
Fore
SplineSet
68 19 m 1
 17 -116 l 1
 -2 -116 l 1
 44 24 l 1
 67 24 l 1
 68 19 l 1
EndSplineSet
Validated: 1
EndChar

StartChar: hyphen
Encoding: 45 45 14
Width: 274
GlyphClass: 2
Flags: MW
HStem: 271 21<32 242 32 242>
VStem: 32 210<271 292 271 292>
LayerCount: 2
Fore
SplineSet
242 271 m 1
 32 271 l 1
 32 292 l 1
 242 292 l 1
 242 271 l 1
EndSplineSet
Validated: 1
EndChar

StartChar: period
Encoding: 46 46 15
Width: 150
GlyphClass: 2
Flags: MW
HStem: -14 40<54.5 65.5>
VStem: 40 40<0.5 11.5>
LayerCount: 2
Fore
SplineSet
60 26 m 0
 71 26 80 17 80 6 c 0
 80 -5 71 -14 60 -14 c 0
 49 -14 40 -5 40 6 c 0
 40 17 49 26 60 26 c 0
EndSplineSet
Validated: 1
EndChar

StartChar: slash
Encoding: 47 47 16
Width: 263
GlyphClass: 2
Flags: MW
HStem: -30 750<-5 268 -5 268>
VStem: -5 273
LayerCount: 2
Fore
SplineSet
17 -30 m 1
 -5 -30 l 1
 246 720 l 1
 268 720 l 1
 17 -30 l 1
EndSplineSet
Validated: 1
EndChar

StartChar: zero
Encoding: 48 48 17
Width: 530
GlyphClass: 2
Flags: MW
HStem: -14 21<188.5 341.5 188.5 347.5> 683 21<188.5 341.5>
VStem: 36 24<250 440.5 250 450.5> 470 24<249.5 440>
LayerCount: 2
Fore
SplineSet
265 704 m 0
 430 704 494 555 494 345 c 0
 494 134 430 -14 265 -14 c 0
 100 -14 36 135 36 345 c 0
 36 556 100 704 265 704 c 0
265 7 m 0
 418 7 470 154 470 345 c 0
 470 535 418 683 265 683 c 0
 112 683 60 536 60 345 c 0
 60 155 112 7 265 7 c 0
EndSplineSet
Validated: 1
EndChar

StartChar: one
Encoding: 49 49 18
Width: 530
GlyphClass: 2
Flags: MW
HStem: 0 21G<327 349 327 327> 666 24<327 349> 670 20G<338 349 349 349>
VStem: 327 22<0 666 666 666>
LayerCount: 2
Fore
SplineSet
349 690 m 1xb0
 349 0 l 1
 327 0 l 1
 327 666 l 1xd0
 137 548 l 1
 137 573 l 1
 296 673 l 2
 320 688 327 690 338 690 c 2
 349 690 l 1xb0
EndSplineSet
Validated: 1
EndChar

StartChar: two
Encoding: 50 50 19
Width: 530
GlyphClass: 2
Flags: MW
HStem: 0 21<74 481 74 481> 683 21<231.5 337.5>
VStem: 70 22<488 488> 451 24
LayerCount: 2
Fore
SplineSet
481 21 m 1
 481 0 l 1
 40 0 l 1
 40 16 l 1
 279 248 l 2
 412 378 452 438 452 516 c 0
 452 610 392 683 283 683 c 0
 180 683 104 610 93 498 c 2
 92 488 l 1
 70 488 l 1
 71 498 l 2
 84 623 170 704 283 704 c 0
 412 704 476 619 476 516 c 0
 476 428 416 350 298 237 c 2
 74 21 l 1
 481 21 l 1
EndSplineSet
Validated: 1
EndChar

StartChar: three
Encoding: 51 51 20
Width: 530
GlyphClass: 2
Flags: MW
HStem: -14 21<205 321 205 327.5> 343 21<239 256 239 256> 683 21<234.5 332.5>
VStem: 45 22<204 204> 76 22<499 499> 452 24 463 24
LayerCount: 2
Fore
SplineSet
328 357 m 1xf2
 426 342 488 287 488 183 c 0
 488 60 391 -14 264 -14 c 0
 144 -14 60 58 46 194 c 2
 45 204 l 1
 67 204 l 1
 68 194 l 2
 79 86 146 7 264 7 c 0
 378 7 464 70 464 183 c 0xf2
 464 274 401 343 256 343 c 2
 239 343 l 1
 239 364 l 1
 256 364 l 2
 348 364 453 425 453 529 c 0
 453 635 379 683 286 683 c 0
 183 683 110 619 99 509 c 2
 98 499 l 1
 76 499 l 1
 77 509 l 2
 89 633 176 704 287 704 c 0
 411 704 477 629 477 531 c 0xfc
 477 445 413 375 328 357 c 1xf2
EndSplineSet
Validated: 1
EndChar

StartChar: four
Encoding: 52 52 21
Width: 530
GlyphClass: 2
Flags: MW
HStem: 0 21G<383 405 383 383> 200 21<50 383 50 383 405 504> 656 34<383 405> 670 20G<388 405 405 405>
VStem: 383 22<0 200 0 200 221 656 656 656>
LayerCount: 2
Fore
SplineSet
504 200 m 1xd8
 405 200 l 1
 405 0 l 1
 383 0 l 1
 383 200 l 1
 21 200 l 1
 21 216 l 1
 388 690 l 1
 405 690 l 1
 405 221 l 1
 504 221 l 1
 504 200 l 1xd8
383 221 m 1
 383 656 l 1xe8
 363 628 332 585 293 535 c 2
 50 221 l 1
 383 221 l 1
EndSplineSet
Validated: 1
EndChar

StartChar: five
Encoding: 53 53 22
Width: 530
GlyphClass: 2
Flags: MW
HStem: -14 21<210 306 204.5 317.5> 411 21<245.5 327> 665 21<148 479 148 148>
VStem: 50 22<188 188> 456 24
LayerCount: 2
Fore
SplineSet
275 432 m 0
 404 432 481 336 481 211 c 0
 481 69 378 -14 257 -14 c 0
 163 -14 65 41 51 178 c 2
 50 188 l 1
 72 188 l 1
 73 178 l 2
 83 79 151 7 258 7 c 0
 354 7 457 70 457 210 c 0
 457 333 381 411 273 411 c 0
 191 411 124 376 86 295 c 1
 64 295 l 1
 129 686 l 1
 479 686 l 1
 479 665 l 1
 148 665 l 1
 90 334 l 1
 128 383 l 1
 169 414 216 432 275 432 c 0
EndSplineSet
Validated: 1
EndChar

StartChar: six
Encoding: 54 54 23
Width: 530
GlyphClass: 2
Flags: MW
HStem: -14 21<203.5 329.5 203.5 334> 437 21<235.5 333> 683 21<230 333.5>
VStem: 43 20<304 304 304 442> 461 22 471 24<160 281>
LayerCount: 2
Fore
SplineSet
275 458 m 0xf4
 418 458 495 347 495 219 c 0xf4
 495 90 402 -14 266 -14 c 0
 130 -14 43 75 43 299 c 0
 43 585 134 704 285 704 c 0
 407 704 460 636 482 528 c 2
 484 518 l 1
 462 518 l 1
 460 528 l 2xf8
 439 633 382 683 285 683 c 0
 175 683 68 617 63 304 c 1
 83 355 l 1
 127 422 196 458 275 458 c 0xf4
267 7 m 0
 392 7 471 102 471 218 c 0
 471 344 393 437 273 437 c 0
 161 437 70 351 70 236 c 0
 70 109 140 7 267 7 c 0
EndSplineSet
Validated: 1
EndChar

StartChar: seven
Encoding: 55 55 24
Width: 530
GlyphClass: 2
Flags: MW
HStem: 0 21G<107 133 107 107> 669 21<45 467 45 497>
VStem: 45 452<679 690 679 690 679 690>
LayerCount: 2
Fore
SplineSet
497 690 m 1
 497 679 l 1
 133 0 l 1
 107 0 l 1
 467 669 l 1
 45 669 l 1
 45 690 l 1
 497 690 l 1
EndSplineSet
Validated: 1
EndChar

StartChar: eight
Encoding: 56 56 25
Width: 530
GlyphClass: 2
Flags: MW
HStem: -15 21<217.5 312.5 217.5 325.5> 348 21<230 316 230 334.5> 683 21<219.5 326.5>
VStem: 39 24<115.5 221> 73 24<483.5 573.5 470.5 574> 449 24<483 573.5> 467 24<115.5 221.5 113.5 225.5>
LayerCount: 2
Fore
SplineSet
344 359 m 1xf2
 442 336 491 268 491 175 c 0
 491 52 386 -15 265 -15 c 0
 136 -15 39 52 39 175 c 0xf2
 39 267 97 335 194 359 c 1
 117 380 73 442 73 525 c 0
 73 623 144 704 273 704 c 0
 408 704 473 623 473 525 c 0xfc
 473 441 424 378 344 359 c 1xf2
97 525 m 0xfc
 97 416 187 369 273 369 c 0
 359 369 449 416 449 525 c 0
 449 622 380 683 273 683 c 0
 166 683 97 622 97 525 c 0xfc
267 6 m 0xf2
 358 6 467 56 467 175 c 0
 467 276 400 348 269 348 c 0
 138 348 63 276 63 175 c 0
 63 56 168 6 267 6 c 0xf2
EndSplineSet
Validated: 1
EndChar

StartChar: nine
Encoding: 57 57 26
Width: 530
GlyphClass: 2
Flags: MW
HStem: -14 21<197.5 301 197.5 321.5> 232 21<197 294.5> 683 21<200.5 326.5>
VStem: 35 24<409 530 409 535.5> 47 22 467 20<386 386>
LayerCount: 2
Fore
SplineSet
264 704 m 0xf4
 400 704 487 615 487 391 c 0
 487 115 397 -14 246 -14 c 0
 124 -14 70 54 48 162 c 2
 46 172 l 1
 68 172 l 1
 70 162 l 2xec
 91 57 149 7 246 7 c 0
 356 7 462 82 467 386 c 1
 447 335 l 1
 403 268 334 232 255 232 c 0
 112 232 35 343 35 471 c 0
 35 600 128 704 264 704 c 0xf4
257 253 m 0
 369 253 460 339 460 454 c 0
 460 581 390 683 263 683 c 0
 138 683 59 588 59 472 c 0
 59 346 137 253 257 253 c 0
EndSplineSet
Validated: 1
EndChar

StartChar: colon
Encoding: 58 58 27
Width: 150
GlyphClass: 2
Flags: MW
HStem: -14 40<54.5 65.5> 500 40<54.5 65.5>
VStem: 40 40<0.5 11.5 514.5 525.5>
LayerCount: 2
Fore
SplineSet
60 540 m 0
 71 540 80 531 80 520 c 0
 80 509 71 500 60 500 c 0
 49 500 40 509 40 520 c 0
 40 531 49 540 60 540 c 0
60 26 m 0
 71 26 80 17 80 6 c 0
 80 -5 71 -14 60 -14 c 0
 49 -14 40 -5 40 6 c 0
 40 17 49 26 60 26 c 0
EndSplineSet
Validated: 1
EndChar

StartChar: semicolon
Encoding: 59 59 28
Width: 150
GlyphClass: 2
Flags: MW
HStem: -116 140<-2 67 -2 67> 500 40<54.5 65.5>
VStem: -2 82
LayerCount: 2
Fore
SplineSet
60 540 m 0
 71 540 80 531 80 520 c 0
 80 509 71 500 60 500 c 0
 49 500 40 509 40 520 c 0
 40 531 49 540 60 540 c 0
68 19 m 1
 17 -116 l 1
 -2 -116 l 1
 44 24 l 1
 67 24 l 1
 68 19 l 1
EndSplineSet
Validated: 1
EndChar

StartChar: less
Encoding: 60 60 29
Width: 530
GlyphClass: 2
Flags: MW
HStem: 60 410<472 472>
VStem: 71 30<265 265 265 275 265 275>
LayerCount: 2
Fore
SplineSet
472 445 m 1
 101 265 l 1
 472 85 l 1
 472 60 l 1
 71 255 l 1
 71 275 l 1
 472 470 l 1
 472 445 l 1
EndSplineSet
Validated: 1
EndChar

StartChar: equal
Encoding: 61 61 30
Width: 530
GlyphClass: 2
Flags: MW
HStem: 217 21<55 475 55 475> 397 21<55 475 55 475>
VStem: 55 420<217 238 217 238 397 418 217 418>
LayerCount: 2
Fore
SplineSet
475 397 m 1
 55 397 l 1
 55 418 l 1
 475 418 l 1
 475 397 l 1
475 217 m 1
 55 217 l 1
 55 238 l 1
 475 238 l 1
 475 217 l 1
EndSplineSet
Validated: 1
EndChar

StartChar: greater
Encoding: 62 62 31
Width: 530
GlyphClass: 2
Flags: MW
HStem: 60 410<58 58>
VStem: 429 30<265 265>
LayerCount: 2
Fore
SplineSet
459 275 m 1
 459 255 l 1
 58 60 l 1
 58 85 l 1
 429 265 l 1
 58 445 l 1
 58 470 l 1
 459 275 l 1
EndSplineSet
Validated: 1
EndChar

StartChar: question
Encoding: 63 63 32
Width: 522
GlyphClass: 2
Flags: MW
HStem: -14 40<236.5 247.5> 683 21<202 309>
VStem: 50 22<494 494> 231 20<110 160.5> 426 24<494 575.5>
LayerCount: 2
Fore
SplineSet
259 704 m 0
 384 704 450 625 450 526 c 0
 450 455 413 392 357 339 c 0
 266 252 251 211 251 110 c 1
 231 110 l 1
 232 220 245 258 341 352 c 0
 399 409 426 462 426 526 c 0
 426 625 359 683 259 683 c 0
 145 683 80 607 72 494 c 1
 50 494 l 1
 55 618 139 704 259 704 c 0
242 26 m 0
 253 26 262 17 262 6 c 0
 262 -5 253 -14 242 -14 c 0
 231 -14 222 -5 222 6 c 0
 222 17 231 26 242 26 c 0
EndSplineSet
Validated: 1
EndChar

StartChar: at
Encoding: 64 64 33
Width: 851
GlyphClass: 2
Flags: MW
HStem: -104 21<315 445> -15 21G<681 681> 67 21<346 396> 75 21<591 658.5 591 660.5> 462 21<410 481.5 401.5 485.5> 643 21<377.5 555.5>
VStem: 61 24<138.5 371 138.5 375.5> 250 24<176 288.5> 512 24<145 173> 545 13 773 24<261 430>
LayerCount: 2
Fore
SplineSet
599 465 m 1xefe0
 549 256 l 2
 538 207 536 187 536 168 c 0
 536 122 567 96 615 96 c 0
 702 96 773 189 773 333 c 0
 773 527 647 643 464 643 c 0
 291 643 85 495 85 247 c 0
 85 30 235 -83 395 -83 c 0
 499 -83 572 -63 669 4 c 1
 681 -15 l 1
 569 -90 495 -104 395 -104 c 0
 230 -104 61 9 61 244 c 0
 61 507 275 664 470 664 c 0
 665 664 797 530 797 338 c 0
 797 165 708 75 613 75 c 0
 564 75 512 97 512 173 c 1xdfa0
 494 135 l 1xefa0
 459 88 419 67 373 67 c 0
 319 67 250 98 250 218 c 0
 250 359 341 483 462 483 c 0
 501 483 524 467 537 449 c 1
 558 397 l 1
 574 465 l 1
 599 465 l 1xefe0
532 279 m 2
 541 319 l 2xdfe0
 544 333 546 346 546 359 c 0
 546 418 513 462 458 462 c 0
 362 462 274 356 274 222 c 0
 274 130 315 88 377 88 c 0xefa0
 438 88 500 139 532 279 c 2
EndSplineSet
Validated: 1
EndChar

StartChar: A
Encoding: 65 65 34
Width: 616
GlyphClass: 2
Flags: MW
HStem: 0 21G<36 59 36 36 575 575 575 599> 269 21<170 462 170 471 162 462> 671 19<317 317>
VStem: 36 563<0 0>
LayerCount: 2
Fore
SplineSet
471 269 m 1
 162 269 l 1
 59 0 l 1
 36 0 l 1
 303 690 l 1
 332 690 l 1
 599 0 l 1
 575 0 l 1
 471 269 l 1
170 290 m 1
 462 290 l 1
 317 671 l 1
 170 290 l 1
EndSplineSet
Validated: 1
Position2: "'cpsp' Capital Spacing in Latin lookup 7 subtable" dx=5 dy=0 dh=10 dv=0
Position2: "'cpsp' Capital Spacing in Latin lookup 6 subtable" dx=5 dy=0 dh=10 dv=0
Position2: "'cpsp' Capital Spacing in Latin lookup 5 subtable" dx=5 dy=0 dh=10 dv=0
Position2: "'cpsp' Capital Spacing in Latin lookup 4 subtable" dx=5 dy=0 dh=10 dv=0
Position2: "'cpsp' Capital Spacing in Cyrillic lookup 3 subtable" dx=5 dy=0 dh=10 dv=0
Position2: "'cpsp' Capital Spacing lookup 2 subtable" dx=5 dy=0 dh=10 dv=0
Position2: "'cpsp' Capital Spacing lookup 1 subtable" dx=5 dy=0 dh=10 dv=0
EndChar

StartChar: B
Encoding: 66 66 35
Width: 587
GlyphClass: 2
Flags: MW
HStem: 0 21<118 288> 351 21<118 284 284 292 118 298 118 284> 669 21<118 118 118 270>
VStem: 96 22<21 351 372 669> 498 24<481.5 573 481.5 574.5> 524 24<128 221.5>
LayerCount: 2
Fore
SplineSet
388 364 m 1
 496 348 548 277 548 183 c 0
 548 73 459 8 356 2 c 0
 331 0 312 0 288 0 c 2
 96 0 l 1
 96 690 l 1
 270 690 l 2
 297 690 313 690 348 688 c 0
 452 681 522 621 522 525 c 0
 522 438 471 377 388 364 c 1
118 669 m 1
 118 372 l 1
 284 372 l 2
 300 372 316 372 339 373 c 0
 411 377 498 411 498 520 c 0
 498 629 415 665 335 668 c 0
 312 669 296 669 270 669 c 2
 118 669 l 1
349 22 m 0
 434 28 524 73 524 182 c 0
 524 261 484 344 350 350 c 0
 327 351 314 351 298 351 c 2
 118 351 l 1
 118 21 l 1
 304 21 l 2
 320 21 336 21 349 22 c 0
EndSplineSet
Validated: 1
Position2: "'cpsp' Capital Spacing in Latin lookup 7 subtable" dx=5 dy=0 dh=10 dv=0
Position2: "'cpsp' Capital Spacing in Latin lookup 6 subtable" dx=5 dy=0 dh=10 dv=0
Position2: "'cpsp' Capital Spacing in Latin lookup 5 subtable" dx=5 dy=0 dh=10 dv=0
Position2: "'cpsp' Capital Spacing in Latin lookup 4 subtable" dx=5 dy=0 dh=10 dv=0
Position2: "'cpsp' Capital Spacing in Cyrillic lookup 3 subtable" dx=5 dy=0 dh=10 dv=0
Position2: "'cpsp' Capital Spacing lookup 2 subtable" dx=5 dy=0 dh=10 dv=0
Position2: "'cpsp' Capital Spacing lookup 1 subtable" dx=5 dy=0 dh=10 dv=0
EndChar

StartChar: C
Encoding: 67 67 36
Width: 677
GlyphClass: 2
Flags: MW
HStem: -14 21<278 426 278 432.5> 683 21<288 428.5>
VStem: 51 24<230.5 450.5> 603 22
LayerCount: 2
Fore
SplineSet
364 704 m 0
 515 704 599 608 624 484 c 2
 626 474 l 1
 604 474 l 1
 602 484 l 2
 579 597 497 683 360 683 c 0
 216 683 75 565 75 344 c 0
 75 115 204 7 352 7 c 0
 500 7 580 99 604 217 c 2
 606 227 l 1
 628 227 l 1
 626 217 l 2
 600 88 515 -14 350 -14 c 0
 179 -14 51 118 51 343 c 0
 51 558 187 704 364 704 c 0
EndSplineSet
Validated: 1
Position2: "'cpsp' Capital Spacing in Latin lookup 7 subtable" dx=5 dy=0 dh=10 dv=0
Position2: "'cpsp' Capital Spacing in Latin lookup 6 subtable" dx=5 dy=0 dh=10 dv=0
Position2: "'cpsp' Capital Spacing in Latin lookup 5 subtable" dx=5 dy=0 dh=10 dv=0
Position2: "'cpsp' Capital Spacing in Latin lookup 4 subtable" dx=5 dy=0 dh=10 dv=0
Position2: "'cpsp' Capital Spacing in Cyrillic lookup 3 subtable" dx=5 dy=0 dh=10 dv=0
Position2: "'cpsp' Capital Spacing lookup 2 subtable" dx=5 dy=0 dh=10 dv=0
Position2: "'cpsp' Capital Spacing lookup 1 subtable" dx=5 dy=0 dh=10 dv=0
EndChar

StartChar: D
Encoding: 68 68 37
Width: 679
GlyphClass: 2
Flags: MW
HStem: 0 21<118 295 118 295> 669 21<118 295 118 118>
VStem: 96 22<21 669 21 690 21 690> 617 24<244.5 456.5>
LayerCount: 2
Fore
SplineSet
368 688 m 0
 474 680 641 592 641 348 c 0
 641 105 476 15 383 4 c 0
 348 0 327 0 295 0 c 2
 96 0 l 1
 96 690 l 1
 295 690 l 2
 327 690 343 690 368 688 c 0
380 25 m 0
 489 38 617 141 617 348 c 0
 617 565 476 657 367 667 c 0
 345 669 331 669 295 669 c 2
 118 669 l 1
 118 21 l 1
 295 21 l 2
 326 21 347 21 380 25 c 0
EndSplineSet
Validated: 1
Position2: "'cpsp' Capital Spacing in Latin lookup 7 subtable" dx=5 dy=0 dh=10 dv=0
Position2: "'cpsp' Capital Spacing in Latin lookup 6 subtable" dx=5 dy=0 dh=10 dv=0
Position2: "'cpsp' Capital Spacing in Latin lookup 5 subtable" dx=5 dy=0 dh=10 dv=0
Position2: "'cpsp' Capital Spacing in Latin lookup 4 subtable" dx=5 dy=0 dh=10 dv=0
Position2: "'cpsp' Capital Spacing in Cyrillic lookup 3 subtable" dx=5 dy=0 dh=10 dv=0
Position2: "'cpsp' Capital Spacing lookup 2 subtable" dx=5 dy=0 dh=10 dv=0
Position2: "'cpsp' Capital Spacing lookup 1 subtable" dx=5 dy=0 dh=10 dv=0
EndChar

StartChar: E
Encoding: 69 69 38
Width: 557
GlyphClass: 2
Flags: MW
HStem: 0 20<118 525 118 525> 335 20<118 495 118 495> 670 20<118 515 118 118>
VStem: 96 22<20 335 355 670>
CounterMasks: 1 e0
LayerCount: 2
Fore
SplineSet
525 20 m 1
 525 0 l 1
 96 0 l 1
 96 690 l 1
 515 690 l 1
 515 670 l 1
 118 670 l 1
 118 355 l 1
 495 355 l 1
 495 335 l 1
 118 335 l 1
 118 20 l 1
 525 20 l 1
EndSplineSet
Validated: 1
Position2: "'cpsp' Capital Spacing in Latin lookup 7 subtable" dx=5 dy=0 dh=10 dv=0
Position2: "'cpsp' Capital Spacing in Latin lookup 6 subtable" dx=5 dy=0 dh=10 dv=0
Position2: "'cpsp' Capital Spacing in Latin lookup 5 subtable" dx=5 dy=0 dh=10 dv=0
Position2: "'cpsp' Capital Spacing in Latin lookup 4 subtable" dx=5 dy=0 dh=10 dv=0
Position2: "'cpsp' Capital Spacing in Cyrillic lookup 3 subtable" dx=5 dy=0 dh=10 dv=0
Position2: "'cpsp' Capital Spacing lookup 2 subtable" dx=5 dy=0 dh=10 dv=0
Position2: "'cpsp' Capital Spacing lookup 1 subtable" dx=5 dy=0 dh=10 dv=0
EndChar

StartChar: F
Encoding: 70 70 39
Width: 531
GlyphClass: 2
Flags: MW
HStem: 0 21G<96 118 96 96> 335 20<118 485 118 485> 670 20<118 118 118 515>
VStem: 96 22<0 335 355 670>
LayerCount: 2
Fore
SplineSet
118 670 m 1
 118 355 l 1
 485 355 l 1
 485 335 l 1
 118 335 l 1
 118 0 l 1
 96 0 l 1
 96 690 l 1
 515 690 l 1
 515 670 l 1
 118 670 l 1
EndSplineSet
Validated: 1
Position2: "'cpsp' Capital Spacing in Latin lookup 7 subtable" dx=5 dy=0 dh=10 dv=0
Position2: "'cpsp' Capital Spacing in Latin lookup 6 subtable" dx=5 dy=0 dh=10 dv=0
Position2: "'cpsp' Capital Spacing in Latin lookup 5 subtable" dx=5 dy=0 dh=10 dv=0
Position2: "'cpsp' Capital Spacing in Latin lookup 4 subtable" dx=5 dy=0 dh=10 dv=0
Position2: "'cpsp' Capital Spacing in Cyrillic lookup 3 subtable" dx=5 dy=0 dh=10 dv=0
Position2: "'cpsp' Capital Spacing lookup 2 subtable" dx=5 dy=0 dh=10 dv=0
Position2: "'cpsp' Capital Spacing lookup 1 subtable" dx=5 dy=0 dh=10 dv=0
EndChar

StartChar: G
Encoding: 71 71 40
Width: 694
GlyphClass: 2
Flags: MW
HStem: -14 21<279.5 397.5> 0 21G<612 634 612 612> 287 20<379 612 379 634> 683 21<294.5 438.5>
VStem: 51 24<230.5 450.5> 612 22<0 184 181 287 184 184>
LayerCount: 2
Fore
SplineSet
379 307 m 1xbc
 634 307 l 1
 634 0 l 1
 612 0 l 1x7c
 612 184 l 1
 592 119 l 1
 535 23 442 -14 353 -14 c 0
 179 -14 51 118 51 343 c 0
 51 558 190 704 374 704 c 0
 525 704 609 608 634 484 c 2
 636 474 l 1
 614 474 l 1
 612 484 l 2
 589 597 507 683 370 683 c 0
 219 683 75 565 75 344 c 0
 75 115 204 7 355 7 c 0
 460 7 612 75 612 287 c 1
 379 287 l 1
 379 307 l 1xbc
EndSplineSet
Validated: 1
Position2: "'cpsp' Capital Spacing in Latin lookup 7 subtable" dx=5 dy=0 dh=10 dv=0
Position2: "'cpsp' Capital Spacing in Latin lookup 6 subtable" dx=5 dy=0 dh=10 dv=0
Position2: "'cpsp' Capital Spacing in Latin lookup 5 subtable" dx=5 dy=0 dh=10 dv=0
Position2: "'cpsp' Capital Spacing in Latin lookup 4 subtable" dx=5 dy=0 dh=10 dv=0
Position2: "'cpsp' Capital Spacing in Cyrillic lookup 3 subtable" dx=5 dy=0 dh=10 dv=0
Position2: "'cpsp' Capital Spacing lookup 2 subtable" dx=5 dy=0 dh=10 dv=0
Position2: "'cpsp' Capital Spacing lookup 1 subtable" dx=5 dy=0 dh=10 dv=0
EndChar

StartChar: H
Encoding: 72 72 41
Width: 655
GlyphClass: 2
Flags: MW
HStem: 0 21G<96 118 96 96 562 584 562 562> 328 21<118 562 118 562> 670 20G<96 118 118 118 562 584 584 584>
VStem: 96 22<0 328 0 349 349 690> 562 22<0 328 328 328 349 690 0 690>
LayerCount: 2
Fore
SplineSet
584 690 m 1
 584 0 l 1
 562 0 l 1
 562 328 l 1
 118 328 l 1
 118 0 l 1
 96 0 l 1
 96 690 l 1
 118 690 l 1
 118 349 l 1
 562 349 l 1
 562 690 l 1
 584 690 l 1
EndSplineSet
Validated: 1
Position2: "'cpsp' Capital Spacing in Latin lookup 7 subtable" dx=5 dy=0 dh=10 dv=0
Position2: "'cpsp' Capital Spacing in Latin lookup 6 subtable" dx=5 dy=0 dh=10 dv=0
Position2: "'cpsp' Capital Spacing in Latin lookup 5 subtable" dx=5 dy=0 dh=10 dv=0
Position2: "'cpsp' Capital Spacing in Latin lookup 4 subtable" dx=5 dy=0 dh=10 dv=0
Position2: "'cpsp' Capital Spacing in Cyrillic lookup 3 subtable" dx=5 dy=0 dh=10 dv=0
Position2: "'cpsp' Capital Spacing lookup 2 subtable" dx=5 dy=0 dh=10 dv=0
Position2: "'cpsp' Capital Spacing lookup 1 subtable" dx=5 dy=0 dh=10 dv=0
EndChar

StartChar: I
Encoding: 73 73 42
Width: 189
GlyphClass: 2
Flags: MW
HStem: 0 21G<96 118 96 96> 670 20G<96 118 118 118>
VStem: 96 22<0 690>
LayerCount: 2
Fore
SplineSet
118 0 m 1
 96 0 l 1
 96 690 l 1
 118 690 l 1
 118 0 l 1
EndSplineSet
Validated: 1
Position2: "'cpsp' Capital Spacing in Latin lookup 7 subtable" dx=5 dy=0 dh=10 dv=0
Position2: "'cpsp' Capital Spacing in Latin lookup 6 subtable" dx=5 dy=0 dh=10 dv=0
Position2: "'cpsp' Capital Spacing in Latin lookup 5 subtable" dx=5 dy=0 dh=10 dv=0
Position2: "'cpsp' Capital Spacing in Latin lookup 4 subtable" dx=5 dy=0 dh=10 dv=0
Position2: "'cpsp' Capital Spacing in Cyrillic lookup 3 subtable" dx=5 dy=0 dh=10 dv=0
Position2: "'cpsp' Capital Spacing lookup 2 subtable" dx=5 dy=0 dh=10 dv=0
Position2: "'cpsp' Capital Spacing lookup 1 subtable" dx=5 dy=0 dh=10 dv=0
EndChar

StartChar: J
Encoding: 74 74 43
Width: 495
GlyphClass: 2
Flags: MW
HStem: -14 21<194.5 290 194.5 302> 670 20G<407 429 429 429>
VStem: 47 22<224 224> 406 22
LayerCount: 2
Fore
SplineSet
429 690 m 1
 429 260 l 2
 429 229 429 201 427 169 c 0
 421 77 365 -14 239 -14 c 0
 123 -14 53 53 48 194 c 2
 47 224 l 1
 69 224 l 1
 70 194 l 2
 75 56 148 7 241 7 c 0
 339 7 396 68 405 172 c 0
 407 194 407 221 407 252 c 2
 407 690 l 1
 429 690 l 1
EndSplineSet
Validated: 1
Position2: "'cpsp' Capital Spacing in Latin lookup 7 subtable" dx=5 dy=0 dh=10 dv=0
Position2: "'cpsp' Capital Spacing in Latin lookup 6 subtable" dx=5 dy=0 dh=10 dv=0
Position2: "'cpsp' Capital Spacing in Latin lookup 5 subtable" dx=5 dy=0 dh=10 dv=0
Position2: "'cpsp' Capital Spacing in Latin lookup 4 subtable" dx=5 dy=0 dh=10 dv=0
Position2: "'cpsp' Capital Spacing in Cyrillic lookup 3 subtable" dx=5 dy=0 dh=10 dv=0
Position2: "'cpsp' Capital Spacing lookup 2 subtable" dx=5 dy=0 dh=10 dv=0
Position2: "'cpsp' Capital Spacing lookup 1 subtable" dx=5 dy=0 dh=10 dv=0
EndChar

StartChar: K
Encoding: 75 75 44
Width: 553
GlyphClass: 2
Flags: MW
HStem: 0 21G<96 118 96 96 502 535 502 502> 670 20G<96 118 118 118 512 541 541 541>
VStem: 96 22<0 299 324 690>
LayerCount: 2
Fore
SplineSet
180 355 m 1
 535 0 l 1
 502 0 l 1
 163 341 l 1
 118 299 l 1
 118 0 l 1
 96 0 l 1
 96 690 l 1
 118 690 l 1
 118 324 l 1
 512 690 l 1
 541 690 l 1
 180 355 l 1
EndSplineSet
Validated: 1
Position2: "'cpsp' Capital Spacing in Latin lookup 7 subtable" dx=5 dy=0 dh=10 dv=0
Position2: "'cpsp' Capital Spacing in Latin lookup 6 subtable" dx=5 dy=0 dh=10 dv=0
Position2: "'cpsp' Capital Spacing in Latin lookup 5 subtable" dx=5 dy=0 dh=10 dv=0
Position2: "'cpsp' Capital Spacing in Latin lookup 4 subtable" dx=5 dy=0 dh=10 dv=0
Position2: "'cpsp' Capital Spacing in Cyrillic lookup 3 subtable" dx=5 dy=0 dh=10 dv=0
Position2: "'cpsp' Capital Spacing lookup 2 subtable" dx=5 dy=0 dh=10 dv=0
Position2: "'cpsp' Capital Spacing lookup 1 subtable" dx=5 dy=0 dh=10 dv=0
EndChar

StartChar: L
Encoding: 76 76 45
Width: 539
GlyphClass: 2
Flags: MW
HStem: 0 20<118 525 118 525> 670 20G<96 118 118 118>
VStem: 96 22<20 690 20 690 20 690>
LayerCount: 2
Fore
SplineSet
525 20 m 1
 525 0 l 1
 96 0 l 1
 96 690 l 1
 118 690 l 1
 118 20 l 1
 525 20 l 1
EndSplineSet
Validated: 1
Position2: "'cpsp' Capital Spacing in Latin lookup 7 subtable" dx=5 dy=0 dh=10 dv=0
Position2: "'cpsp' Capital Spacing in Latin lookup 6 subtable" dx=5 dy=0 dh=10 dv=0
Position2: "'cpsp' Capital Spacing in Latin lookup 5 subtable" dx=5 dy=0 dh=10 dv=0
Position2: "'cpsp' Capital Spacing in Latin lookup 4 subtable" dx=5 dy=0 dh=10 dv=0
Position2: "'cpsp' Capital Spacing in Cyrillic lookup 3 subtable" dx=5 dy=0 dh=10 dv=0
Position2: "'cpsp' Capital Spacing lookup 2 subtable" dx=5 dy=0 dh=10 dv=0
Position2: "'cpsp' Capital Spacing lookup 1 subtable" dx=5 dy=0 dh=10 dv=0
EndChar

StartChar: M
Encoding: 77 77 46
Width: 794
GlyphClass: 2
Flags: MW
HStem: 0 21<410 410 410 423 395 410> 673 17
VStem: 96 22<0 400 0 690> 702 21<0 400 400 537 537 560>
LayerCount: 2
Fore
SplineSet
723 690 m 1
 723 0 l 1
 702 0 l 1
 702 400 l 1
 702 537 l 2
 702 583 702 630 703 673 c 1
 669 586 629 487 592 400 c 2
 423 0 l 1
 395 0 l 1
 227 400 l 2
 191 487 150 586 116 673 c 1
 118 586 118 488 118 400 c 2
 118 0 l 1
 96 0 l 1
 96 690 l 1
 131 690 l 1
 410 21 l 1
 691 690 l 1
 723 690 l 1
EndSplineSet
Validated: 1
Position2: "'cpsp' Capital Spacing in Latin lookup 7 subtable" dx=5 dy=0 dh=10 dv=0
Position2: "'cpsp' Capital Spacing in Latin lookup 6 subtable" dx=5 dy=0 dh=10 dv=0
Position2: "'cpsp' Capital Spacing in Latin lookup 5 subtable" dx=5 dy=0 dh=10 dv=0
Position2: "'cpsp' Capital Spacing in Latin lookup 4 subtable" dx=5 dy=0 dh=10 dv=0
Position2: "'cpsp' Capital Spacing in Cyrillic lookup 3 subtable" dx=5 dy=0 dh=10 dv=0
Position2: "'cpsp' Capital Spacing lookup 2 subtable" dx=5 dy=0 dh=10 dv=0
Position2: "'cpsp' Capital Spacing lookup 1 subtable" dx=5 dy=0 dh=10 dv=0
EndChar

StartChar: N
Encoding: 78 78 47
Width: 637
GlyphClass: 2
Flags: MW
HStem: 0 20<546 546 546 566 532 546> 670 20<116 116>
VStem: 96 22<0 375 0 690> 544 22<315 690>
LayerCount: 2
Fore
SplineSet
566 0 m 1
 532 0 l 1
 116 670 l 1
 118 577 118 468 118 375 c 2
 118 0 l 1
 96 0 l 1
 96 690 l 1
 129 690 l 1
 546 20 l 1
 544 113 544 222 544 315 c 2
 544 690 l 1
 566 690 l 1
 566 0 l 1
EndSplineSet
Validated: 1
Position2: "'cpsp' Capital Spacing in Latin lookup 7 subtable" dx=5 dy=0 dh=10 dv=0
Position2: "'cpsp' Capital Spacing in Latin lookup 6 subtable" dx=5 dy=0 dh=10 dv=0
Position2: "'cpsp' Capital Spacing in Latin lookup 5 subtable" dx=5 dy=0 dh=10 dv=0
Position2: "'cpsp' Capital Spacing in Latin lookup 4 subtable" dx=5 dy=0 dh=10 dv=0
Position2: "'cpsp' Capital Spacing in Cyrillic lookup 3 subtable" dx=5 dy=0 dh=10 dv=0
Position2: "'cpsp' Capital Spacing lookup 2 subtable" dx=5 dy=0 dh=10 dv=0
Position2: "'cpsp' Capital Spacing lookup 1 subtable" dx=5 dy=0 dh=10 dv=0
EndChar

StartChar: O
Encoding: 79 79 48
Width: 713
GlyphClass: 2
Flags: MW
HStem: -14 21<286 440 286 457> 683 21<286 440>
VStem: 51 24<242 448.5> 651 24<242 448.5 242 453.5>
LayerCount: 2
Fore
SplineSet
363 704 m 0
 551 704 675 552 675 345 c 0
 675 139 551 -14 363 -14 c 0
 175 -14 51 139 51 345 c 0
 51 552 175 704 363 704 c 0
363 7 m 0
 517 7 651 129 651 345 c 0
 651 562 517 683 363 683 c 0
 209 683 75 562 75 345 c 0
 75 129 209 7 363 7 c 0
EndSplineSet
Validated: 1
Position2: "'cpsp' Capital Spacing in Latin lookup 7 subtable" dx=5 dy=0 dh=10 dv=0
Position2: "'cpsp' Capital Spacing in Latin lookup 6 subtable" dx=5 dy=0 dh=10 dv=0
Position2: "'cpsp' Capital Spacing in Latin lookup 5 subtable" dx=5 dy=0 dh=10 dv=0
Position2: "'cpsp' Capital Spacing in Latin lookup 4 subtable" dx=5 dy=0 dh=10 dv=0
Position2: "'cpsp' Capital Spacing in Cyrillic lookup 3 subtable" dx=5 dy=0 dh=10 dv=0
Position2: "'cpsp' Capital Spacing lookup 2 subtable" dx=5 dy=0 dh=10 dv=0
Position2: "'cpsp' Capital Spacing lookup 1 subtable" dx=5 dy=0 dh=10 dv=0
EndChar

StartChar: P
Encoding: 80 80 49
Width: 521
GlyphClass: 2
Flags: MW
HStem: 0 21G<96 118 96 96> 308 21<118 249 118 249> 669 21<118 249 118 118>
VStem: 96 22<0 308 0 329 329 669> 491 24<449.5 555.5>
LayerCount: 2
Fore
SplineSet
348 685 m 0
 441 673 515 621 515 504 c 0
 515 384 441 325 348 313 c 0
 316 309 284 308 249 308 c 2
 118 308 l 1
 118 0 l 1
 96 0 l 1
 96 690 l 1
 249 690 l 2
 284 690 316 689 348 685 c 0
344 334 m 0
 428 344 491 395 491 504 c 0
 491 607 428 654 344 664 c 0
 312 668 285 669 249 669 c 2
 118 669 l 1
 118 329 l 1
 249 329 l 2
 285 329 312 330 344 334 c 0
EndSplineSet
Validated: 1
Position2: "'cpsp' Capital Spacing in Latin lookup 7 subtable" dx=5 dy=0 dh=10 dv=0
Position2: "'cpsp' Capital Spacing in Latin lookup 6 subtable" dx=5 dy=0 dh=10 dv=0
Position2: "'cpsp' Capital Spacing in Latin lookup 5 subtable" dx=5 dy=0 dh=10 dv=0
Position2: "'cpsp' Capital Spacing in Latin lookup 4 subtable" dx=5 dy=0 dh=10 dv=0
Position2: "'cpsp' Capital Spacing in Cyrillic lookup 3 subtable" dx=5 dy=0 dh=10 dv=0
Position2: "'cpsp' Capital Spacing lookup 2 subtable" dx=5 dy=0 dh=10 dv=0
Position2: "'cpsp' Capital Spacing lookup 1 subtable" dx=5 dy=0 dh=10 dv=0
EndChar

StartChar: Q
Encoding: 81 81 50
Width: 715
GlyphClass: 2
Flags: MW
HStem: -14 21<286 377.5> 2 22 683 21<286 440>
VStem: 51 24<242 448.5> 651 24<287 448.5 287 453.5>
LayerCount: 2
Fore
SplineSet
675 345 m 0xb8
 675 229 640 102 510 24 c 1
 572 22 607 4 656 -35 c 1
 642 -52 l 1
 590 -11 552 2 501 2 c 0x78
 479 2 462 -1 434 -7 c 0
 410 -12 392 -14 363 -14 c 0
 175 -14 51 139 51 345 c 0
 51 552 175 704 363 704 c 0
 551 704 675 552 675 345 c 0xb8
75 345 m 0
 75 129 209 7 363 7 c 0
 517 7 651 129 651 345 c 0
 651 562 517 683 363 683 c 0
 209 683 75 562 75 345 c 0
EndSplineSet
Validated: 1
Position2: "'cpsp' Capital Spacing in Latin lookup 7 subtable" dx=5 dy=0 dh=10 dv=0
Position2: "'cpsp' Capital Spacing in Latin lookup 6 subtable" dx=5 dy=0 dh=10 dv=0
Position2: "'cpsp' Capital Spacing in Latin lookup 5 subtable" dx=5 dy=0 dh=10 dv=0
Position2: "'cpsp' Capital Spacing in Latin lookup 4 subtable" dx=5 dy=0 dh=10 dv=0
Position2: "'cpsp' Capital Spacing in Cyrillic lookup 3 subtable" dx=5 dy=0 dh=10 dv=0
Position2: "'cpsp' Capital Spacing lookup 2 subtable" dx=5 dy=0 dh=10 dv=0
Position2: "'cpsp' Capital Spacing lookup 1 subtable" dx=5 dy=0 dh=10 dv=0
EndChar

StartChar: R
Encoding: 82 82 51
Width: 571
GlyphClass: 2
Flags: MW
HStem: 0 21G<96 118 96 96 513 539 513 513> 338 21<118 279 118 279> 669 21<118 263 118 118>
VStem: 96 22<0 338 359 669> 505 24<472 559.5>
LayerCount: 2
Fore
SplineSet
493 189 m 0
 505 86 520 43 539 0 c 1
 513 0 l 1
 498 44 482 84 470 184 c 0
 461 261 426 333 342 337 c 0
 320 338 295 338 279 338 c 2
 118 338 l 1
 118 0 l 1
 96 0 l 1
 96 690 l 1
 263 690 l 2
 298 690 330 689 362 685 c 0
 469 672 529 615 529 516 c 0
 529 428 475 364 385 348 c 1
 449 330 484 269 493 189 c 0
118 359 m 1
 279 359 l 2
 305 359 322 359 354 361 c 0
 448 368 505 429 505 515 c 0
 505 604 452 652 358 664 c 0
 326 668 299 669 263 669 c 2
 118 669 l 1
 118 359 l 1
EndSplineSet
Validated: 1
Position2: "'cpsp' Capital Spacing in Latin lookup 7 subtable" dx=5 dy=0 dh=10 dv=0
Position2: "'cpsp' Capital Spacing in Latin lookup 6 subtable" dx=5 dy=0 dh=10 dv=0
Position2: "'cpsp' Capital Spacing in Latin lookup 5 subtable" dx=5 dy=0 dh=10 dv=0
Position2: "'cpsp' Capital Spacing in Latin lookup 4 subtable" dx=5 dy=0 dh=10 dv=0
Position2: "'cpsp' Capital Spacing in Cyrillic lookup 3 subtable" dx=5 dy=0 dh=10 dv=0
Position2: "'cpsp' Capital Spacing lookup 2 subtable" dx=5 dy=0 dh=10 dv=0
Position2: "'cpsp' Capital Spacing lookup 1 subtable" dx=5 dy=0 dh=10 dv=0
EndChar

StartChar: S
Encoding: 83 83 52
Width: 560
GlyphClass: 2
Flags: MW
HStem: -14 21<228 340.5 228 347.5> 683 21<239 331.5>
VStem: 39 22<180 180> 71 24<483.5 581.5> 483 24<118.5 214.5>
LayerCount: 2
Fore
SplineSet
284 704 m 0
 413 704 482 617 495 514 c 1
 473 514 l 1
 455 620 380 683 283 683 c 0
 195 683 95 632 95 533 c 0
 95 434 156 403 294 363 c 0
 437 322 507 275 507 167 c 0
 507 65 412 -14 283 -14 c 0
 162 -14 53 47 39 180 c 1
 61 180 l 1
 74 67 172 7 284 7 c 0
 397 7 483 72 483 165 c 0
 483 264 424 301 284 341 c 0
 136 383 71 425 71 531 c 0
 71 632 170 704 284 704 c 0
EndSplineSet
Validated: 1
Position2: "'cpsp' Capital Spacing in Latin lookup 7 subtable" dx=5 dy=0 dh=10 dv=0
Position2: "'cpsp' Capital Spacing in Latin lookup 6 subtable" dx=5 dy=0 dh=10 dv=0
Position2: "'cpsp' Capital Spacing in Latin lookup 5 subtable" dx=5 dy=0 dh=10 dv=0
Position2: "'cpsp' Capital Spacing in Latin lookup 4 subtable" dx=5 dy=0 dh=10 dv=0
Position2: "'cpsp' Capital Spacing in Cyrillic lookup 3 subtable" dx=5 dy=0 dh=10 dv=0
Position2: "'cpsp' Capital Spacing lookup 2 subtable" dx=5 dy=0 dh=10 dv=0
Position2: "'cpsp' Capital Spacing lookup 1 subtable" dx=5 dy=0 dh=10 dv=0
EndChar

StartChar: T
Encoding: 84 84 53
Width: 580
GlyphClass: 2
Flags: MW
HStem: 0 21G<296 318 296 296> 670 20<32 296 32 582 318 582 318 318>
VStem: 296 22<0 670 0 670>
LayerCount: 2
Fore
SplineSet
582 670 m 1
 318 670 l 1
 318 0 l 1
 296 0 l 1
 296 670 l 1
 32 670 l 1
 32 690 l 1
 582 690 l 1
 582 670 l 1
EndSplineSet
Validated: 1
Position2: "'cpsp' Capital Spacing in Latin lookup 7 subtable" dx=5 dy=0 dh=10 dv=0
Position2: "'cpsp' Capital Spacing in Latin lookup 6 subtable" dx=5 dy=0 dh=10 dv=0
Position2: "'cpsp' Capital Spacing in Latin lookup 5 subtable" dx=5 dy=0 dh=10 dv=0
Position2: "'cpsp' Capital Spacing in Latin lookup 4 subtable" dx=5 dy=0 dh=10 dv=0
Position2: "'cpsp' Capital Spacing in Cyrillic lookup 3 subtable" dx=5 dy=0 dh=10 dv=0
Position2: "'cpsp' Capital Spacing lookup 2 subtable" dx=5 dy=0 dh=10 dv=0
Position2: "'cpsp' Capital Spacing lookup 1 subtable" dx=5 dy=0 dh=10 dv=0
EndChar

StartChar: U
Encoding: 85 85 54
Width: 600
GlyphClass: 2
Flags: MW
HStem: -14 21<246.5 377.5 246.5 381> 670 20G<90 112 112 112 512 534 534 534>
VStem: 90 22<233 690> 512 22<229 233 233 690>
LayerCount: 2
Fore
SplineSet
534 690 m 1
 534 233 l 2
 534 218 533 197 531 166 c 0
 524 60 450 -14 312 -14 c 0
 174 -14 100 60 93 166 c 0
 91 197 90 218 90 233 c 2
 90 690 l 1
 112 690 l 1
 112 229 l 2
 112 206 113 188 115 167 c 0
 123 80 181 7 312 7 c 0
 443 7 501 80 509 167 c 0
 511 188 512 206 512 229 c 2
 512 690 l 1
 534 690 l 1
EndSplineSet
Validated: 1
Position2: "'cpsp' Capital Spacing in Latin lookup 7 subtable" dx=5 dy=0 dh=10 dv=0
Position2: "'cpsp' Capital Spacing in Latin lookup 6 subtable" dx=5 dy=0 dh=10 dv=0
Position2: "'cpsp' Capital Spacing in Latin lookup 5 subtable" dx=5 dy=0 dh=10 dv=0
Position2: "'cpsp' Capital Spacing in Latin lookup 4 subtable" dx=5 dy=0 dh=10 dv=0
Position2: "'cpsp' Capital Spacing in Cyrillic lookup 3 subtable" dx=5 dy=0 dh=10 dv=0
Position2: "'cpsp' Capital Spacing lookup 2 subtable" dx=5 dy=0 dh=10 dv=0
Position2: "'cpsp' Capital Spacing lookup 1 subtable" dx=5 dy=0 dh=10 dv=0
EndChar

StartChar: V
Encoding: 86 86 55
Width: 583
GlyphClass: 2
Flags: MW
HStem: 0 19<308 308 308 323 293 308> 670 20G<26 50 50 50 566 590 590 590>
VStem: 26 564<690 690>
LayerCount: 2
Fore
SplineSet
323 0 m 1
 293 0 l 1
 26 690 l 1
 50 690 l 1
 308 19 l 1
 566 690 l 1
 590 690 l 1
 323 0 l 1
EndSplineSet
Validated: 1
Position2: "'cpsp' Capital Spacing in Latin lookup 7 subtable" dx=5 dy=0 dh=10 dv=0
Position2: "'cpsp' Capital Spacing in Latin lookup 6 subtable" dx=5 dy=0 dh=10 dv=0
Position2: "'cpsp' Capital Spacing in Latin lookup 5 subtable" dx=5 dy=0 dh=10 dv=0
Position2: "'cpsp' Capital Spacing in Latin lookup 4 subtable" dx=5 dy=0 dh=10 dv=0
Position2: "'cpsp' Capital Spacing in Cyrillic lookup 3 subtable" dx=5 dy=0 dh=10 dv=0
Position2: "'cpsp' Capital Spacing lookup 2 subtable" dx=5 dy=0 dh=10 dv=0
Position2: "'cpsp' Capital Spacing lookup 1 subtable" dx=5 dy=0 dh=10 dv=0
EndChar

StartChar: W
Encoding: 87 87 56
Width: 823
GlyphClass: 2
Flags: MW
HStem: 0 22<215 215 215 228 199 215> 656 24<427 427> 670 20G<26 49 49 49 804 826 826 826>
VStem: 26 800<690 690>
LayerCount: 2
Fore
SplineSet
826 690 m 1xb0
 640 0 l 1
 612 0 l 1
 427 656 l 1xd0
 228 0 l 1
 199 0 l 1
 26 690 l 1
 49 690 l 1xb0
 215 22 l 1
 412 680 l 1
 442 680 l 1xd0
 626 24 l 1
 804 690 l 1
 826 690 l 1xb0
EndSplineSet
Validated: 1
Position2: "'cpsp' Capital Spacing in Latin lookup 7 subtable" dx=5 dy=0 dh=10 dv=0
Position2: "'cpsp' Capital Spacing in Latin lookup 6 subtable" dx=5 dy=0 dh=10 dv=0
Position2: "'cpsp' Capital Spacing in Latin lookup 5 subtable" dx=5 dy=0 dh=10 dv=0
Position2: "'cpsp' Capital Spacing in Latin lookup 4 subtable" dx=5 dy=0 dh=10 dv=0
Position2: "'cpsp' Capital Spacing in Cyrillic lookup 3 subtable" dx=5 dy=0 dh=10 dv=0
Position2: "'cpsp' Capital Spacing lookup 2 subtable" dx=5 dy=0 dh=10 dv=0
Position2: "'cpsp' Capital Spacing lookup 1 subtable" dx=5 dy=0 dh=10 dv=0
EndChar

StartChar: X
Encoding: 88 88 57
Width: 572
GlyphClass: 2
Flags: MW
HStem: 0 21G<28 56 28 28 526 556 526 526> 670 20G<45 70 70 70 533 562 562 562>
VStem: 28 534
LayerCount: 2
Fore
SplineSet
304 345 m 1
 556 0 l 1
 526 0 l 1
 291 329 l 1
 56 0 l 1
 28 0 l 1
 276 344 l 1
 45 690 l 1
 70 690 l 1
 290 363 l 1
 533 690 l 1
 562 690 l 1
 304 345 l 1
EndSplineSet
Validated: 1
Position2: "'cpsp' Capital Spacing in Latin lookup 7 subtable" dx=5 dy=0 dh=10 dv=0
Position2: "'cpsp' Capital Spacing in Latin lookup 6 subtable" dx=5 dy=0 dh=10 dv=0
Position2: "'cpsp' Capital Spacing in Latin lookup 5 subtable" dx=5 dy=0 dh=10 dv=0
Position2: "'cpsp' Capital Spacing in Latin lookup 4 subtable" dx=5 dy=0 dh=10 dv=0
Position2: "'cpsp' Capital Spacing in Cyrillic lookup 3 subtable" dx=5 dy=0 dh=10 dv=0
Position2: "'cpsp' Capital Spacing lookup 2 subtable" dx=5 dy=0 dh=10 dv=0
Position2: "'cpsp' Capital Spacing lookup 1 subtable" dx=5 dy=0 dh=10 dv=0
EndChar

StartChar: Y
Encoding: 89 89 58
Width: 545
GlyphClass: 2
Flags: MW
HStem: 0 21G<268 290 268 268> 670 20G<23 49 49 49 509 536 536 536>
VStem: 268 22<0 282 0 282>
LayerCount: 2
Fore
SplineSet
290 282 m 1
 290 0 l 1
 268 0 l 1
 268 282 l 1
 23 690 l 1
 49 690 l 1
 280 305 l 1
 509 690 l 1
 536 690 l 1
 290 282 l 1
EndSplineSet
Validated: 1
Position2: "'cpsp' Capital Spacing in Latin lookup 7 subtable" dx=5 dy=0 dh=10 dv=0
Position2: "'cpsp' Capital Spacing in Latin lookup 6 subtable" dx=5 dy=0 dh=10 dv=0
Position2: "'cpsp' Capital Spacing in Latin lookup 5 subtable" dx=5 dy=0 dh=10 dv=0
Position2: "'cpsp' Capital Spacing in Latin lookup 4 subtable" dx=5 dy=0 dh=10 dv=0
Position2: "'cpsp' Capital Spacing in Cyrillic lookup 3 subtable" dx=5 dy=0 dh=10 dv=0
Position2: "'cpsp' Capital Spacing lookup 2 subtable" dx=5 dy=0 dh=10 dv=0
Position2: "'cpsp' Capital Spacing lookup 1 subtable" dx=5 dy=0 dh=10 dv=0
EndChar

StartChar: Z
Encoding: 90 90 59
Width: 537
GlyphClass: 2
Flags: MW
HStem: 0 21<64 512 64 512> 669 21<64 480 64 506>
VStem: 36 476<0 17 17 17>
LayerCount: 2
Fore
SplineSet
512 21 m 1
 512 0 l 1
 36 0 l 1
 36 17 l 1
 480 669 l 1
 64 669 l 1
 64 690 l 1
 506 690 l 1
 506 670 l 1
 64 21 l 1
 512 21 l 1
EndSplineSet
Validated: 1
Position2: "'cpsp' Capital Spacing in Latin lookup 7 subtable" dx=5 dy=0 dh=10 dv=0
Position2: "'cpsp' Capital Spacing in Latin lookup 6 subtable" dx=5 dy=0 dh=10 dv=0
Position2: "'cpsp' Capital Spacing in Latin lookup 5 subtable" dx=5 dy=0 dh=10 dv=0
Position2: "'cpsp' Capital Spacing in Latin lookup 4 subtable" dx=5 dy=0 dh=10 dv=0
Position2: "'cpsp' Capital Spacing in Cyrillic lookup 3 subtable" dx=5 dy=0 dh=10 dv=0
Position2: "'cpsp' Capital Spacing lookup 2 subtable" dx=5 dy=0 dh=10 dv=0
Position2: "'cpsp' Capital Spacing lookup 1 subtable" dx=5 dy=0 dh=10 dv=0
EndChar

StartChar: bracketleft
Encoding: 91 91 60
Width: 311
GlyphClass: 2
Flags: MW
HStem: -80 21<154 285 154 285> 759 21<154 285 154 154>
VStem: 132 22<-59 759 -59 780 -59 780>
LayerCount: 2
Fore
SplineSet
285 780 m 1
 285 759 l 1
 154 759 l 1
 154 -59 l 1
 285 -59 l 1
 285 -80 l 1
 132 -80 l 1
 132 780 l 1
 285 780 l 1
EndSplineSet
Validated: 1
EndChar

StartChar: backslash
Encoding: 92 92 61
Width: 263
GlyphClass: 2
Flags: MW
HStem: -30 750<-5 268 -5 246>
VStem: -5 273
LayerCount: 2
Fore
SplineSet
268 -30 m 1
 246 -30 l 1
 -5 720 l 1
 17 720 l 1
 268 -30 l 1
EndSplineSet
Validated: 1
EndChar

StartChar: bracketright
Encoding: 93 93 62
Width: 311
GlyphClass: 2
Flags: MW
HStem: -80 21<26 157 26 179 26 157> 759 21<26 157 26 179>
VStem: 157 22<-59 759 759 759>
LayerCount: 2
Fore
SplineSet
179 -80 m 1
 26 -80 l 1
 26 -59 l 1
 157 -59 l 1
 157 759 l 1
 26 759 l 1
 26 780 l 1
 179 780 l 1
 179 -80 l 1
EndSplineSet
Validated: 1
EndChar

StartChar: asciicircum
Encoding: 94 94 63
Width: 530
GlyphClass: 2
Flags: MW
HStem: 595 21<267 267>
VStem: 82 369<215 215>
LayerCount: 2
Fore
SplineSet
426 215 m 1
 267 595 l 1
 106 215 l 1
 82 215 l 1
 254 616 l 1
 281 616 l 1
 451 215 l 1
 426 215 l 1
EndSplineSet
Validated: 1
EndChar

StartChar: underscore
Encoding: 95 95 64
Width: 500
GlyphClass: 2
Flags: MW
HStem: -80 21<50 450 50 450>
VStem: 50 400<-80 -59 -80 -59>
LayerCount: 2
Fore
SplineSet
450 -80 m 1
 50 -80 l 1
 50 -59 l 1
 450 -59 l 1
 450 -80 l 1
EndSplineSet
Validated: 1
EndChar

StartChar: grave
Encoding: 96 96 65
Width: 300
GlyphClass: 2
Flags: MW
HStem: 580 110<74 162 74 143>
VStem: 74 88
LayerCount: 2
Fore
SplineSet
162 580 m 1
 143 580 l 1
 74 690 l 1
 102 690 l 1
 162 580 l 1
EndSplineSet
Validated: 1
EndChar

StartChar: a
Encoding: 97 97 66
Width: 494
GlyphClass: 2
Flags: MW
HStem: -14 21<164 244.5> 0 21G<409 409 409 432> 281 22<367 401> 519 21<217 297>
VStem: 47 24<91.5 182.5 91.5 188.5> 67 22<382 382> 401 22<209 281 281 281 303 330 330 332>
LayerCount: 2
Fore
SplineSet
409 0 m 1x76
 402 129 l 1
 379 76 l 1
 342 17 280 -14 209 -14 c 0
 109 -14 47 33 47 127 c 0xba
 47 250 203 303 367 303 c 2
 401 303 l 1
 401 330 l 2
 401 355 401 375 399 398 c 0
 392 477 340 519 254 519 c 0
 180 519 101 480 89 382 c 1
 67 382 l 1
 73 470 150 540 254 540 c 0
 357 540 414 489 421 401 c 0
 423 374 423 360 423 332 c 2
 423 170 l 2
 423 110 426 69 432 0 c 1
 409 0 l 1x76
212 7 m 0
 325 7 401 105 401 209 c 2
 401 281 l 1
 387 282 372 282 358 282 c 0
 216 282 71 237 71 128 c 0
 71 55 116 7 212 7 c 0
EndSplineSet
Validated: 1
EndChar

StartChar: b
Encoding: 98 98 67
Width: 544
GlyphClass: 2
Flags: MW
HStem: -14 21<241.5 338 234 338.5> 0 21G<71 93 71 71> 519 21<251 351.5> 715 20G<71 93 93 93>
VStem: 71 22<0 120 143 229 229 288 406 735> 490 24<187.5 332>
LayerCount: 2
Fore
SplineSet
287 540 m 0xbc
 424 540 514 427 514 267 c 0
 514 81 402 -14 275 -14 c 0
 208 -14 165 6 122 54 c 1xbc
 93 120 l 1
 93 0 l 1
 71 0 l 1x7c
 71 735 l 1
 93 735 l 1
 93 406 l 1
 121 466 l 1
 168 522 215 540 287 540 c 0xbc
275 7 m 0
 401 7 490 112 490 263 c 0
 490 401 418 519 285 519 c 0
 181 519 93 461 93 288 c 2
 93 229 l 2
 93 57 193 7 275 7 c 0
EndSplineSet
Validated: 1
EndChar

StartChar: c
Encoding: 99 99 68
Width: 517
GlyphClass: 2
Flags: MW
HStem: -14 20<212 310.5 212 317> 520 20<219.5 322.5>
VStem: 30 24<179 348>
LayerCount: 2
Fore
SplineSet
271 540 m 0
 385 540 466 468 481 363 c 1
 459 363 l 1
 442 458 376 520 269 520 c 0
 170 520 54 438 54 268 c 0
 54 90 159 6 265 6 c 0
 356 6 435 60 455 157 c 1
 477 157 l 1
 456 51 371 -14 263 -14 c 0
 134 -14 30 88 30 263 c 0
 30 433 139 540 271 540 c 0
EndSplineSet
Validated: 1
EndChar

StartChar: d
Encoding: 100 100 69
Width: 544
GlyphClass: 2
Flags: MW
HStem: -14 21<192.5 293> 0 21G<451 473 451 451> 519 21<206 302.5 205.5 310> 715 20G<451 473 473 473>
VStem: 30 24<194 338.5 194 352> 451 22<0 120 120 120 238 297 297 383 406 735 0 735>
LayerCount: 2
Fore
SplineSet
473 735 m 1xbc
 473 0 l 1
 451 0 l 1x7c
 451 120 l 1
 423 60 l 1
 376 4 329 -14 257 -14 c 0
 120 -14 30 99 30 259 c 0
 30 445 142 540 269 540 c 0
 336 540 379 520 422 472 c 1
 451 406 l 1
 451 735 l 1
 473 735 l 1xbc
259 7 m 0xbc
 363 7 451 65 451 238 c 2
 451 297 l 2
 451 469 351 519 269 519 c 0
 143 519 54 414 54 263 c 0
 54 125 126 7 259 7 c 0xbc
EndSplineSet
Validated: 1
EndChar

StartChar: e
Encoding: 101 101 70
Width: 521
GlyphClass: 2
Flags: MW
HStem: -14 21<209.5 299.5 209.5 306> 258 21<53 463 53 484 53 463> 519 21<215.5 307>
VStem: 30 23<258 258 258 279 258 348> 463 22<279 279>
LayerCount: 2
Fore
SplineSet
485 277 m 0
 485 273 485 269 484 258 c 1
 53 258 l 1
 57 76 161 7 258 7 c 0
 341 7 424 54 455 161 c 1
 477 161 l 1
 445 45 356 -14 256 -14 c 0
 134 -14 30 81 30 265 c 0
 30 431 134 540 264 540 c 0
 415 540 485 408 485 277 c 0
262 519 m 0
 169 519 57 444 53 279 c 1
 463 279 l 1
 459 461 352 519 262 519 c 0
EndSplineSet
Validated: 1
EndChar

StartChar: f
Encoding: 102 102 71
Width: 230
GlyphClass: 2
Flags: MW
HStem: 0 21G<82 104 82 82> 501 21<25 82 25 82 104 211> 733 16
VStem: 82 22<0 501 0 501 522 606>
LayerCount: 2
Fore
SplineSet
106 656 m 0
 104 634 104 621 104 606 c 2
 104 522 l 1
 211 522 l 1
 211 501 l 1
 104 501 l 1
 104 0 l 1
 82 0 l 1
 82 501 l 1
 25 501 l 1
 25 522 l 1
 82 522 l 1
 82 606 l 2
 82 621 82 638 84 659 c 0
 90 725 134 754 175 754 c 0
 195 754 204 753 222 749 c 1
 222 728 l 1
 208 731 196 733 184 733 c 0
 133 733 110 700 106 656 c 0
EndSplineSet
Validated: 1
EndChar

StartChar: g
Encoding: 103 103 72
Width: 544
GlyphClass: 2
Flags: MW
HStem: -220 21<214.5 320 214.5 323> -14 21<192.5 293> 510 20G<451 473 473 473> 519 21<206 302.5 205.5 310>
VStem: 30 24<194 338.5 194 352> 54 22 451 22<100 120 120 120 238 297 297 383 406 530>
LayerCount: 2
Fore
SplineSet
473 530 m 1xea
 473 140 l 2
 473 57 473 16 472 -18 c 0
 468 -137 390 -220 256 -220 c 0
 159 -220 71 -181 55 -62 c 2
 53 -47 l 1
 75 -47 l 1
 77 -62 l 2xd6
 90 -163 171 -199 258 -199 c 0
 382 -199 447 -121 450 -11 c 0
 451 24 451 51 451 100 c 2
 451 120 l 1
 423 60 l 1
 376 4 329 -14 257 -14 c 0
 120 -14 30 99 30 259 c 0
 30 445 142 540 269 540 c 0
 336 540 379 520 422 472 c 1xda
 451 406 l 1
 451 530 l 1
 473 530 l 1xea
259 7 m 0
 363 7 451 65 451 238 c 2
 451 297 l 2
 451 469 351 519 269 519 c 0
 143 519 54 414 54 263 c 0xda
 54 125 126 7 259 7 c 0
EndSplineSet
Validated: 1
EndChar

StartChar: h
Encoding: 104 104 73
Width: 530
GlyphClass: 2
Flags: MW
HStem: 0 21G<71 93 71 71 442 464 442 442> 519 21<246.5 329> 720 20G<71 93 93 93>
VStem: 71 22<0 312 406 740> 442 22<0 283 283 292 0 301.5>
LayerCount: 2
Fore
SplineSet
460 378 m 0
 463 351 464 335 464 292 c 2
 464 0 l 1
 442 0 l 1
 442 283 l 2
 442 320 441 343 438 370 c 0
 428 459 379 519 279 519 c 0
 183 519 93 452 93 312 c 2
 93 0 l 1
 71 0 l 1
 71 740 l 1
 93 740 l 1
 93 406 l 1
 114 458 l 1
 153 513 214 540 279 540 c 0
 385 540 449 481 460 378 c 0
EndSplineSet
Validated: 1
EndChar

StartChar: i
Encoding: 105 105 74
Width: 164
GlyphClass: 2
Flags: MW
HStem: 0 21G<71 93 71 71> 506 20G<71 93 93 93> 613 40<76.5 87.5>
VStem: 71 22<0 526>
LayerCount: 2
Fore
SplineSet
82 653 m 0
 93 653 102 644 102 633 c 0
 102 622 93 613 82 613 c 0
 71 613 62 622 62 633 c 0
 62 644 71 653 82 653 c 0
93 0 m 1
 71 0 l 1
 71 526 l 1
 93 526 l 1
 93 0 l 1
EndSplineSet
Validated: 1
EndChar

StartChar: j
Encoding: 106 106 75
Width: 156
GlyphClass: 2
Flags: MW
HStem: -210 20<-2.5 18.5 -5 24> 506 20G<64 86 86 86> 613 40<69.5 80.5>
VStem: 64 22<-83 -73 -73 526>
LayerCount: 2
Fore
SplineSet
75 653 m 0
 86 653 95 644 95 633 c 0
 95 622 86 613 75 613 c 0
 64 613 55 622 55 633 c 0
 55 644 64 653 75 653 c 0
86 526 m 1
 86 -73 l 2
 86 -93 86 -107 85 -125 c 0
 82 -184 45 -210 3 -210 c 0
 -8 -210 -19 -209 -32 -206 c 1
 -32 -187 l 1
 -21 -189 -10 -190 0 -190 c 0
 37 -190 61 -173 63 -123 c 0
 64 -109 64 -99 64 -84 c 2
 64 526 l 1
 86 526 l 1
EndSplineSet
Validated: 1
EndChar

StartChar: k
Encoding: 107 107 76
Width: 458
GlyphClass: 2
Flags: MW
HStem: 0 21G<71 93 71 71 404 404 404 437> 506 20G<403 436 436 436> 715 20G<71 93 93 93>
VStem: 71 22<0 215 241 735>
LayerCount: 2
Fore
SplineSet
138 256 m 1
 93 215 l 1
 93 0 l 1
 71 0 l 1
 71 735 l 1
 93 735 l 1
 93 241 l 1
 403 526 l 1
 436 526 l 1
 156 271 l 1
 437 0 l 1
 404 0 l 1
 138 256 l 1
EndSplineSet
Validated: 1
EndChar

StartChar: l
Encoding: 108 108 77
Width: 173
GlyphClass: 2
Flags: MW
HStem: -5 21 715 20G<68 90 90 90>
VStem: 68 22<120 735>
LayerCount: 2
Fore
SplineSet
90 735 m 1
 90 120 l 2
 90 85 90 65 91 51 c 0
 93 24 102 15 127 15 c 0
 133 15 139 15 147 16 c 1
 147 -3 l 1
 137 -5 128 -5 118 -5 c 0
 91 -5 71 6 69 46 c 0
 68 66 68 82 68 120 c 2
 68 735 l 1
 90 735 l 1
EndSplineSet
Validated: 1
EndChar

StartChar: m
Encoding: 109 109 78
Width: 809
GlyphClass: 2
Flags: MW
HStem: 0 21G<71 93 71 71 396 418 396 396 721 743 721 721> 506 20G<71 93 93 93> 520 20<228.5 298 553.5 623>
VStem: 71 22<0 302 414 526> 396 22<0 283 283 301.5> 721 22<0 283 283 292 0 301.5>
CounterMasks: 1 1c
LayerCount: 2
Fore
SplineSet
739 378 m 0xbc
 742 351 743 335 743 292 c 2
 743 0 l 1
 721 0 l 1
 721 283 l 2
 721 320 720 343 717 370 c 0
 707 459 666 520 580 520 c 0
 492 520 418 452 418 302 c 2
 418 0 l 1
 396 0 l 1
 396 283 l 2
 396 320 395 343 392 370 c 0
 382 459 341 520 255 520 c 0xbc
 167 520 93 452 93 302 c 2
 93 0 l 1
 71 0 l 1
 71 526 l 1
 93 526 l 1xdc
 93 414 l 1
 117 471 l 1
 153 518 201 540 256 540 c 0
 342 540 394 490 410 403 c 1
 442 471 l 1
 478 518 526 540 581 540 c 0
 675 540 728 481 739 378 c 0xbc
EndSplineSet
Validated: 1
EndChar

StartChar: n
Encoding: 110 110 79
Width: 530
GlyphClass: 2
Flags: MW
HStem: 0 21G<71 93 71 71 442 464 442 442> 506 20G<71 93 93 93> 519 21<246.5 329>
VStem: 71 22<0 312 406 526> 442 22<0 283 283 292 0 301.5>
LayerCount: 2
Fore
SplineSet
460 378 m 0xb8
 463 351 464 335 464 292 c 2
 464 0 l 1
 442 0 l 1
 442 283 l 2
 442 320 441 343 438 370 c 0
 428 459 379 519 279 519 c 0xb8
 183 519 93 452 93 312 c 2
 93 0 l 1
 71 0 l 1
 71 526 l 1
 93 526 l 1xd8
 93 406 l 1
 114 458 l 1
 153 513 214 540 279 540 c 0
 385 540 449 481 460 378 c 0xb8
EndSplineSet
Validated: 1
EndChar

StartChar: o
Encoding: 111 111 80
Width: 554
GlyphClass: 2
Flags: MW
HStem: -14 21<220 334 220 351> 519 21<220 334>
VStem: 30 24<179 345.5> 500 24<179 345.5 179 350.5>
LayerCount: 2
Fore
SplineSet
277 540 m 0
 425 540 524 429 524 262 c 0
 524 96 425 -14 277 -14 c 0
 129 -14 30 96 30 262 c 0
 30 429 129 540 277 540 c 0
277 7 m 0
 391 7 500 86 500 262 c 0
 500 439 391 519 277 519 c 0
 163 519 54 439 54 262 c 0
 54 86 163 7 277 7 c 0
EndSplineSet
Validated: 1
EndChar

StartChar: p
Encoding: 112 112 81
Width: 544
GlyphClass: 2
Flags: MW
HStem: -14 21<241.5 338 234 338.5> 514 20G<71 93 93 93> 519 21<251 351.5>
VStem: 71 22<-196 120 143 229 229 288 406 534> 490 24<187.5 332>
LayerCount: 2
Fore
SplineSet
287 540 m 0xb8
 424 540 514 427 514 267 c 0
 514 81 402 -14 275 -14 c 0
 208 -14 165 6 122 54 c 1
 93 120 l 1
 93 -196 l 1
 71 -196 l 1
 71 534 l 1
 93 534 l 1xd8
 93 406 l 1
 121 466 l 1
 168 522 215 540 287 540 c 0xb8
275 7 m 0
 401 7 490 112 490 263 c 0
 490 401 418 519 285 519 c 0
 181 519 93 461 93 288 c 2
 93 229 l 2
 93 57 193 7 275 7 c 0
EndSplineSet
Validated: 1
EndChar

StartChar: q
Encoding: 113 113 82
Width: 545
GlyphClass: 2
Flags: MW
HStem: -14 21<192.5 293> 514 20G<452 474 474 474> 519 21<206 302.5 205.5 310>
VStem: 30 24<194 338.5 194 352> 452 22<-196 122 122 122 227 303 303 303 404 534 -196 534>
LayerCount: 2
Fore
SplineSet
474 534 m 1xd8
 474 -196 l 1
 452 -196 l 1
 452 122 l 1
 423 60 l 1
 376 4 329 -14 257 -14 c 0
 120 -14 30 99 30 259 c 0
 30 445 142 540 269 540 c 0
 336 540 379 520 422 472 c 1xb8
 452 404 l 1
 452 534 l 1
 474 534 l 1xd8
452 227 m 1
 452 303 l 1
 451 297 l 1
 451 469 351 519 269 519 c 0
 143 519 54 414 54 263 c 0
 54 125 126 7 259 7 c 0
 363 7 451 65 451 238 c 1
 452 227 l 1
EndSplineSet
Validated: 1
EndChar

StartChar: r
Encoding: 114 114 83
Width: 257
GlyphClass: 2
Flags: MW
HStem: 0 21G<71 93 71 71> 506 20G<71 93 93 93> 519 21<208.5 256>
VStem: 71 22<0 288 413 526>
LayerCount: 2
Fore
SplineSet
233 540 m 0xb0
 241 540 249 540 256 539 c 1
 256 519 l 1xb0
 251 519 246 520 241 520 c 0
 153 520 93 453 93 288 c 2
 93 0 l 1
 71 0 l 1
 71 526 l 1
 93 526 l 1xd0
 93 413 l 1
 114 473 l 1
 142 515 184 540 233 540 c 0xb0
EndSplineSet
Validated: 1
EndChar

StartChar: s
Encoding: 115 115 84
Width: 435
GlyphClass: 2
Flags: MW
HStem: -14 21<179 264.5 179 272.5> 519 21<177.5 257>
VStem: 26 22<156 156> 51 23<362 437.5 362 438.5> 375 23<85 159.5>
LayerCount: 2
Fore
SplineSet
215 540 m 0
 324 540 379 470 393 383 c 1
 371 383 l 1
 349 475 300 519 214 519 c 0
 141 519 74 476 74 399 c 0
 74 325 133 296 217 277 c 0
 338 250 398 212 398 124 c 0
 398 40 324 -14 221 -14 c 0
 123 -14 39 36 26 156 c 1
 48 156 l 1
 65 45 135 7 223 7 c 0
 306 7 375 47 375 123 c 0
 375 196 333 227 207 256 c 0
 124 275 51 309 51 398 c 0
 51 479 119 540 215 540 c 0
EndSplineSet
Validated: 1
EndChar

StartChar: t
Encoding: 116 116 85
Width: 236
GlyphClass: 2
Flags: MW
HStem: -7 18<156 177.5> 504 18<28 91 28 91 113 216>
VStem: 91 22<132 504 522 630>
LayerCount: 2
Fore
SplineSet
114 71 m 0
 117 29 133 11 179 11 c 0
 190 11 204 12 219 14 c 1
 219 -4 l 1
 206 -6 186 -7 169 -7 c 0
 122 -7 97 15 93 61 c 0
 91 85 91 102 91 132 c 2
 91 504 l 5
 28 504 l 5
 28 522 l 5
 91 522 l 5
 91 630 l 1
 113 630 l 1
 113 522 l 5
 216 522 l 5
 216 504 l 5
 113 504 l 5
 113 128 l 2
 113 100 113 85 114 71 c 0
EndSplineSet
Validated: 1
EndChar

StartChar: u
Encoding: 117 117 86
Width: 526
GlyphClass: 2
Flags: MW
HStem: -14 21<197 279.5> 0 21G<433 455 433 433> 506 20G<62 84 84 84 433 455 455 455>
VStem: 62 22<234 243 243 526> 433 22<0 120 120 120 214 526 0 526>
LayerCount: 2
Fore
SplineSet
455 526 m 1xb8
 455 0 l 1
 433 0 l 1x78
 433 120 l 1
 412 68 l 1
 373 13 312 -14 247 -14 c 0
 141 -14 77 45 66 148 c 0
 63 175 62 191 62 234 c 2
 62 526 l 1
 84 526 l 1
 84 243 l 2
 84 206 85 183 88 156 c 0
 98 67 147 7 247 7 c 0
 343 7 433 74 433 214 c 2
 433 526 l 1
 455 526 l 1xb8
EndSplineSet
Validated: 1
EndChar

StartChar: v
Encoding: 118 118 87
Width: 468
GlyphClass: 2
Flags: MW
HStem: 0 19<237 237 237 252 221 237> 506 20G<13 38 38 38 435 460 460 460>
VStem: 13 447<526 526>
LayerCount: 2
Fore
SplineSet
460 526 m 1
 252 0 l 1
 221 0 l 1
 13 526 l 1
 38 526 l 1
 237 19 l 1
 435 526 l 1
 460 526 l 1
EndSplineSet
Validated: 1
EndChar

StartChar: w
Encoding: 119 119 88
Width: 716
GlyphClass: 2
Flags: MW
HStem: 0 22<197 197 197 214 180 197> 499 25<364 364>
VStem: 13 695<526 526>
LayerCount: 2
Fore
SplineSet
708 526 m 1
 542 0 l 1
 514 0 l 1
 364 499 l 1
 214 0 l 1
 180 0 l 1
 13 526 l 1
 38 526 l 1
 197 22 l 1
 348 524 l 1
 379 524 l 1
 530 25 l 1
 684 526 l 1
 708 526 l 1
EndSplineSet
Validated: 1
EndChar

StartChar: x
Encoding: 120 120 89
Width: 417
GlyphClass: 2
Flags: MW
HStem: 0 21G<3 30 3 3 376 404 376 376> 506 20G<11 37 37 37 377 404 404 404>
VStem: 3 401<0 0>
LayerCount: 2
Fore
SplineSet
218 264 m 1
 404 0 l 1
 376 0 l 1
 205 249 l 1
 30 0 l 1
 3 0 l 1
 190 264 l 1
 11 526 l 1
 37 526 l 1
 205 280 l 1
 377 526 l 1
 404 526 l 1
 218 264 l 1
EndSplineSet
Validated: 1
EndChar

StartChar: y
Encoding: 121 121 90
Width: 457
GlyphClass: 2
Flags: MW
HStem: -210 20<72.5 99 72.5 104> 506 20G<13 38 38 38 424 449 449 449>
VStem: 13 436<526 526>
LayerCount: 2
Fore
SplineSet
449 526 m 1
 246 0 l 2
 175 -185 133 -210 75 -210 c 0
 61 -210 51 -209 40 -206 c 1
 40 -186 l 1
 53 -189 66 -190 79 -190 c 0
 119 -190 157 -162 202 -52 c 2
 219 -10 l 1
 13 526 l 1
 38 526 l 1
 231 18 l 1
 424 526 l 1
 449 526 l 1
EndSplineSet
Validated: 1
EndChar

StartChar: z
Encoding: 122 122 91
Width: 444
GlyphClass: 2
Flags: MW
HStem: 0 19<41 422 41 422> 497 21<40 390 40 419>
VStem: 13 409<0 18 18 18>
LayerCount: 2
Fore
SplineSet
422 19 m 1
 422 0 l 1
 13 0 l 1
 13 18 l 1
 390 497 l 1
 40 497 l 1
 40 518 l 1
 419 518 l 1
 419 498 l 1
 41 19 l 1
 422 19 l 1
EndSplineSet
Validated: 1
EndChar

StartChar: braceleft
Encoding: 123 123 92
Width: 296
GlyphClass: 2
Flags: MW
HStem: -80 21<266 267 267 284> 759 21<235 284 267 284 267 284>
VStem: 78 29 138 22<-4 41.5 -4 41.5 658.5 704> 159 22<234 264 234 267 435.5 466>
LayerCount: 2
Fore
SplineSet
284 759 m 1xd0
 266 759 l 2
 204 759 160 738 160 670 c 0xd0
 160 647 163 629 170 575 c 0
 179 509 181 477 181 455 c 0
 181 416 166 365 107 351 c 1
 166 336 181 283 181 245 c 0xe8
 181 223 179 191 170 125 c 0
 163 71 160 53 160 30 c 0
 160 -38 204 -59 266 -59 c 2
 284 -59 l 1
 284 -80 l 1
 267 -80 l 2
 192 -80 138 -52 138 31 c 0xd0
 138 52 140 74 149 135 c 0
 157 193 159 221 159 245 c 0
 159 289 138 333 78 339 c 1
 78 361 l 1
 138 367 159 411 159 455 c 0xe8
 159 479 157 507 149 565 c 0
 140 626 138 648 138 669 c 0
 138 752 192 780 267 780 c 2
 284 780 l 1
 284 759 l 1xd0
EndSplineSet
Validated: 1
EndChar

StartChar: bar
Encoding: 124 124 93
Width: 250
GlyphClass: 2
Flags: MW
HStem: -200 1000<114 136 114 136>
VStem: 114 22<-200 800>
LayerCount: 2
Fore
SplineSet
136 -200 m 1
 114 -200 l 1
 114 800 l 1
 136 800 l 1
 136 -200 l 1
EndSplineSet
Validated: 1
EndChar

StartChar: braceright
Encoding: 125 125 94
Width: 296
GlyphClass: 2
Flags: MW
HStem: -80 21<12 29 12 30> 759 21<12 29 29 30 12 29>
VStem: 115 22<234 264.5 436 466> 136 22<-4 41.5 658.5 704> 189 29
LayerCount: 2
Fore
SplineSet
137 455 m 0xe0
 137 411 158 367 218 361 c 1
 218 339 l 1
 158 333 137 289 137 245 c 0xe8
 137 221 139 193 147 135 c 0
 156 74 158 52 158 31 c 0
 158 -52 104 -80 29 -80 c 2
 12 -80 l 1
 12 -59 l 1
 30 -59 l 2
 92 -59 136 -38 136 30 c 0xd0
 136 53 133 71 126 125 c 0
 117 191 115 223 115 245 c 0
 115 284 130 335 189 349 c 1
 130 364 115 417 115 455 c 0xe8
 115 477 117 509 126 575 c 0
 133 629 136 647 136 670 c 0
 136 738 92 759 30 759 c 2
 12 759 l 1
 12 780 l 1
 29 780 l 2
 104 780 158 752 158 669 c 0xd0
 158 648 156 626 147 565 c 0
 139 507 137 479 137 455 c 0xe0
EndSplineSet
Validated: 1
EndChar

StartChar: asciitilde
Encoding: 126 126 95
Width: 530
GlyphClass: 2
Flags: MW
HStem: 233 21<374 412 374 415> 325 21<118.5 156.5>
VStem: 56 21<229 260 229 270.5> 454 21<319 350>
LayerCount: 2
Fore
SplineSet
454 350 m 1
 475 350 l 1
 475 267 442 233 388 233 c 0
 351 233 331 240 259 280 c 0
 196 315 172 325 141 325 c 0
 96 325 77 291 77 229 c 1
 56 229 l 1
 56 312 89 346 142 346 c 0
 180 346 201 338 272 299 c 0
 337 263 359 254 389 254 c 0
 435 254 454 288 454 350 c 1
EndSplineSet
Validated: 1
EndChar

StartChar: uni0401
Encoding: 161 1025 96
Width: 557
GlyphClass: 2
Flags: MW
HStem: 0 20<117 524 117 524> 335 20<117 494 117 494> 670 20<117 514 117 117> 764 40<259.5 270.5 339.5 350.5>
VStem: 96 22 265 80<764 764 804 804>
LayerCount: 2
Fore
SplineSet
265 804 m 0
 276 804 285 795 285 784 c 0
 285 773 276 764 265 764 c 0
 254 764 245 773 245 784 c 0
 245 795 254 804 265 804 c 0
345 804 m 0
 356 804 365 795 365 784 c 0
 365 773 356 764 345 764 c 0
 334 764 325 773 325 784 c 0
 325 795 334 804 345 804 c 0
524 20 m 1
 524 0 l 1
 95 0 l 1
 95 690 l 1
 514 690 l 1
 514 670 l 1
 117 670 l 1
 117 355 l 1
 494 355 l 1
 494 335 l 1
 117 335 l 1
 117 20 l 1
 524 20 l 1
EndSplineSet
Validated: 1
Colour: ffff
EndChar

StartChar: uni0403
Encoding: 163 1027 97
Width: 531
GlyphClass: 2
Flags: MW
HStem: 0 21G<96 118 96 96> 670 20<118 118 118 515> 764 110<296 384 296 384>
VStem: 96 22<0 670 0 690 0 690> 296 88
LayerCount: 2
Fore
SplineSet
315 764 m 1
 296 764 l 1
 356 874 l 1
 384 874 l 1
 315 764 l 1
118 670 m 1
 118 0 l 1
 96 0 l 1
 96 690 l 1
 515 690 l 1
 515 670 l 1
 118 670 l 1
EndSplineSet
Validated: 1
Colour: ffff
EndChar

StartChar: uni0404
Encoding: 164 1028 98
Width: 677
GlyphClass: 2
Flags: MW
HStem: -14 21<278 426 278 432.5> 683 21<290 428.5>
VStem: 51 24<230.5 343 228.5 364 228.5 450.5> 603 22
LayerCount: 2
Fore
SplineSet
430 343 m 1
 75 343 l 1
 75 114 204 7 352 7 c 0
 500 7 580 99 604 217 c 2
 606 227 l 1
 628 227 l 1
 626 217 l 2
 600 88 515 -14 350 -14 c 0
 179 -14 51 118 51 343 c 0
 51 558 187 704 364 704 c 0
 515 704 599 608 624 484 c 2
 626 474 l 1
 604 474 l 1
 602 484 l 2
 579 597 497 683 360 683 c 0
 220 683 83 572 75 364 c 1
 430 364 l 1
 430 343 l 1
EndSplineSet
Validated: 1
Colour: ffff
EndChar

StartChar: uni0405
Encoding: 165 1029 99
Width: 560
GlyphClass: 2
Flags: MW
HStem: -14 21<228 340.5 228 347.5> 683 21<239 331.5>
VStem: 39 22<180 180> 71 24<483.5 581.5> 483 24<118.5 214.5>
LayerCount: 2
Fore
SplineSet
284 704 m 0
 413 704 482 617 495 514 c 1
 473 514 l 1
 455 620 380 683 283 683 c 0
 195 683 95 632 95 533 c 0
 95 434 156 403 294 363 c 0
 437 322 507 275 507 167 c 0
 507 65 412 -14 283 -14 c 0
 162 -14 53 47 39 180 c 1
 61 180 l 1
 74 67 172 7 284 7 c 0
 397 7 483 72 483 165 c 0
 483 264 424 301 284 341 c 0
 136 383 71 425 71 531 c 0
 71 632 170 704 284 704 c 0
EndSplineSet
Validated: 1
Colour: ffff
EndChar

StartChar: uni0406
Encoding: 166 1030 100
Width: 189
GlyphClass: 2
Flags: MW
HStem: 0 21G<96 118 96 96> 670 20G<96 118 118 118>
VStem: 96 22<0 690>
LayerCount: 2
Fore
SplineSet
118 0 m 1
 96 0 l 1
 96 690 l 1
 118 690 l 1
 118 0 l 1
EndSplineSet
Validated: 1
Colour: ffff
EndChar

StartChar: uni0407
Encoding: 167 1031 101
Width: 189
GlyphClass: 2
Flags: MW
HStem: 0 21G<96 118 96 96> 670 20G<96 118 118 118> 764 40<61.5 72.5 141.5 152.5>
VStem: 67 80<764 764 804 804> 96 22<0 690>
LayerCount: 2
Fore
SplineSet
67 804 m 0x30
 78 804 87 795 87 784 c 0
 87 773 78 764 67 764 c 0
 56 764 47 773 47 784 c 0
 47 795 56 804 67 804 c 0x30
147 804 m 0
 158 804 167 795 167 784 c 0
 167 773 158 764 147 764 c 0
 136 764 127 773 127 784 c 0
 127 795 136 804 147 804 c 0
118 0 m 1xc8
 96 0 l 1
 96 690 l 1
 118 690 l 1
 118 0 l 1xc8
EndSplineSet
Validated: 1
Colour: ffff
EndChar

StartChar: uni0408
Encoding: 168 1032 102
Width: 495
GlyphClass: 2
Flags: MW
HStem: -14 21<194.5 290 194.5 302> 670 20G<407 429 429 429>
VStem: 47 22<224 224> 406 22
LayerCount: 2
Fore
SplineSet
429 690 m 1
 429 260 l 2
 429 229 429 201 427 169 c 0
 421 77 365 -14 239 -14 c 0
 123 -14 53 53 48 194 c 2
 47 224 l 1
 69 224 l 1
 70 194 l 2
 75 56 148 7 241 7 c 0
 339 7 396 68 405 172 c 0
 407 194 407 221 407 252 c 2
 407 690 l 1
 429 690 l 1
EndSplineSet
Validated: 1
Colour: ffff
EndChar

StartChar: uni040C
Encoding: 172 1036 103
Width: 553
GlyphClass: 2
Flags: MW
HStem: 0 21G<96 118 96 96 502 535 502 502> 670 20G<96 118 118 118 512 541 541 541> 764 110<309 397 309 397>
VStem: 96 22<0 299 324 690> 309 88
LayerCount: 2
Fore
SplineSet
328 764 m 1
 309 764 l 1
 369 874 l 1
 397 874 l 1
 328 764 l 1
180 355 m 1
 535 0 l 1
 502 0 l 1
 163 341 l 1
 118 299 l 1
 118 0 l 1
 96 0 l 1
 96 690 l 1
 118 690 l 1
 118 324 l 1
 512 690 l 1
 541 690 l 1
 180 355 l 1
EndSplineSet
Validated: 1
Colour: ffff
EndChar

StartChar: uni040E
Encoding: 174 1038 104
Width: 545
GlyphClass: 2
Flags: MW
HStem: 0 21G<198 220 198 198> 670 20G<23 49 49 49 489 516 516 516> 764 21<247 293 247 300.5> 864 20G<179 197 197 197 342 360 360 360>
VStem: 179 18<847.5 884> 342 18<847.5 884>
LayerCount: 2
Fore
SplineSet
342 884 m 1
 360 884 l 1
 360 811 331 764 270 764 c 0
 208 764 179 811 179 884 c 1
 197 884 l 1
 198 822 224 785 270 785 c 0
 316 785 341 822 342 884 c 1
290 182 m 1
 220 0 l 1
 198 0 l 1
 268 182 l 1
 23 690 l 1
 49 690 l 1
 280 205 l 1
 489 690 l 1
 516 690 l 1
 290 182 l 1
EndSplineSet
Validated: 1
Colour: ffff
EndChar

StartChar: uni0410
Encoding: 176 1040 105
Width: 616
GlyphClass: 2
Flags: MW
HStem: 0 21G<36 59 36 36 575 575 575 599> 269 21<170 462 170 471 162 462> 671 19<317 317>
VStem: 36 563<0 0>
LayerCount: 2
Fore
SplineSet
471 269 m 1
 162 269 l 1
 59 0 l 1
 36 0 l 1
 303 690 l 1
 332 690 l 1
 599 0 l 1
 575 0 l 1
 471 269 l 1
170 290 m 1
 462 290 l 1
 317 671 l 1
 170 290 l 1
EndSplineSet
Validated: 1
Colour: ffff
EndChar

StartChar: uni0411
Encoding: 177 1041 106
Width: 587
GlyphClass: 2
Flags: MW
HStem: 0 21<118 288> 351 21<118 284 284 296.5 118 298 118 284> 669 21<118 515 118 118>
VStem: 96 22<21 351 372 669> 524 24<128 226.5>
LayerCount: 2
Fore
SplineSet
548 183 m 0
 548 73 459 10 356 2 c 0
 331 0 312 0 288 0 c 2
 96 0 l 1
 96 690 l 1
 515 690 l 1
 515 669 l 1
 118 669 l 1
 118 372 l 1
 284 372 l 2
 309 372 356 370 356 370 c 1
 460 362 548 322 548 183 c 0
349 22 m 0
 434 28 524 73 524 182 c 0
 524 271 484 344 350 350 c 0
 327 351 314 351 298 351 c 2
 118 351 l 1
 118 21 l 1
 304 21 l 2
 320 21 336 21 349 22 c 0
EndSplineSet
Validated: 1
Colour: ffff
EndChar

StartChar: uni0412
Encoding: 178 1042 107
Width: 587
GlyphClass: 2
Flags: MW
HStem: 0 21<118 288> 351 21<118 284 284 292 118 298 118 284> 669 21<118 118 118 270>
VStem: 96 22<21 351 372 669> 498 24<481.5 573 481.5 574.5> 524 24<128 221.5>
LayerCount: 2
Fore
SplineSet
388 364 m 1
 496 348 548 277 548 183 c 0
 548 73 459 8 356 2 c 0
 331 0 312 0 288 0 c 2
 96 0 l 1
 96 690 l 1
 270 690 l 2
 297 690 313 690 348 688 c 0
 452 681 522 621 522 525 c 0
 522 438 471 377 388 364 c 1
118 669 m 1
 118 372 l 1
 284 372 l 2
 300 372 316 372 339 373 c 0
 411 377 498 411 498 520 c 0
 498 629 415 665 335 668 c 0
 312 669 296 669 270 669 c 2
 118 669 l 1
349 22 m 0
 434 28 524 73 524 182 c 0
 524 261 484 344 350 350 c 0
 327 351 314 351 298 351 c 2
 118 351 l 1
 118 21 l 1
 304 21 l 2
 320 21 336 21 349 22 c 0
EndSplineSet
Validated: 1
Colour: ffff
EndChar

StartChar: uni0413
Encoding: 179 1043 108
Width: 531
GlyphClass: 2
Flags: MW
HStem: 0 21G<96 118 96 96> 670 20<118 118 118 515>
VStem: 96 22<0 670 0 690 0 690>
LayerCount: 2
Fore
SplineSet
118 670 m 1
 118 0 l 1
 96 0 l 1
 96 690 l 1
 515 690 l 1
 515 670 l 1
 118 670 l 1
EndSplineSet
Validated: 1
Colour: ffff
EndChar

StartChar: uni0414
Encoding: 180 1044 109
Width: 655
GlyphClass: 2
Flags: MW
HStem: -120 141<36 58 36 36 602 624 602 602> 0 21<104 562 584 602> 669 21<188 562 188 188>
VStem: 36 22<-120 0 -120 21 -120 21> 166 22<409 669 541 669 541 690 541 690> 562 22<21 669 669 669> 602 22<-120 0 0 0>
LayerCount: 2
Fore
SplineSet
624 21 m 1xbe
 624 -120 l 1
 602 -120 l 1xbe
 602 0 l 1
 58 0 l 1x7e
 58 -120 l 1
 36 -120 l 1
 36 21 l 1
 78 20 l 1
 132 111 166 204 166 409 c 2
 166 540 l 1
 166 690 l 1
 584 690 l 1
 584 21 l 1
 624 21 l 1xbe
562 21 m 1x7e
 562 669 l 1
 188 669 l 1
 188 541 l 1
 185 410 l 1
 185 227 160 122 104 21 c 1
 562 21 l 1x7e
EndSplineSet
Validated: 1
Substitution2: "'locl' Localized Forms in Cyrillic lookup 1 subtable" uni0414.loclBGR
Substitution2: "'aalt' Access All Alternates lookup 0 subtable" uni0414.loclBGR
Colour: ffff
EndChar

StartChar: uni0415
Encoding: 181 1045 110
Width: 557
GlyphClass: 2
Flags: MW
HStem: 0 20<118 525 118 525> 335 20<118 495 118 495> 670 20<118 515 118 118>
VStem: 96 22<20 335 355 670>
CounterMasks: 1 e0
LayerCount: 2
Fore
SplineSet
525 20 m 1
 525 0 l 1
 96 0 l 1
 96 690 l 1
 515 690 l 1
 515 670 l 1
 118 670 l 1
 118 355 l 1
 495 355 l 1
 495 335 l 1
 118 335 l 1
 118 20 l 1
 525 20 l 1
EndSplineSet
Validated: 1
Colour: ffff
EndChar

StartChar: uni0416
Encoding: 182 1046 111
Width: 936
GlyphClass: 2
Flags: MW
HStem: 0 21G<40 73 40 40 457 479 457 457 863 896 863 863> 670 20G<34 63 63 63 457 479 479 479 873 902 902 902>
VStem: 457 22<0 299 0 299 324 690>
LayerCount: 2
Fore
SplineSet
541 355 m 1
 896 0 l 1
 863 0 l 1
 524 341 l 1
 479 299 l 1
 479 0 l 1
 457 0 l 1
 457 299 l 1
 412 341 l 1
 73 0 l 1
 40 0 l 1
 395 355 l 1
 34 690 l 1
 63 690 l 1
 457 324 l 1
 457 690 l 1
 479 690 l 1
 479 324 l 1
 873 690 l 1
 902 690 l 1
 541 355 l 1
EndSplineSet
Validated: 1
Colour: ffff
EndChar

StartChar: uni0417
Encoding: 183 1047 112
Width: 530
GlyphClass: 2
Flags: MW
HStem: -14 21<205 321 205 327.5> 343 21<239 256 239 256> 683 21<234.5 332.5>
VStem: 45 22<204 204> 76 22<499 499> 452 24 463 24
LayerCount: 2
Fore
SplineSet
328 357 m 1xf2
 426 342 488 287 488 183 c 0
 488 60 391 -14 264 -14 c 0
 144 -14 60 58 46 194 c 2
 45 204 l 1
 67 204 l 1
 68 194 l 2
 79 86 146 7 264 7 c 0
 378 7 464 70 464 183 c 0xf2
 464 274 401 343 256 343 c 2
 239 343 l 1
 239 364 l 1
 256 364 l 2
 348 364 453 425 453 529 c 0
 453 635 379 683 286 683 c 0
 183 683 110 619 99 509 c 2
 98 499 l 1
 76 499 l 1
 77 509 l 2
 89 633 176 704 287 704 c 0
 411 704 477 629 477 531 c 0xfc
 477 445 413 375 328 357 c 1xf2
EndSplineSet
Validated: 1
Colour: ffff
EndChar

StartChar: uni0418
Encoding: 184 1048 113
Width: 655
GlyphClass: 2
Flags: MW
HStem: 0 21G<96 118 96 96 562 584 562 562> 670 20G<96 118 118 118 562 584 584 584>
VStem: 96 22<36 690> 562 22<0 654 654 654 0 690>
LayerCount: 2
Fore
SplineSet
584 690 m 1
 584 0 l 1
 562 0 l 1
 562 654 l 1
 118 0 l 1
 96 0 l 1
 96 690 l 1
 118 690 l 1
 118 36 l 1
 562 690 l 1
 584 690 l 1
EndSplineSet
Validated: 1
Colour: ffff
EndChar

StartChar: uni0419
Encoding: 185 1049 114
Width: 655
GlyphClass: 2
Flags: MW
HStem: 0 21G<95 117 95 95 561 583 561 561> 670 20G<95 117 117 117 561 583 583 583> 764 21<317 363 317 370.5> 864 20G<249 267 267 267 412 430 430 430>
VStem: 96 22 249 18<847.5 884> 412 18<847.5 884> 561 22<0 654 654 654 0 690>
LayerCount: 2
Fore
SplineSet
412 884 m 1
 430 884 l 1
 430 811 401 764 340 764 c 0
 278 764 249 811 249 884 c 1
 267 884 l 1
 268 822 294 785 340 785 c 0
 386 785 411 822 412 884 c 1
583 690 m 1
 583 0 l 1
 561 0 l 1
 561 654 l 1
 117 0 l 1
 95 0 l 1
 95 690 l 1
 117 690 l 1
 117 36 l 1
 561 690 l 1
 583 690 l 1
EndSplineSet
Validated: 1
Colour: ffff
EndChar

StartChar: uni041A
Encoding: 186 1050 115
Width: 553
GlyphClass: 2
Flags: MW
HStem: 0 21G<96 118 96 96 502 535 502 502> 670 20G<96 118 118 118 512 541 541 541>
VStem: 96 22<0 299 324 690>
LayerCount: 2
Fore
SplineSet
180 355 m 1
 535 0 l 1
 502 0 l 1
 163 341 l 1
 118 299 l 1
 118 0 l 1
 96 0 l 1
 96 690 l 1
 118 690 l 1
 118 324 l 1
 512 690 l 1
 541 690 l 1
 180 355 l 1
EndSplineSet
Validated: 1
Colour: ffff
EndChar

StartChar: uni041B
Encoding: 187 1051 116
Width: 655
GlyphClass: 2
Flags: MW
HStem: -12 22<70 102 70 112>
VStem: 166 22<409 669 541 669 541 690 541 690>
LayerCount: 2
Fore
SplineSet
584 0 m 5
 562 0 l 5
 562 669 l 5
 188 669 l 5
 188 541 l 5
 185 410 l 5
 185 212 155 -12 69 -12 c 4
 47 -12 30 -4 19 0 c 5
 19 24 l 5
 44 13 62 10 78 10 c 4
 126 10 166 198 166 409 c 6
 166 540 l 5
 166 690 l 5
 584 690 l 5
 584 0 l 5
EndSplineSet
Validated: 1
Substitution2: "'locl' Localized Forms in Cyrillic lookup 1 subtable" uni041B.loclBGR
Substitution2: "'aalt' Access All Alternates lookup 0 subtable" uni041B.loclBGR
Colour: ffff
EndChar

StartChar: uni041C
Encoding: 188 1052 117
Width: 794
GlyphClass: 2
Flags: MW
HStem: 0 21<410 410 410 423 395 410> 673 17
VStem: 96 22<0 400 0 690> 702 21<0 400 400 537 537 560>
LayerCount: 2
Fore
SplineSet
723 690 m 1
 723 0 l 1
 702 0 l 1
 702 400 l 1
 702 537 l 2
 702 583 702 630 703 673 c 1
 669 586 629 487 592 400 c 2
 423 0 l 1
 395 0 l 1
 227 400 l 2
 191 487 150 586 116 673 c 1
 118 586 118 488 118 400 c 2
 118 0 l 1
 96 0 l 1
 96 690 l 1
 131 690 l 1
 410 21 l 1
 691 690 l 1
 723 690 l 1
EndSplineSet
Validated: 1
Colour: ffff
EndChar

StartChar: uni041D
Encoding: 189 1053 118
Width: 655
GlyphClass: 2
Flags: MW
HStem: 0 21G<96 118 96 96 562 584 562 562> 328 21<118 562 118 562> 670 20G<96 118 118 118 562 584 584 584>
VStem: 96 22<0 328 0 349 349 690> 562 22<0 328 328 328 349 690 0 690>
LayerCount: 2
Fore
SplineSet
584 690 m 1
 584 0 l 1
 562 0 l 1
 562 328 l 1
 118 328 l 1
 118 0 l 1
 96 0 l 1
 96 690 l 1
 118 690 l 1
 118 349 l 1
 562 349 l 1
 562 690 l 1
 584 690 l 1
EndSplineSet
Validated: 1
Colour: ffff
EndChar

StartChar: uni041E
Encoding: 190 1054 119
Width: 713
GlyphClass: 2
Flags: MW
HStem: -14 21<286 440 286 457> 683 21<286 440>
VStem: 51 24<242 448.5> 651 24<242 448.5 242 453.5>
LayerCount: 2
Fore
SplineSet
363 704 m 0
 551 704 675 552 675 345 c 0
 675 139 551 -14 363 -14 c 0
 175 -14 51 139 51 345 c 0
 51 552 175 704 363 704 c 0
363 7 m 0
 517 7 651 129 651 345 c 0
 651 562 517 683 363 683 c 0
 209 683 75 562 75 345 c 0
 75 129 209 7 363 7 c 0
EndSplineSet
Validated: 1
Colour: ffff
EndChar

StartChar: uni041F
Encoding: 191 1055 120
Width: 655
GlyphClass: 2
Flags: MW
HStem: 0 21G<96 118 96 96 562 584 562 562> 669 21<118 562 118 118>
VStem: 96 22<0 669 0 690 0 690> 562 22<0 669 669 669>
LayerCount: 2
Fore
SplineSet
584 690 m 1
 584 0 l 1
 562 0 l 1
 562 669 l 1
 118 669 l 1
 118 0 l 1
 96 0 l 1
 96 690 l 1
 584 690 l 1
EndSplineSet
Validated: 1
Colour: ffff
EndChar

StartChar: uni0420
Encoding: 192 1056 121
Width: 521
GlyphClass: 2
Flags: MW
HStem: 0 21G<96 118 96 96> 308 21<118 249 118 249> 669 21<118 249 118 118>
VStem: 96 22<0 308 0 329 329 669> 491 24<449.5 555.5>
LayerCount: 2
Fore
SplineSet
348 685 m 0
 441 673 515 621 515 504 c 0
 515 384 441 325 348 313 c 0
 316 309 284 308 249 308 c 2
 118 308 l 1
 118 0 l 1
 96 0 l 1
 96 690 l 1
 249 690 l 2
 284 690 316 689 348 685 c 0
344 334 m 0
 428 344 491 395 491 504 c 0
 491 607 428 654 344 664 c 0
 312 668 285 669 249 669 c 2
 118 669 l 1
 118 329 l 1
 249 329 l 2
 285 329 312 330 344 334 c 0
EndSplineSet
Validated: 1
Colour: ffff
EndChar

StartChar: uni0421
Encoding: 193 1057 122
Width: 677
GlyphClass: 2
Flags: MW
HStem: -14 21<278 426 278 432.5> 683 21<288 428.5>
VStem: 51 24<230.5 450.5> 603 22
LayerCount: 2
Fore
SplineSet
364 704 m 0
 515 704 599 608 624 484 c 2
 626 474 l 1
 604 474 l 1
 602 484 l 2
 579 597 497 683 360 683 c 0
 216 683 75 565 75 344 c 0
 75 115 204 7 352 7 c 0
 500 7 580 99 604 217 c 2
 606 227 l 1
 628 227 l 1
 626 217 l 2
 600 88 515 -14 350 -14 c 0
 179 -14 51 118 51 343 c 0
 51 558 187 704 364 704 c 0
EndSplineSet
Validated: 1
Colour: ffff
EndChar

StartChar: uni0422
Encoding: 194 1058 123
Width: 580
GlyphClass: 2
Flags: MW
HStem: 0 21G<296 318 296 296> 670 20<32 296 32 582 318 582 318 318>
VStem: 296 22<0 670 0 670>
LayerCount: 2
Fore
SplineSet
582 670 m 1
 318 670 l 1
 318 0 l 1
 296 0 l 1
 296 670 l 1
 32 670 l 1
 32 690 l 1
 582 690 l 1
 582 670 l 1
EndSplineSet
Validated: 1
Colour: ffff
EndChar

StartChar: uni0423
Encoding: 195 1059 124
Width: 545
GlyphClass: 2
Flags: MW
HStem: 0 21G<198 220 198 198> 670 20G<23 49 49 49 489 516 516 516>
LayerCount: 2
Fore
SplineSet
290 182 m 1
 220 0 l 1
 198 0 l 1
 268 182 l 1
 23 690 l 1
 49 690 l 1
 280 205 l 1
 489 690 l 1
 516 690 l 1
 290 182 l 1
EndSplineSet
Validated: 1
Colour: ffff
EndChar

StartChar: uni0424
Encoding: 196 1060 125
Width: 713
GlyphClass: 2
Flags: MW
HStem: -14 21 0 21G<352 374 352 352> 670 20G<352 374 374 374> 683 21
VStem: 51 24<244 446.5> 96 22 651 24<244 446.5 244 451>
LayerCount: 2
Fore
SplineSet
374 0 m 1x5e
 352 0 l 1x5e
 352 66 l 1
 170 69 51 143 51 345 c 0
 51 548 170 621 352 624 c 1
 352 690 l 1
 374 690 l 1xae
 374 624 l 1
 556 621 675 548 675 345 c 0
 675 143 556 69 374 66 c 1
 374 0 l 1x5e
651 345 m 0
 651 557 523 601 374 603 c 1
 374 87 l 1
 523 89 651 134 651 345 c 0
75 345 m 0
 75 134 202 89 352 87 c 1
 352 603 l 1
 202 601 75 557 75 345 c 0
EndSplineSet
Validated: 1
Colour: ffff
EndChar

StartChar: uni0425
Encoding: 197 1061 126
Width: 572
GlyphClass: 2
Flags: MW
HStem: 0 21G<28 56 28 28 526 556 526 526> 670 20G<45 70 70 70 533 562 562 562>
VStem: 28 534
LayerCount: 2
Fore
SplineSet
304 345 m 1
 556 0 l 1
 526 0 l 1
 291 329 l 1
 56 0 l 1
 28 0 l 1
 276 344 l 1
 45 690 l 1
 70 690 l 1
 290 363 l 1
 533 690 l 1
 562 690 l 1
 304 345 l 1
EndSplineSet
Validated: 1
Colour: ffff
EndChar

StartChar: uni0426
Encoding: 198 1062 127
Width: 655
GlyphClass: 2
Flags: MW
HStem: 0 21<118 562 584 603> 670 20G<96 118 118 118 562 584 584 584>
VStem: 96 22<21 690 21 690 21 690> 562 22<21 690 21 690> 603 22<-120 0 0 0>
LayerCount: 2
Fore
SplineSet
625 21 m 1
 625 -120 l 1
 603 -120 l 1
 603 0 l 1
 96 0 l 1
 96 690 l 1
 118 690 l 1
 118 21 l 1
 562 21 l 1
 562 690 l 1
 584 690 l 1
 584 21 l 1
 625 21 l 1
EndSplineSet
Validated: 1
Colour: ffff
EndChar

StartChar: uni0427
Encoding: 199 1063 128
Width: 600
GlyphClass: 2
Flags: MW
HStem: 0 21G<512 534 512 512> 236 21<246.5 373> 670 20G<90 112 112 112 512 534 534 534>
VStem: 90 22<483 690> 512 22<0 317 317 317 359 690>
LayerCount: 2
Fore
SplineSet
534 0 m 1
 512 0 l 1
 512 317 l 1
 491 280 434 236 312 236 c 0
 174 236 100 310 93 416 c 0
 91 447 90 468 90 483 c 2
 90 690 l 1
 112 690 l 1
 112 479 l 2
 112 456 113 438 115 417 c 0
 123 330 181 257 312 257 c 0
 456 257 494 324 512 359 c 1
 512 690 l 1
 534 690 l 1
 534 0 l 1
EndSplineSet
Validated: 1
Colour: ffff
EndChar

StartChar: uni0428
Encoding: 200 1064 129
Width: 815
GlyphClass: 2
Flags: MW
HStem: 0 21<118 412 434 728> 670 20G<96 118 118 118 412 434 434 434 728 750 750 750>
VStem: 96 22<21 690 21 690 21 690> 412 22<21 690 21 690> 728 22<21 690 0 690>
CounterMasks: 1 38
LayerCount: 2
Fore
SplineSet
750 690 m 1
 750 0 l 1
 96 0 l 1
 96 690 l 1
 118 690 l 1
 118 21 l 1
 412 21 l 1
 412 690 l 1
 434 690 l 1
 434 21 l 1
 728 21 l 1
 728 690 l 1
 750 690 l 1
EndSplineSet
Validated: 1
Colour: ffff
EndChar

StartChar: uni0429
Encoding: 201 1065 130
Width: 815
GlyphClass: 2
Flags: MW
HStem: 0 21<118 412 434 728 750 773> 670 20G<96 118 118 118 412 434 434 434 728 750 750 750>
VStem: 96 22<21 690 21 690 21 690> 412 22<21 690 21 690> 728 22<21 690 21 690> 773 22<-120 0 0 0>
LayerCount: 2
Fore
SplineSet
795 21 m 1
 795 -120 l 1
 773 -120 l 1
 773 0 l 1
 96 0 l 1
 96 690 l 1
 118 690 l 1
 118 21 l 1
 412 21 l 1
 412 690 l 1
 434 690 l 1
 434 21 l 1
 728 21 l 1
 728 690 l 1
 750 690 l 1
 750 21 l 1
 795 21 l 1
EndSplineSet
Validated: 1
Colour: ffff
EndChar

StartChar: uni042A
Encoding: 202 1066 131
Width: 693
GlyphClass: 2
Flags: MW
HStem: 0 21<198 368> 351 21<198 364 364 376.5 198 378 198 364> 670 20G<20 198 198 198>
VStem: 96 22 524 24
LayerCount: 2
Fore
SplineSet
628 183 m 0
 628 73 539 10 436 2 c 0
 411 0 392 0 368 0 c 2
 176 0 l 1
 176 669 l 1
 20 669 l 1
 20 690 l 1
 198 690 l 1
 198 372 l 1
 364 372 l 2
 389 372 436 370 436 370 c 1
 540 362 628 322 628 183 c 0
429 22 m 0
 514 28 604 73 604 182 c 0
 604 271 564 344 430 350 c 0
 407 351 394 351 378 351 c 2
 198 351 l 1
 198 21 l 1
 384 21 l 2
 400 21 416 21 429 22 c 0
EndSplineSet
Validated: 1
Colour: ffff
EndChar

StartChar: uni042B
Encoding: 203 1067 132
Width: 713
GlyphClass: 2
Flags: MW
HStem: 0 21G<118 288> 351 21<118 284 284 296.5 118 298 118 284> 670 20G<96 118 118 118 626 648 648 648>
VStem: 96 22<21 351 372 690> 524 24<128 226.5> 626 22<0 690>
LayerCount: 2
Fore
SplineSet
648 0 m 1
 626 0 l 1
 626 690 l 1
 648 690 l 1
 648 0 l 1
548 183 m 0
 548 73 459 10 356 2 c 0
 331 0 312 0 288 0 c 2
 96 0 l 1
 96 690 l 1
 118 690 l 1
 118 372 l 1
 284 372 l 2
 309 372 356 370 356 370 c 1
 460 362 548 322 548 183 c 0
349 22 m 0
 434 28 524 73 524 182 c 0
 524 271 484 344 350 350 c 0
 327 351 314 351 298 351 c 2
 118 351 l 1
 118 21 l 1
 304 21 l 2
 320 21 336 21 349 22 c 0
EndSplineSet
Validated: 1
Colour: ffff
EndChar

StartChar: uni042C
Encoding: 204 1068 133
Width: 587
GlyphClass: 2
Flags: MW
HStem: 0 21<118 288> 351 21<118 284 284 296.5 118 298 118 284> 670 20G<96 118 118 118>
VStem: 96 22<21 351 372 690> 524 24<128 226.5>
LayerCount: 2
Fore
SplineSet
548 183 m 4
 548 73 459 10 356 2 c 4
 331 0 312 0 288 0 c 6
 96 0 l 5
 96 690 l 5
 118 690 l 5
 118 372 l 5
 284 372 l 6
 309 372 356 370 356 370 c 5
 460 362 548 322 548 183 c 4
349 22 m 4
 434 28 524 73 524 182 c 4
 524 271 484 344 350 350 c 4
 327 351 314 351 298 351 c 6
 118 351 l 5
 118 21 l 5
 304 21 l 6
 320 21 336 21 349 22 c 4
EndSplineSet
Validated: 1
Colour: ffff
EndChar

StartChar: uni042D
Encoding: 205 1069 134
Width: 677
GlyphClass: 2
Flags: MW
HStem: -14 21<273 421 273 434.5> 683 21<270.5 409>
VStem: 51 24<217 227> 603 22
LayerCount: 2
Fore
SplineSet
604 343 m 1
 249 343 l 1
 249 364 l 1
 604 364 l 1
 596 572 479 683 339 683 c 0
 202 683 100 597 77 484 c 2
 75 474 l 1
 53 474 l 1
 55 484 l 2
 80 608 184 704 335 704 c 0
 512 704 628 558 628 343 c 0
 628 118 520 -14 349 -14 c 0
 184 -14 79 88 53 217 c 2
 51 227 l 1
 73 227 l 1
 75 217 l 2
 99 99 199 7 347 7 c 0
 495 7 604 114 604 343 c 1
EndSplineSet
Validated: 1
Colour: ffff
EndChar

StartChar: uni042E
Encoding: 206 1070 135
Width: 871
GlyphClass: 2
Flags: HMW
HStem: -14 21<397 551 397 568> 0 21G<96 118 96 96> 328 21<118 162 118 162> 670 20G<96 118 118 118> 683 21<397 551>
VStem: 96 22<0 328 0 349 349 690> 162 24<328 328 349 349> 762 24<242 448.5 242 453.5>
LayerCount: 2
Fore
SplineSet
494 704 m 0xaf
 682 704 806 552 806 345 c 0
 806 139 682 -14 494 -14 c 0xaf
 311 -14 188 130 182 328 c 1
 118 328 l 1
 118 0 l 1
 96 0 l 1
 96 690 l 1
 118 690 l 1x77
 118 349 l 1
 182 349 l 1
 183 554 307 704 494 704 c 0xaf
494 7 m 0
 648 7 782 129 782 345 c 0
 782 562 648 683 494 683 c 0
 340 683 206 562 206 345 c 0
 206 129 340 7 494 7 c 0
EndSplineSet
Validated: 524289
Colour: ffff
EndChar

StartChar: uni042F
Encoding: 207 1071 136
Width: 548
GlyphClass: 2
Flags: MW
HStem: 0 21G<40 66 40 40 461 483 461 461> 338 23 669 21<298 483 316 461>
VStem: 50 24<472 559.5 472 565.5> 461 22<0 338 338 338 359 669 669 669>
LayerCount: 2
Fore
SplineSet
86 189 m 0
 95 269 130 330 194 348 c 1
 104 364 50 428 50 516 c 0
 50 615 110 672 217 685 c 0
 249 689 281 690 316 690 c 2
 483 690 l 1
 483 0 l 1
 461 0 l 1
 461 338 l 1
 300 338 l 2
 284 338 259 338 237 337 c 0
 153 333 118 261 109 184 c 0
 97 84 81 44 66 0 c 1
 40 0 l 1
 59 43 74 86 86 189 c 0
300 359 m 2
 461 359 l 1
 461 669 l 1
 316 669 l 2
 280 669 253 668 221 664 c 0
 127 652 74 604 74 515 c 0
 74 429 131 368 225 361 c 0
 257 359 274 359 300 359 c 2
EndSplineSet
Validated: 1
Colour: ffff
EndChar

StartChar: uni0430
Encoding: 208 1072 137
Width: 494
GlyphClass: 2
Flags: MW
HStem: -14 21<164 244.5> 0 21G<409 409 409 432> 281 22<367 401> 519 21<217 297>
VStem: 47 24<91.5 182.5 91.5 188.5> 67 22<382 382> 401 22<209 281 281 281 303 330 330 332>
LayerCount: 2
Fore
SplineSet
409 0 m 1x76
 402 129 l 1
 379 76 l 1
 342 17 280 -14 209 -14 c 0
 109 -14 47 33 47 127 c 0xba
 47 250 203 303 367 303 c 2
 401 303 l 1
 401 330 l 2
 401 355 401 375 399 398 c 0
 392 477 340 519 254 519 c 0
 180 519 101 480 89 382 c 1
 67 382 l 1
 73 470 150 540 254 540 c 0
 357 540 414 489 421 401 c 0
 423 374 423 360 423 332 c 2
 423 170 l 2
 423 110 426 69 432 0 c 1
 409 0 l 1x76
212 7 m 0
 325 7 401 105 401 209 c 2
 401 281 l 1
 387 282 372 282 358 282 c 0
 216 282 71 237 71 128 c 0
 71 55 116 7 212 7 c 0
EndSplineSet
Validated: 1
Colour: ffff
EndChar

StartChar: uni0431
Encoding: 209 1073 138
Width: 544
GlyphClass: 2
Flags: MW
HStem: -14 21<234 340.5 234 343.5> 0 21G 519 21 715 20G
VStem: 71 22<218 229 229 248 362 408 408 428> 490 24<167.5 322>
LayerCount: 2
Fore
SplineSet
408 732 m 1x7c
 408 707 l 1
 378 687 318 666 283 655 c 0
 247 644 93 590 93 428 c 2
 93 362 l 1
 113 401 l 1
 165 484 245 500 287 500 c 0
 424 500 514 427 514 247 c 0
 514 61 412 -14 275 -14 c 0xbc
 129 -14 71 101 71 218 c 2
 71 408 l 2
 71 567 165 637 277 673 c 0
 311 684 368 702 408 732 c 1x7c
275 7 m 0
 406 7 490 92 490 243 c 0
 490 401 418 479 285 479 c 0
 211 479 93 421 93 248 c 2
 93 229 l 2
 93 57 193 7 275 7 c 0
EndSplineSet
Validated: 1
Colour: ffff
EndChar

StartChar: uni0432
Encoding: 210 1074 139
Width: 523
GlyphClass: 2
Flags: MW
HStem: 0 22<92 269 92 269> 259 21<92 269 92 340> 506 20G<70 269 269 336.5>
VStem: 70 22<22 22 22 259 280 508> 419 22<360.5 423.5> 441 22<100 177>
LayerCount: 2
Fore
SplineSet
441 390 m 0xf4
 441 329 419 294 365 271 c 1
 429 261 463 217 463 137 c 0
 463 40 406 0 269 0 c 2
 70 0 l 1
 70 526 l 1
 269 526 l 2
 404 526 441 476 441 390 c 0xf4
92 22 m 1
 269 22 l 2
 400 22 441 67 441 133 c 0
 441 221 402 259 269 259 c 2
 92 259 l 1
 92 22 l 1
92 280 m 1
 340 280 l 1
 386 299 419 334 419 387 c 0xf8
 419 460 389 508 270 508 c 2
 92 508 l 1
 92 280 l 1
EndSplineSet
Validated: 1
Substitution2: "'locl' Localized Forms in Cyrillic lookup 1 subtable" uni0432.loclBGR
Substitution2: "'aalt' Access All Alternates lookup 0 subtable" uni0432.loclBGR
Colour: ffff
EndChar

StartChar: uni0433
Encoding: 211 1075 140
Width: 478
GlyphClass: 2
Flags: MW
HStem: 0 21G<71 93 71 71> 506 20<93 442 93 93>
VStem: 71 22<0 506 0 526 0 526>
LayerCount: 2
Fore
SplineSet
442 526 m 1
 442 506 l 1
 93 506 l 1
 93 0 l 1
 71 0 l 1
 71 526 l 1
 442 526 l 1
EndSplineSet
Validated: 1
Substitution2: "'locl' Localized Forms in Cyrillic lookup 1 subtable" uni0433.loclBGR
Substitution2: "'aalt' Access All Alternates lookup 0 subtable" uni0433.loclBGR
Colour: ffff
EndChar

StartChar: uni0434
Encoding: 212 1076 141
Width: 544
GlyphClass: 2
Flags: MW
HStem: -120 21G<16 38 16 16 477 499 477 477> 1 20<38 43 71 435 457 477 38 38> 506 20<176 435 176 176>
VStem: 16 22<-120 1 -120 21 -120 21> 154 22<336 351 351 506> 435 22<21 506 506 506> 477 22<-120 1 1 1>
LayerCount: 2
Fore
SplineSet
16 21 m 1
 43 21 l 1
 123 112 154 212 154 336 c 2
 154 526 l 1
 457 526 l 1
 457 21 l 1
 499 21 l 1
 499 -120 l 1
 477 -120 l 1
 477 1 l 1
 38 1 l 1
 38 -120 l 1
 16 -120 l 1
 16 21 l 1
176 351 m 2
 176 188 145 114 71 21 c 1
 435 21 l 1
 435 506 l 1
 176 506 l 1
 176 351 l 2
EndSplineSet
Validated: 1
Substitution2: "'locl' Localized Forms in Cyrillic lookup 1 subtable" uni0434.loclBGR
Substitution2: "'aalt' Access All Alternates lookup 0 subtable" uni0434.loclBGR
Colour: ffff
EndChar

StartChar: uni0435
Encoding: 213 1077 142
Width: 521
GlyphClass: 2
Flags: MW
HStem: -14 21<209.5 299.5 209.5 306> 258 21<53 463 53 484 53 463> 519 21<215.5 307>
VStem: 30 23<258 258 258 279 258 348> 463 22<279 279>
LayerCount: 2
Fore
SplineSet
485 277 m 0
 485 273 485 269 484 258 c 1
 53 258 l 1
 57 76 161 7 258 7 c 0
 341 7 424 54 455 161 c 1
 477 161 l 1
 445 45 356 -14 256 -14 c 0
 134 -14 30 81 30 265 c 0
 30 431 134 540 264 540 c 0
 415 540 485 408 485 277 c 0
262 519 m 0
 169 519 57 444 53 279 c 1
 463 279 l 1
 459 461 352 519 262 519 c 0
EndSplineSet
Validated: 1
Colour: ffff
EndChar

StartChar: uni0436
Encoding: 214 1078 143
Width: 770
GlyphClass: 2
Flags: MW
HStem: 0 21G<30 63 30 30 374 396 374 374 707 707 707 740> 506 20G<31 64 64 64 374 396 396 396 706 739 739 739>
VStem: 374 22<0 215 0 215 241 526>
LayerCount: 2
Fore
SplineSet
441 256 m 1
 396 215 l 1
 396 0 l 1
 374 0 l 1
 374 215 l 1
 329 256 l 1
 63 0 l 1
 30 0 l 1
 311 271 l 1
 31 526 l 1
 64 526 l 1
 374 241 l 1
 374 526 l 1
 396 526 l 1
 396 241 l 1
 706 526 l 1
 739 526 l 1
 459 271 l 1
 740 0 l 1
 707 0 l 1
 441 256 l 1
EndSplineSet
Validated: 1
Substitution2: "'locl' Localized Forms in Cyrillic lookup 1 subtable" uni0436.loclBGR
Substitution2: "'aalt' Access All Alternates lookup 0 subtable" uni0436.loclBGR
Colour: ffff
EndChar

StartChar: uni0437
Encoding: 215 1079 144
Width: 442
GlyphClass: 2
Flags: MW
HStem: -14 21<183 268.5 183 276.5> 263 21<186 271 271 276 186 271> 519 21<181 260.5>
VStem: 35 22<156 156> 359 23<376 437.5> 384 23<92 178 84 181>
LayerCount: 2
Fore
SplineSet
382 398 m 0
 382 354 367 306 317 276 c 1
 317 272 l 1
 357 262 407 215 407 141 c 0
 407 27 328 -14 225 -14 c 0
 127 -14 48 36 35 156 c 1
 57 156 l 1
 74 45 139 7 227 7 c 0
 310 7 384 44 384 140 c 0
 384 222 316 263 276 263 c 2
 186 263 l 1
 186 284 l 1
 271 284 l 2
 314 284 359 331 359 399 c 0
 359 476 297 519 224 519 c 0
 138 519 84 475 62 383 c 1
 40 383 l 1
 54 470 114 540 223 540 c 0
 319 540 382 479 382 398 c 0
EndSplineSet
Validated: 1
Substitution2: "'locl' Localized Forms in Cyrillic lookup 1 subtable" uni0437.loclBGR
Substitution2: "'aalt' Access All Alternates lookup 0 subtable" uni0437.loclBGR
Colour: ffff
EndChar

StartChar: uni0438
Encoding: 216 1080 145
Width: 526
GlyphClass: 2
Flags: MW
HStem: -14 21 0 21G<62 89 62 62 433 455 433 433> 506 20G<62 84 84 84 428 455 455 455>
VStem: 62 22<30 526 30 526 30 526> 433 22<0 496 496 496>
LayerCount: 2
Fore
SplineSet
455 526 m 1xb8
 455 0 l 1
 433 0 l 1
 433 496 l 1
 89 0 l 1
 62 0 l 1x78
 62 526 l 1
 84 526 l 1
 84 30 l 1
 428 526 l 1
 455 526 l 1xb8
EndSplineSet
Validated: 1
Substitution2: "'locl' Localized Forms in Cyrillic lookup 1 subtable" uni0438.loclBGR
Substitution2: "'aalt' Access All Alternates lookup 0 subtable" uni0438.loclBGR
Colour: ffff
EndChar

StartChar: uni0439
Encoding: 217 1081 146
Width: 526
GlyphClass: 2
Flags: MW
HStem: -14 21 0 21G<62 89 62 62 433 455 433 433> 506 20G<62 84 84 84 428 455 455 455> 600 21<236 282 236 289.5> 700 20G<168 186 186 186 331 349 349 349>
VStem: 62 22<30 526 30 526 30 526> 168 18<683.5 720> 331 18<683.5 720> 433 22<0 496 496 496>
LayerCount: 2
Fore
SplineSet
331 720 m 1xbf80
 349 720 l 1
 349 647 320 600 259 600 c 0
 197 600 168 647 168 720 c 1
 186 720 l 1
 187 658 213 621 259 621 c 0
 305 621 330 658 331 720 c 1xbf80
455 526 m 1
 455 0 l 1
 433 0 l 1
 433 496 l 1
 89 0 l 1
 62 0 l 1x7f80
 62 526 l 1
 84 526 l 1
 84 30 l 1
 428 526 l 1
 455 526 l 1
EndSplineSet
Validated: 1
Substitution2: "'locl' Localized Forms in Cyrillic lookup 1 subtable" uni0439.loclBGR
Substitution2: "'aalt' Access All Alternates lookup 0 subtable" uni0439.loclBGR
Colour: ffff
EndChar

StartChar: uni043A
Encoding: 218 1082 147
Width: 458
GlyphClass: 2
Flags: MW
HStem: 0 21G<71 93 71 71 404 404 404 437> 506 20G<71 93 93 93 403 436 436 436>
VStem: 71 22<0 215 241 526>
LayerCount: 2
Fore
SplineSet
138 256 m 1
 93 215 l 1
 93 0 l 1
 71 0 l 1
 71 526 l 1
 93 526 l 1
 93 241 l 1
 403 526 l 1
 436 526 l 1
 156 271 l 1
 437 0 l 1
 404 0 l 1
 138 256 l 1
EndSplineSet
Validated: 1
Substitution2: "'locl' Localized Forms in Cyrillic lookup 1 subtable" uni043A.loclBGR
Substitution2: "'aalt' Access All Alternates lookup 0 subtable" uni043A.loclBGR
Colour: ffff
EndChar

StartChar: uni043B
Encoding: 219 1083 148
Width: 539
GlyphClass: 2
Flags: MW
HStem: 0 20<18 86 18 91.5> 506 20<176 435 176 176>
VStem: 154 22<336 351 351 506> 435 22<0 506 506 506>
LayerCount: 2
Fore
SplineSet
18 0 m 1
 18 20 l 1
 154 20 154 189 154 336 c 2
 154 526 l 1
 457 526 l 1
 457 0 l 1
 435 0 l 1
 435 506 l 1
 176 506 l 1
 176 351 l 2
 176 141 165 0 18 0 c 1
EndSplineSet
Validated: 1
Substitution2: "'locl' Localized Forms in Cyrillic lookup 1 subtable" uni043B.loclBGR
Substitution2: "'aalt' Access All Alternates lookup 0 subtable" uni043B.loclBGR
Colour: ffff
EndChar

StartChar: uni043C
Encoding: 220 1084 149
Width: 715
GlyphClass: 2
Flags: MW
HStem: 2 25<354 354 354 370 339 354> 504 22<620 620>
LayerCount: 2
Fore
SplineSet
70 0 m 1
 70 526 l 1
 110 526 l 1
 354 27 l 1
 603 526 l 1
 645 526 l 1
 645 0 l 1
 620 0 l 1
 620 504 l 1
 370 2 l 1
 339 2 l 1
 94 501 l 1
 94 0 l 1
 70 0 l 1
EndSplineSet
Validated: 1
Colour: ffff
EndChar

StartChar: uni043D
Encoding: 221 1085 150
Width: 530
GlyphClass: 2
Flags: MW
HStem: 0 21G<71 93 71 71 442 464 442 442> 280 20<93 442 93 442> 506 20G<71 93 93 93 442 464 464 464>
VStem: 71 22<0 280 0 300 300 526> 442 22<0 280 280 280 300 526 0 526>
LayerCount: 2
Fore
SplineSet
442 526 m 1
 464 526 l 1
 464 0 l 1
 442 0 l 1
 442 280 l 1
 93 280 l 1
 93 0 l 1
 71 0 l 1
 71 526 l 1
 93 526 l 1
 93 300 l 1
 442 300 l 1
 442 526 l 1
EndSplineSet
Validated: 1
Colour: ffff
EndChar

StartChar: uni043E
Encoding: 222 1086 151
Width: 554
GlyphClass: 2
Flags: MW
HStem: -14 21<220 334 220 351> 519 21<220 334>
VStem: 30 24<179 345.5> 500 24<179 345.5 179 350.5>
LayerCount: 2
Fore
SplineSet
277 540 m 0
 425 540 524 429 524 262 c 0
 524 96 425 -14 277 -14 c 0
 129 -14 30 96 30 262 c 0
 30 429 129 540 277 540 c 0
277 7 m 0
 391 7 500 86 500 262 c 0
 500 439 391 519 277 519 c 0
 163 519 54 439 54 262 c 0
 54 86 163 7 277 7 c 0
EndSplineSet
Validated: 1
Colour: ffff
EndChar

StartChar: uni043F
Encoding: 223 1087 152
Width: 530
GlyphClass: 2
Flags: MW
HStem: 0 21G<71 93 71 71 442 464 442 442> 506 20<93 442 93 93>
VStem: 71 22<0 506 0 526 0 526> 442 22<0 506 506 506>
LayerCount: 2
Fore
SplineSet
71 526 m 1
 464 526 l 1
 464 0 l 1
 442 0 l 1
 442 506 l 1
 93 506 l 1
 93 0 l 1
 71 0 l 1
 71 526 l 1
EndSplineSet
Validated: 1
Substitution2: "'locl' Localized Forms in Cyrillic lookup 1 subtable" uni043F.loclBGR
Substitution2: "'aalt' Access All Alternates lookup 0 subtable" uni043F.loclBGR
Colour: ffff
EndChar

StartChar: uni0440
Encoding: 224 1088 153
Width: 544
GlyphClass: 2
Flags: MW
HStem: -14 21<241.5 338 234 338.5> 514 20G<71 93 93 93> 519 21<251 351.5>
VStem: 71 22<-196 120 143 229 229 288 406 534> 490 24<187.5 332>
LayerCount: 2
Fore
SplineSet
287 540 m 0xb8
 424 540 514 427 514 267 c 0
 514 81 402 -14 275 -14 c 0
 208 -14 165 6 122 54 c 1
 93 120 l 1
 93 -196 l 1
 71 -196 l 1
 71 534 l 1
 93 534 l 1xd8
 93 406 l 1
 121 466 l 1
 168 522 215 540 287 540 c 0xb8
275 7 m 0
 401 7 490 112 490 263 c 0
 490 401 418 519 285 519 c 0
 181 519 93 461 93 288 c 2
 93 229 l 2
 93 57 193 7 275 7 c 0
EndSplineSet
Validated: 1
Colour: ffff
EndChar

StartChar: uni0441
Encoding: 225 1089 154
Width: 517
GlyphClass: 2
Flags: MW
HStem: -14 20<212 310.5 212 317> 520 20<219.5 322.5>
VStem: 30 24<179 348>
LayerCount: 2
Fore
SplineSet
271 540 m 0
 385 540 466 468 481 363 c 1
 459 363 l 1
 442 458 376 520 269 520 c 0
 170 520 54 438 54 268 c 0
 54 90 159 6 265 6 c 0
 356 6 435 60 455 157 c 1
 477 157 l 1
 456 51 371 -14 263 -14 c 0
 134 -14 30 88 30 263 c 0
 30 433 139 540 271 540 c 0
EndSplineSet
Validated: 1
Colour: ffff
EndChar

StartChar: uni0442
Encoding: 226 1090 155
Width: 540
GlyphClass: 2
Flags: MW
HStem: 0 21G<259 281 259 259> 506 20<10 530 10 259 281 281 281 530>
VStem: 259 22<0 506 0 506>
CounterMasks: 1 1c
LayerCount: 2
Fore
SplineSet
10 506 m 1
 10 526 l 1
 530 526 l 1
 530 506 l 1
 281 506 l 1
 281 0 l 1
 259 0 l 1
 259 506 l 1
 10 506 l 1
EndSplineSet
Validated: 1
Substitution2: "'locl' Localized Forms in Cyrillic lookup 1 subtable" uni0442.loclBGR
Substitution2: "'aalt' Access All Alternates lookup 0 subtable" uni0442.loclBGR
Colour: ffff
EndChar

StartChar: uni0443
Encoding: 227 1091 156
Width: 457
GlyphClass: 2
Flags: MW
HStem: -210 20<72.5 99 72.5 104> 506 20G<13 38 38 38 424 449 449 449>
VStem: 13 436<526 526>
LayerCount: 2
Fore
SplineSet
449 526 m 1
 246 0 l 2
 175 -185 133 -210 75 -210 c 0
 61 -210 51 -209 40 -206 c 1
 40 -186 l 1
 53 -189 66 -190 79 -190 c 0
 119 -190 157 -162 202 -52 c 2
 219 -10 l 1
 13 526 l 1
 38 526 l 1
 231 18 l 1
 424 526 l 1
 449 526 l 1
EndSplineSet
Validated: 1
Colour: ffff
EndChar

StartChar: uni0444
Encoding: 228 1092 157
Width: 624
GlyphClass: 2
Flags: MW
HStem: -120 21G<286 308 286 286> -14 21<286 286> 519 21<286 286> 626 20G<286 308 308 308>
VStem: 30 24<180.5 344> 286 22<-120 -14 7 519 540 646> 540 24<180.5 344 180.5 348>
CounterMasks: 1 0e
LayerCount: 2
Fore
SplineSet
308 -120 m 1
 286 -120 l 1
 286 -14 l 1
 144 -10 30 99 30 262 c 0
 30 426 144 535 286 540 c 1
 286 646 l 1
 308 646 l 1
 308 540 l 1
 450 535 564 426 564 262 c 0
 564 99 450 -10 308 -14 c 1
 308 -120 l 1
540 262 m 0
 540 434 418 515 308 519 c 1
 308 7 l 1
 418 10 540 90 540 262 c 0
54 262 m 0
 54 90 176 10 286 7 c 1
 286 519 l 1
 176 515 54 434 54 262 c 0
EndSplineSet
Validated: 1
Colour: ffff
EndChar

StartChar: uni0445
Encoding: 229 1093 158
Width: 417
GlyphClass: 2
Flags: MW
HStem: 0 21G<3 30 3 3 376 404 376 376> 506 20G<11 37 37 37 377 404 404 404>
VStem: 3 401<0 0>
LayerCount: 2
Fore
SplineSet
218 264 m 1
 404 0 l 1
 376 0 l 1
 205 249 l 1
 30 0 l 1
 3 0 l 1
 190 264 l 1
 11 526 l 1
 37 526 l 1
 205 280 l 1
 377 526 l 1
 404 526 l 1
 218 264 l 1
EndSplineSet
Validated: 1
Colour: ffff
EndChar

StartChar: uni0446
Encoding: 230 1094 159
Width: 526
GlyphClass: 2
Flags: MW
HStem: -120 21G<485 507 485 485> 0 20<84 433 455 485> 506 20G<62 84 84 84 433 455 455 455>
VStem: 62 22<20 526 20 526 20 526> 433 22<20 526 20 526> 485 22<-120 0 0 0>
LayerCount: 2
Fore
SplineSet
455 526 m 1
 455 20 l 1
 507 20 l 1
 507 -120 l 1
 485 -120 l 1
 485 0 l 1
 62 0 l 1
 62 526 l 1
 84 526 l 1
 84 20 l 1
 433 20 l 1
 433 526 l 1
 455 526 l 1
EndSplineSet
Validated: 1
Substitution2: "'locl' Localized Forms in Cyrillic lookup 1 subtable" uni0446.loclBGR
Substitution2: "'aalt' Access All Alternates lookup 0 subtable" uni0446.loclBGR
Colour: ffff
EndChar

StartChar: uni0447
Encoding: 231 1095 160
Width: 526
GlyphClass: 2
Flags: MW
HStem: -14 21 0 21G<433 455 433 433> 506 20G<62 84 84 84 433 455 455 455>
VStem: 62 22<404 413 413 526> 433 22<0 290 290 290 384 526 0 526>
LayerCount: 2
Fore
SplineSet
455 526 m 1xb8
 455 0 l 1
 433 0 l 1x78
 433 290 l 1
 412 238 l 1
 373 183 312 156 247 156 c 0
 141 156 77 215 66 318 c 0
 63 345 62 361 62 404 c 2
 62 526 l 1
 84 526 l 1
 84 413 l 2
 84 376 85 353 88 326 c 0
 98 237 147 177 247 177 c 0
 343 177 433 244 433 384 c 2
 433 526 l 1
 455 526 l 1xb8
EndSplineSet
Validated: 1
Colour: ffff
EndChar

StartChar: uni0448
Encoding: 232 1096 161
Width: 809
GlyphClass: 2
Flags: MW
HStem: 0 20<93 396 418 721> 506 20G<71 93 93 93 396 418 418 418 721 743 743 743>
VStem: 71 22<20 526 20 526 20 526> 396 22<20 526 20 526> 721 22<20 526>
CounterMasks: 1 1c
LayerCount: 2
Fore
SplineSet
743 0 m 1
 71 0 l 1
 71 526 l 1
 93 526 l 1
 93 20 l 1
 396 20 l 1
 396 526 l 1
 418 526 l 1
 418 20 l 1
 721 20 l 1
 721 526 l 1
 743 526 l 1
 743 0 l 1
EndSplineSet
Validated: 1
Substitution2: "'locl' Localized Forms in Cyrillic lookup 1 subtable" uni0448.loclBGR
Substitution2: "'aalt' Access All Alternates lookup 0 subtable" uni0448.loclBGR
Colour: ffff
EndChar

StartChar: uni0449
Encoding: 233 1097 162
Width: 825
GlyphClass: 2
Flags: MW
HStem: -120 21G<773 795 773 773> 0 20<93 396 418 721 743 773> 506 20G<71 93 93 93 396 418 418 418 721 743 743 743>
VStem: 71 22<20 526 20 526 20 526> 396 22<20 526 20 526> 721 22<20 526 20 526> 773 22<-120 0 0 0>
CounterMasks: 1 1c
LayerCount: 2
Fore
SplineSet
773 0 m 1
 71 0 l 1
 71 526 l 1
 93 526 l 1
 93 20 l 1
 396 20 l 1
 396 526 l 1
 418 526 l 1
 418 20 l 1
 721 20 l 1
 721 526 l 1
 743 526 l 1
 743 20 l 1
 795 20 l 1
 795 -120 l 1
 773 -120 l 1
 773 0 l 1
EndSplineSet
Validated: 1
Substitution2: "'locl' Localized Forms in Cyrillic lookup 1 subtable" uni0449.loclBGR
Substitution2: "'aalt' Access All Alternates lookup 0 subtable" uni0449.loclBGR
Colour: ffff
EndChar

StartChar: uni044A
Encoding: 234 1098 163
Width: 584
GlyphClass: 2
Flags: MW
HStem: 0 22<148 280 148 280> 330 22<148 290 148 292> 506 20<20 126 20 148>
VStem: 126 22<22 22 22 330 352 506 506 506> 495 24<112.5 217>
LayerCount: 2
Fore
SplineSet
20 526 m 1
 148 526 l 1
 148 352 l 1
 292 352 l 2
 429 352 519 307 519 167 c 0
 519 21 417 0 280 0 c 2
 126 0 l 1
 126 506 l 1
 20 506 l 1
 20 526 l 1
148 22 m 1
 280 22 l 2
 411 22 495 62 495 163 c 0
 495 271 423 330 290 330 c 2
 148 330 l 1
 148 22 l 1
EndSplineSet
Validated: 1
Substitution2: "'locl' Localized Forms in Cyrillic lookup 1 subtable" uni044A.loclBGR
Substitution2: "'aalt' Access All Alternates lookup 0 subtable" uni044A.loclBGR
Colour: ffff
EndChar

StartChar: uni044B
Encoding: 235 1099 164
Width: 653
GlyphClass: 2
Flags: MW
HStem: 0 21G<70 224 70 70 561 583 561 561> 0 22<92 224 92 224> 330 22<92 234 92 236> 506 20G<70 92 92 92 561 583 583 583>
VStem: 70 22<22 22 22 330 352 526> 439 24<112.5 217> 561 22<0 526>
LayerCount: 2
Fore
SplineSet
583 0 m 1x92
 561 0 l 1
 561 526 l 1
 583 526 l 1
 583 0 l 1x92
70 526 m 1x7c
 92 526 l 1
 92 352 l 1
 236 352 l 2
 373 352 463 307 463 167 c 0
 463 21 361 0 224 0 c 2
 70 0 l 1
 70 526 l 1x7c
92 22 m 1
 224 22 l 2
 355 22 439 62 439 163 c 0
 439 271 367 330 234 330 c 2
 92 330 l 1
 92 22 l 1
EndSplineSet
Validated: 1
Substitution2: "'locl' Localized Forms in Cyrillic lookup 1 subtable" uni044B.loclBGR
Substitution2: "'aalt' Access All Alternates lookup 0 subtable" uni044B.loclBGR
Colour: ffff
EndChar

StartChar: uni044C
Encoding: 236 1100 165
Width: 528
GlyphClass: 2
Flags: MW
HStem: 0 22<92 224 92 224> 330 22<92 234 92 236> 506 20G<70 92 92 92>
VStem: 70 22<22 22 22 330 352 526> 439 24<112.5 217>
LayerCount: 2
Fore
SplineSet
70 526 m 5
 92 526 l 5
 92 352 l 5
 236 352 l 6
 373 352 463 307 463 167 c 4
 463 21 361 0 224 0 c 6
 70 0 l 5
 70 526 l 5
92 22 m 5
 224 22 l 6
 355 22 439 62 439 163 c 4
 439 271 367 330 234 330 c 6
 92 330 l 5
 92 22 l 5
EndSplineSet
Validated: 1
Substitution2: "'locl' Localized Forms in Cyrillic lookup 1 subtable" uni044C.loclBGR
Substitution2: "'aalt' Access All Alternates lookup 0 subtable" uni044C.loclBGR
Colour: ffff
EndChar

StartChar: uni044D
Encoding: 237 1101 166
Width: 510
GlyphClass: 2
Flags: MW
HStem: -14 20<205.5 313.5 205.5 327.5> 260 21<141 457 141 457> 520 20<193.5 305.5>
VStem: 457 24<260 260 281 281>
LayerCount: 2
Fore
SplineSet
457 260 m 1
 141 260 l 1
 141 281 l 1
 457 281 l 1
 451 442 364 520 247 520 c 0
 140 520 69 458 52 363 c 1
 30 363 l 1
 45 468 131 540 245 540 c 0
 397 540 481 433 481 263 c 0
 481 88 402 -14 253 -14 c 0
 145 -14 55 51 34 157 c 1
 56 157 l 1
 76 60 160 6 251 6 c 0
 376 6 454 87 457 260 c 1
EndSplineSet
Validated: 1
Colour: ffff
EndChar

StartChar: uni044E
Encoding: 238 1102 167
Width: 720
GlyphClass: 2
Flags: MW
HStem: 0 21G<71 93 71 71> 280 20<93 160 93 161> 506 20G<71 93 93 93>
VStem: 71 22<0 280 0 300 300 526> 442 22
LayerCount: 2
Fore
SplineSet
407 540 m 0
 555 540 654 429 654 262 c 0
 654 96 555 -14 407 -14 c 0
 259 -14 160 96 160 262 c 2
 160 280 l 1
 93 280 l 1
 93 0 l 1
 71 0 l 1
 71 526 l 1
 93 526 l 1
 93 300 l 1
 161 300 l 1
 175 445 270 540 407 540 c 0
407 7 m 0
 521 7 630 86 630 262 c 0
 630 439 521 519 407 519 c 0
 293 519 184 439 184 262 c 0
 184 86 293 7 407 7 c 0
EndSplineSet
Validated: 1
Substitution2: "'locl' Localized Forms in Cyrillic lookup 1 subtable" uni044E.loclBGR
Substitution2: "'aalt' Access All Alternates lookup 0 subtable" uni044E.loclBGR
Colour: ffff
EndChar

StartChar: uni044F
Encoding: 239 1103 168
Width: 435
GlyphClass: 2
Flags: MW
HStem: -14 21 519 21
VStem: 26 23 350 23<269 505 505 505> 376 22
LayerCount: 2
Fore
SplineSet
31 383 m 0
 31 489 100 526 209 526 c 2
 373 526 l 1
 373 0 l 1
 351 0 l 1
 351 247 l 1
 231 247 l 1
 172 236 128 183 103 133 c 0
 81 81 63 23 39 0 c 1
 16 0 l 1
 49 36 58 82 80 134 c 0
 95 171 124 224 196 251 c 1
 123 257 31 294 31 383 c 0
350 505 m 1
 210 505 l 2
 124 505 53 481 53 383 c 0
 53 303 155 269 222 269 c 2
 350 269 l 1
 350 505 l 1
EndSplineSet
Validated: 1
Colour: ffff
EndChar

StartChar: uni2116
Encoding: 240 8470 169
Width: 1113
GlyphClass: 2
Flags: MW
HStem: 0 20 275 16 670 20 675 16
VStem: 96 22<-2 373 -2 688> 544 22<313 688> 667 16 983 16
LayerCount: 2
Fore
SplineSet
833 691 m 1x53
 833 689 l 1
 933 689 1000 606 1000 481 c 0
 1000 357 933 275 833 275 c 0
 733 275 666 358 666 483 c 0
 666 608 733 691 833 691 c 1x53
833 289 m 0
 910 289 983 348 983 480 c 0
 983 613 910 673 833 673 c 0
 756 673 683 613 683 480 c 0
 683 348 756 289 833 289 c 0
566 -2 m 1xac
 532 -2 l 1
 116 668 l 1
 118 575 118 466 118 373 c 2
 118 -2 l 1
 96 -2 l 1
 96 688 l 1
 129 688 l 1
 546 18 l 1
 544 111 544 220 544 313 c 2
 544 688 l 1
 566 688 l 1
 566 -2 l 1xac
EndSplineSet
Validated: 1
Colour: ffff
EndChar

StartChar: uni0451
Encoding: 241 1105 170
Width: 521
GlyphClass: 2
Flags: MW
HStem: -14 21<209.5 299.5 209.5 306> 258 21<53 463 53 484 53 463> 519 21<215.5 307> 600 40<218.5 229.5 298.5 309.5>
VStem: 30 23<258 258 258 279 258 348> 224 80<600 600 640 640> 463 22<279 279>
LayerCount: 2
Fore
SplineSet
224 640 m 0
 235 640 244 631 244 620 c 0
 244 609 235 600 224 600 c 0
 213 600 204 609 204 620 c 0
 204 631 213 640 224 640 c 0
304 640 m 0
 315 640 324 631 324 620 c 0
 324 609 315 600 304 600 c 0
 293 600 284 609 284 620 c 0
 284 631 293 640 304 640 c 0
485 277 m 0
 485 273 485 269 484 258 c 1
 53 258 l 1
 57 76 161 7 258 7 c 0
 341 7 424 54 455 161 c 1
 477 161 l 1
 445 45 356 -14 256 -14 c 0
 134 -14 30 81 30 265 c 0
 30 431 134 540 264 540 c 0
 415 540 485 408 485 277 c 0
262 519 m 0
 169 519 57 444 53 279 c 1
 463 279 l 1
 459 461 352 519 262 519 c 0
EndSplineSet
Validated: 1
Colour: ffff
EndChar

StartChar: uni0454
Encoding: 244 1108 172
Width: 510
GlyphClass: 2
Flags: MW
HStem: -14 20<212.5 310.5 212.5 317> 260 21<54 370 54 370> 520 20<220.5 322.5>
VStem: 30 24<260 260 260 281 260 348>
LayerCount: 2
Fore
SplineSet
370 260 m 1
 54 260 l 1
 57 87 160 6 265 6 c 0
 356 6 435 60 455 157 c 1
 477 157 l 1
 456 51 371 -14 263 -14 c 0
 134 -14 30 88 30 263 c 0
 30 433 139 540 271 540 c 0
 385 540 466 468 481 363 c 1
 459 363 l 1
 442 458 376 520 269 520 c 0
 172 520 60 442 54 281 c 1
 370 281 l 1
 370 260 l 1
EndSplineSet
Validated: 1
Colour: ffff
EndChar

StartChar: uni0455
Encoding: 245 1109 173
Width: 435
GlyphClass: 2
Flags: MW
HStem: -14 21<179 264.5 179 272.5> 519 21<177.5 257>
VStem: 26 22<156 156> 51 23<362 437.5 362 438.5> 375 23<85 159.5>
LayerCount: 2
Fore
SplineSet
215 540 m 0
 324 540 379 470 393 383 c 1
 371 383 l 1
 349 475 300 519 214 519 c 0
 141 519 74 476 74 399 c 0
 74 325 133 296 217 277 c 0
 338 250 398 212 398 124 c 0
 398 40 324 -14 221 -14 c 0
 123 -14 39 36 26 156 c 1
 48 156 l 1
 65 45 135 7 223 7 c 0
 306 7 375 47 375 123 c 0
 375 196 333 227 207 256 c 0
 124 275 51 309 51 398 c 0
 51 479 119 540 215 540 c 0
EndSplineSet
Validated: 1
Colour: ffff
EndChar

StartChar: uni0456
Encoding: 246 1110 174
Width: 164
GlyphClass: 2
Flags: MW
HStem: 0 21G<71 93 71 71> 506 20G<71 93 93 93> 613 40<76.5 87.5>
VStem: 71 22<0 526>
LayerCount: 2
Fore
SplineSet
82 653 m 0
 93 653 102 644 102 633 c 0
 102 622 93 613 82 613 c 0
 71 613 62 622 62 633 c 0
 62 644 71 653 82 653 c 0
93 0 m 1
 71 0 l 1
 71 526 l 1
 93 526 l 1
 93 0 l 1
EndSplineSet
Validated: 1
Colour: ffff
EndChar

StartChar: uni0457
Encoding: 247 1111 175
Width: 164
GlyphClass: 2
Flags: MW
HStem: 0 21G<71 93 71 71> 506 20G<71 93 93 93> 600 40<36.5 47.5 116.5 127.5>
VStem: 42 80<600 600 640 640> 71 22<0 526>
LayerCount: 2
Fore
SplineSet
42 640 m 0x30
 53 640 62 631 62 620 c 0
 62 609 53 600 42 600 c 0
 31 600 22 609 22 620 c 0
 22 631 31 640 42 640 c 0x30
122 640 m 0
 133 640 142 631 142 620 c 0
 142 609 133 600 122 600 c 0
 111 600 102 609 102 620 c 0
 102 631 111 640 122 640 c 0
93 0 m 1xc8
 71 0 l 1
 71 526 l 1
 93 526 l 1
 93 0 l 1xc8
EndSplineSet
Validated: 1
Colour: ffff
EndChar

StartChar: uni0458
Encoding: 248 1112 176
Width: 156
GlyphClass: 2
Flags: MW
HStem: -210 20<-2.5 18.5 -5 24> 506 20G<64 86 86 86> 613 40<69.5 80.5>
VStem: 64 22<-83 -73 -73 526>
LayerCount: 2
Fore
SplineSet
75 653 m 0
 86 653 95 644 95 633 c 0
 95 622 86 613 75 613 c 0
 64 613 55 622 55 633 c 0
 55 644 64 653 75 653 c 0
86 526 m 1
 86 -73 l 2
 86 -93 86 -107 85 -125 c 0
 82 -184 45 -210 3 -210 c 0
 -8 -210 -19 -209 -32 -206 c 1
 -32 -187 l 1
 -21 -189 -10 -190 0 -190 c 0
 37 -190 61 -173 63 -123 c 0
 64 -109 64 -99 64 -84 c 2
 64 526 l 1
 86 526 l 1
EndSplineSet
Validated: 1
Colour: ffff
EndChar

StartChar: uni045C
Encoding: 252 1116 177
Width: 458
GlyphClass: 2
Flags: MW
HStem: 0 21G<70 92 70 70 403 403 403 436> 506 20G<402 435 435 435> 715 20G<70 92 92 92> 795 110<72 160 72 160>
VStem: 71 22 72 88
LayerCount: 2
Fore
SplineSet
91 795 m 1x14
 72 795 l 1
 132 905 l 1
 160 905 l 1
 91 795 l 1x14
137 256 m 1xe8
 92 215 l 1
 92 0 l 1
 70 0 l 1
 70 735 l 1
 92 735 l 1
 92 241 l 1
 402 526 l 1
 435 526 l 1
 155 271 l 1
 436 0 l 1
 403 0 l 1
 137 256 l 1xe8
EndSplineSet
Validated: 1
Colour: ffff
EndChar

StartChar: section
Encoding: 253 167 178
Width: 530
GlyphClass: 2
Flags: MW
HStem: -174 21<225.5 312.5 225.5 320.5> 104 15 683 21<224.5 304>
VStem: 49 24<240.5 324> 99 24<528.5 604 521.5 605.5> 424 24<-75 -4 -79 -1.5> 475 24<212.5 297>
LayerCount: 2
Fore
SplineSet
499 259 m 0
 499 166 428 117 344 104 c 1
 418 73 448 29 448 -37 c 0
 448 -121 372 -174 269 -174 c 0
 167 -174 99 -124 74 -9 c 1
 96 -9 l 1
 121 -108 180 -153 271 -153 c 0
 354 -153 424 -111 424 -39 c 0
 424 36 386 79 231 112 c 0
 148 130 49 182 49 278 c 0
 49 370 116 417 194 432 c 1
 141 455 99 495 99 562 c 0
 99 649 166 704 262 704 c 0
 371 704 425 637 442 549 c 1
 420 549 l 1
 397 639 347 683 261 683 c 0
 188 683 123 643 123 565 c 0
 123 478 207 443 291 428 c 0
 412 406 499 355 499 259 c 0
303 119 m 1
 385 120 475 160 475 257 c 0
 475 337 406 381 280 406 c 0
 263 409 245 414 227 419 c 1
 156 412 73 379 73 281 c 0
 73 200 157 151 241 134 c 0
 264 130 284 125 303 119 c 1
EndSplineSet
Validated: 1
Colour: ffff
EndChar

StartChar: uni045E
Encoding: 254 1118 179
Width: 457
GlyphClass: 2
Flags: MW
HStem: -210 20<71.5 98 71.5 103> 506 20G<12 37 37 37 423 448 448 448> 600 21<208 254 208 261.5> 700 20G<140 158 158 158 303 321 321 321>
VStem: 13 436 140 18<683.5 720> 303 18<683.5 720>
LayerCount: 2
Fore
SplineSet
303 720 m 1x36
 321 720 l 1
 321 647 292 600 231 600 c 0
 169 600 140 647 140 720 c 1
 158 720 l 1
 159 658 185 621 231 621 c 0
 277 621 302 658 303 720 c 1x36
448 526 m 1xc8
 245 0 l 2
 174 -185 132 -210 74 -210 c 0
 60 -210 50 -209 39 -206 c 1
 39 -186 l 1
 52 -189 65 -190 78 -190 c 0
 118 -190 156 -162 201 -52 c 2
 218 -10 l 1
 12 526 l 1
 37 526 l 1
 230 18 l 1
 423 526 l 1
 448 526 l 1xc8
EndSplineSet
Validated: 1
Colour: ffff
EndChar

StartChar: uni0414.loclBGR
Encoding: 257 -1 180
Width: 655
GlyphClass: 2
Flags: MW
HStem: -120 21G<35 57 35 35 605 627 605 605> 0 21<81 581 35 57> 670 20G<316 346 346 346>
VStem: 35 22<-120 0 -120 21 -120 21> 605 22<-120 0 0 0 -120 21>
LayerCount: 2
Fore
SplineSet
316 690 m 1
 346 690 l 1
 605 21 l 1
 627 21 l 1
 627 -120 l 1
 605 -120 l 1
 605 0 l 1
 57 0 l 1
 57 -120 l 1
 35 -120 l 1
 35 21 l 1
 57 21 l 1
 316 690 l 1
331 671 m 1
 81 21 l 1
 581 21 l 1
 331 671 l 1
EndSplineSet
Validated: 1
Colour: ffff
EndChar

StartChar: uni041B.loclBGR
Encoding: 258 -1 181
Width: 603
GlyphClass: 2
Flags: MW
HStem: -12 22
VStem: 166 22
LayerCount: 2
Fore
SplineSet
293 690 m 1
 323 690 l 1
 590 0 l 1
 566 0 l 1
 308 671 l 1
 50 0 l 1
 26 0 l 1
 293 690 l 1
EndSplineSet
Validated: 1
Colour: ffff
EndChar

StartChar: uni0432.loclBGR
Encoding: 259 -1 182
Width: 544
GlyphClass: 2
Flags: MW
HStem: -14 21<239 345.5 239 348.5> 750 20G<224.5 346.5>
VStem: 71 22<247 386 410 545 545 565> 448 24<592 658.5> 490 24<167.5 310 154 322>
LayerCount: 2
Fore
SplineSet
472 620 m 0
 472 563 444 516 396 477 c 1
 470 440 514 373 514 247 c 0
 514 61 417 -14 280 -14 c 0
 187 -14 71 37 71 247 c 2
 71 545 l 2
 71 704 170 770 279 770 c 0
 414 770 472 706 472 620 c 0
280 7 m 0
 411 7 490 92 490 243 c 0
 490 401 410 479 277 479 c 0
 202 479 136 445 93 386 c 1
 93 243 l 2
 93 58 198 7 280 7 c 0
277 497 m 0
 307 497 342 495 378 484 c 1
 422 522 448 567 448 617 c 0
 448 700 399 752 280 752 c 0
 211 752 93 715 93 565 c 2
 93 410 l 1
 125 455 195 497 277 497 c 0
EndSplineSet
Validated: 1
Colour: ffff
EndChar

StartChar: uni0433.loclBGR
Encoding: 260 -1 183
Width: 435
GlyphClass: 2
Flags: MW
HStem: -14 21<159.5 245 159.5 252> 519 21<167 246.5>
VStem: 26 23<85 159.5 85 168> 350 23<362 437.5> 376 22<156 156>
LayerCount: 2
Fore
SplineSet
209 540 m 0
 305 540 373 479 373 398 c 0
 373 309 300 275 217 256 c 0
 91 227 49 196 49 123 c 0
 49 47 118 7 201 7 c 0
 289 7 359 45 376 156 c 1
 398 156 l 1
 385 36 301 -14 203 -14 c 0
 100 -14 26 40 26 124 c 0
 26 212 86 250 207 277 c 0
 291 296 350 325 350 399 c 0
 350 476 283 519 210 519 c 0
 124 519 75 475 53 383 c 1
 31 383 l 1
 45 470 100 540 209 540 c 0
EndSplineSet
Validated: 1
Colour: ffff
EndChar

StartChar: uni0434.loclBGR
Encoding: 261 -1 184
Width: 544
GlyphClass: 2
Flags: MW
HStem: -220 21<214.5 320 214.5 323> -14 21<192.5 293> 510 20G<451 473 473 473> 519 21<206 302.5 205.5 310>
VStem: 30 24<194 338.5 194 352> 54 22 451 22<100 120 120 120 238 297 297 383 406 530>
LayerCount: 2
Fore
SplineSet
473 530 m 1xea
 473 140 l 2
 473 57 473 16 472 -18 c 0
 468 -137 390 -220 256 -220 c 0
 159 -220 71 -181 55 -62 c 2
 53 -47 l 1
 75 -47 l 1
 77 -62 l 2xd6
 90 -163 171 -199 258 -199 c 0
 382 -199 447 -121 450 -11 c 0
 451 24 451 51 451 100 c 2
 451 120 l 1
 423 60 l 1
 376 4 329 -14 257 -14 c 0
 120 -14 30 99 30 259 c 0
 30 445 142 540 269 540 c 0
 336 540 379 520 422 472 c 1xda
 451 406 l 1
 451 530 l 1
 473 530 l 1xea
259 7 m 0
 363 7 451 65 451 238 c 2
 451 297 l 2
 451 469 351 519 269 519 c 0
 143 519 54 414 54 263 c 0xda
 54 125 126 7 259 7 c 0
EndSplineSet
Validated: 1
Colour: ffff
EndChar

StartChar: uni0436.loclBGR
Encoding: 262 -1 185
Width: 770
GlyphClass: 2
Flags: MW
HStem: 0 21G<30 63 30 30 374 396 374 374 707 707 707 740> 506 20G<31 64 64 64 706 739 739 739> 715 20G<374 396 396 396>
VStem: 374 22<0 215 0 215 241 735>
LayerCount: 2
Fore
SplineSet
441 256 m 1
 396 215 l 1
 396 0 l 1
 374 0 l 1
 374 215 l 1
 329 256 l 1
 63 0 l 1
 30 0 l 1
 311 271 l 1
 31 526 l 1
 64 526 l 1
 374 241 l 1
 374 735 l 1
 396 735 l 1
 396 241 l 1
 706 526 l 1
 739 526 l 1
 459 271 l 1
 740 0 l 1
 707 0 l 1
 441 256 l 1
EndSplineSet
Validated: 1
Colour: ffff
EndChar

StartChar: uni0437.loclBGR
Encoding: 263 -1 186
Width: 507
GlyphClass: 2
Flags: HMW
HStem: -14 21 263 21 519 21<203.037 298.611>
VStem: 35 22<-50 -50> 359 23 384 23
LayerCount: 2
Fore
SplineSet
442 348 m 0
 442 286 408 202 327 176 c 1
 327 172 l 1
 389 158 467 93 467 -9 c 0
 467 -164 375 -220 255 -220 c 0
 142 -220 50 -170 35 -50 c 1
 57 -50 l 1
 77 -161 153 -199 257 -199 c 0
 356 -199 444 -146 444 -10 c 0
 444 105 345 163 286 163 c 2
 186 163 l 1
 186 184 l 1
 281 184 l 2
 348 184 419 251 419 349 c 0
 419 458 343 519 254 519 c 0
 152 519 88 475 62 383 c 1
 40 383 l 1
 56 470 126 540 253 540 c 0
 367 540 442 458 442 348 c 0
EndSplineSet
Validated: 1
Colour: ffff
EndChar

StartChar: uni0438.loclBGR
Encoding: 264 -1 187
Width: 526
GlyphClass: 2
Flags: MW
HStem: -14 21<197 279.5> 0 21G<433 455 433 433> 506 20G<62 84 84 84 433 455 455 455>
VStem: 62 22<234 243 243 526> 433 22<0 120 120 120 214 526 0 526>
LayerCount: 2
Fore
SplineSet
455 526 m 1xb8
 455 0 l 1
 433 0 l 1x78
 433 120 l 1
 412 68 l 1
 373 13 312 -14 247 -14 c 0
 141 -14 77 45 66 148 c 0
 63 175 62 191 62 234 c 2
 62 526 l 1
 84 526 l 1
 84 243 l 2
 84 206 85 183 88 156 c 0
 98 67 147 7 247 7 c 0
 343 7 433 74 433 214 c 2
 433 526 l 1
 455 526 l 1xb8
EndSplineSet
Validated: 1
Colour: ffff
EndChar

StartChar: uni0439.loclBGR
Encoding: 265 -1 188
Width: 526
GlyphClass: 2
Flags: MW
HStem: -14 21<197 279.5> 0 21G<433 455 433 433> 506 20G<62 84 84 84 433 455 455 455> 600 21<236 282 236 289.5> 700 20G<168 186 186 186 331 349 349 349>
VStem: 62 22<234 243 243 526> 168 18<683.5 720> 331 18<683.5 720> 433 22<0 120 120 120 214 526 0 526>
LayerCount: 2
Fore
SplineSet
331 720 m 1x1b
 349 720 l 1
 349 647 320 600 259 600 c 0
 197 600 168 647 168 720 c 1
 186 720 l 1
 187 658 213 621 259 621 c 0
 305 621 330 658 331 720 c 1x1b
455 526 m 1xa480
 455 0 l 1
 433 0 l 1x6480
 433 120 l 1
 412 68 l 1
 373 13 312 -14 247 -14 c 0
 141 -14 77 45 66 148 c 0
 63 175 62 191 62 234 c 2
 62 526 l 1
 84 526 l 1
 84 243 l 2
 84 206 85 183 88 156 c 0
 98 67 147 7 247 7 c 0
 343 7 433 74 433 214 c 2
 433 526 l 1
 455 526 l 1xa480
EndSplineSet
Validated: 1
Colour: ffff
EndChar

StartChar: uni043A.loclBGR
Encoding: 266 -1 189
Width: 458
GlyphClass: 2
Flags: MW
HStem: 0 21G<71 93 71 71 404 404 404 437> 506 20G<403 436 436 436> 715 20G<71 93 93 93>
VStem: 71 22<0 215 241 735>
LayerCount: 2
Fore
SplineSet
138 256 m 1
 93 215 l 1
 93 0 l 1
 71 0 l 1
 71 735 l 1
 93 735 l 1
 93 241 l 1
 403 526 l 1
 436 526 l 1
 156 271 l 1
 437 0 l 1
 404 0 l 1
 138 256 l 1
EndSplineSet
Validated: 1
Colour: ffff
EndChar

StartChar: uni043B.loclBGR
Encoding: 267 -1 190
Width: 468
GlyphClass: 2
Flags: MW
HStem: 0 20 507 19<236 236>
VStem: 13 447<0 0>
LayerCount: 2
Fore
SplineSet
13 0 m 1
 221 526 l 1
 252 526 l 1
 460 0 l 1
 435 0 l 1
 236 507 l 1
 38 0 l 1
 13 0 l 1
EndSplineSet
Validated: 1
Colour: ffff
EndChar

StartChar: uni043F.loclBGR
Encoding: 268 -1 191
Width: 530
GlyphClass: 2
Flags: MW
HStem: 0 21G<71 93 71 71 442 464 442 442> 506 20G<71 93 93 93> 519 21<246.5 329>
VStem: 71 22<0 312 406 526> 442 22<0 283 283 292 0 301.5>
LayerCount: 2
Fore
SplineSet
460 378 m 0xb8
 463 351 464 335 464 292 c 2
 464 0 l 1
 442 0 l 1
 442 283 l 2
 442 320 441 343 438 370 c 0
 428 459 379 519 279 519 c 0xb8
 183 519 93 452 93 312 c 2
 93 0 l 1
 71 0 l 1
 71 526 l 1
 93 526 l 1xd8
 93 406 l 1
 114 458 l 1
 153 513 214 540 279 540 c 0
 385 540 449 481 460 378 c 0xb8
EndSplineSet
Validated: 1
Colour: ffff
EndChar

StartChar: uni0442.loclBGR
Encoding: 269 -1 192
Width: 809
GlyphClass: 2
Flags: MW
HStem: 0 21G<71 93 71 71 396 418 396 396 721 743 721 721> 506 20G<71 93 93 93> 520 20<228.5 298 553.5 623>
VStem: 71 22<0 302 414 526> 396 22<0 283 283 301.5> 721 22<0 283 283 292 0 301.5>
CounterMasks: 1 1c
LayerCount: 2
Fore
SplineSet
739 378 m 0xbc
 742 351 743 335 743 292 c 2
 743 0 l 1
 721 0 l 1
 721 283 l 2
 721 320 720 343 717 370 c 0
 707 459 666 520 580 520 c 0
 492 520 418 452 418 302 c 2
 418 0 l 1
 396 0 l 1
 396 283 l 2
 396 320 395 343 392 370 c 0
 382 459 341 520 255 520 c 0xbc
 167 520 93 452 93 302 c 2
 93 0 l 1
 71 0 l 1
 71 526 l 1
 93 526 l 1xdc
 93 414 l 1
 117 471 l 1
 153 518 201 540 256 540 c 0
 342 540 394 490 410 403 c 1
 442 471 l 1
 478 518 526 540 581 540 c 0
 675 540 728 481 739 378 c 0xbc
EndSplineSet
Validated: 1
Colour: ffff
EndChar

StartChar: uni0446.loclBGR
Encoding: 270 -1 193
Width: 526
GlyphClass: 2
Flags: MW
HStem: -14 21<197 279.5> 0 21G 506 20G<62 84 84 84 433 455 455 455>
VStem: 62 22<234 243 243 526> 433 22<105 120 214 526>
LayerCount: 2
Fore
SplineSet
455 526 m 1xb8
 455 161 l 2
 455 49 462 35 507 21 c 1
 507 -120 l 1
 485 -120 l 1
 485 0 l 1x78
 440 29 433 42 433 120 c 1
 412 68 l 1
 373 13 312 -14 247 -14 c 0
 141 -14 77 45 66 148 c 0
 63 175 62 191 62 234 c 2
 62 526 l 1
 84 526 l 1
 84 243 l 2
 84 206 85 183 88 156 c 0
 98 67 147 7 247 7 c 0
 343 7 433 74 433 214 c 2
 433 526 l 1
 455 526 l 1xb8
EndSplineSet
Validated: 1
Colour: ffff
EndChar

StartChar: uni0448.loclBGR
Encoding: 271 -1 194
Width: 809
GlyphClass: 2
Flags: MW
HStem: 0 21G<721 743 721 721> 506 20G<71 93 93 93 396 418 418 418 721 743 743 743> 520 20
VStem: 71 22<234 243 243 526> 396 22<224.5 243 243 526> 721 22<0 112 112 112 224 526 0 526>
CounterMasks: 1 1c
LayerCount: 2
Fore
SplineSet
75 148 m 0xbc
 72 175 71 191 71 234 c 2
 71 526 l 1
 93 526 l 1
 93 243 l 2
 93 206 94 183 97 156 c 0
 107 67 148 6 234 6 c 0
 322 6 396 74 396 224 c 2
 396 526 l 1
 418 526 l 1
 418 243 l 2
 418 206 419 183 422 156 c 0
 432 67 473 6 559 6 c 0xbc
 647 6 721 74 721 224 c 2
 721 526 l 1
 743 526 l 1
 743 0 l 1
 721 0 l 1xdc
 721 112 l 1
 697 55 l 1
 661 8 613 -14 558 -14 c 0
 472 -14 420 36 404 123 c 1
 372 55 l 1
 336 8 288 -14 233 -14 c 0
 139 -14 86 45 75 148 c 0xbc
EndSplineSet
Validated: 1
Colour: ffff
EndChar

StartChar: uni0449.loclBGR
Encoding: 272 -1 195
Width: 809
GlyphClass: 2
Flags: MW
HStem: 0 21G 506 20G<71 93 93 93 396 418 418 418 721 743 743 743> 520 20
VStem: 71 22<234 243 243 526> 396 22<224.5 243 243 526> 721 22<107 112 112 112 224 526>
CounterMasks: 1 1c
LayerCount: 2
Fore
SplineSet
75 148 m 0xbc
 72 175 71 191 71 234 c 2
 71 526 l 1
 93 526 l 1
 93 243 l 2
 93 206 94 183 97 156 c 0
 107 67 148 6 234 6 c 0
 322 6 396 74 396 224 c 2
 396 526 l 1
 418 526 l 1
 418 243 l 2
 418 206 419 183 422 156 c 0
 432 67 473 6 559 6 c 0
 647 6 721 74 721 224 c 2
 721 526 l 1
 743 526 l 1xdc
 743 161 l 2
 743 49 750 35 795 21 c 1
 795 -120 l 1
 773 -120 l 1
 773 0 l 1
 729 28 721 34 721 107 c 2
 721 112 l 1
 697 55 l 1
 661 8 613 -14 558 -14 c 0
 472 -14 420 36 404 123 c 1
 372 55 l 1
 336 8 288 -14 233 -14 c 0
 139 -14 86 45 75 148 c 0xbc
EndSplineSet
Validated: 1
Colour: ffff
EndChar

StartChar: uni044A.loclBGR
Encoding: 273 -1 196
Width: 638
GlyphClass: 2
Flags: MW
HStem: -14 21<289 395.5 289 398.5> 429 21<312 406.5> 506 20<20 148 20 126>
VStem: 126 22<188 199 199 218 322 506 506 506> 545 24<162.5 267>
LayerCount: 2
Fore
SplineSet
20 506 m 1
 20 526 l 1
 148 526 l 1
 148 322 l 1
 162 346 l 2
 206 419 282 450 342 450 c 0
 479 450 569 357 569 217 c 0
 569 71 467 -14 330 -14 c 0
 184 -14 126 111 126 188 c 2
 126 506 l 1
 20 506 l 1
330 7 m 0
 461 7 545 112 545 213 c 0
 545 321 473 429 340 429 c 0
 266 429 148 361 148 218 c 2
 148 199 l 2
 148 77 248 7 330 7 c 0
EndSplineSet
Validated: 1
Colour: ffff
EndChar

StartChar: uni044B.loclBGR
Encoding: 274 -1 197
Width: 702
GlyphClass: 2
Flags: MW
HStem: 0 21G<601 623 601 601> 506 20G<71 93 93 93 601 623 623 623>
VStem: 601 22<0 526>
LayerCount: 2
Fore
SplineSet
71 526 m 1
 93 526 l 1
 93 322 l 1
 107 346 l 2
 151 419 227 450 287 450 c 0
 424 450 514 357 514 217 c 0
 514 71 412 -14 275 -14 c 0
 129 -14 71 111 71 188 c 2
 71 526 l 1
275 7 m 0
 406 7 490 112 490 213 c 0
 490 321 418 429 285 429 c 0
 211 429 93 361 93 218 c 2
 93 199 l 2
 93 77 193 7 275 7 c 0
623 0 m 1
 601 0 l 1
 601 526 l 1
 623 526 l 1
 623 0 l 1
EndSplineSet
Validated: 1
Colour: ffff
EndChar

StartChar: uni044C.loclBGR
Encoding: 275 -1 198
Width: 584
GlyphClass: 2
Flags: MW
HStem: -14 21<234 340.5 234 343.5> 429 21<257 351.5> 506 20G<71 93 93 93>
VStem: 71 22<188 199 199 218 322 526> 490 24<162.5 267>
LayerCount: 2
Fore
SplineSet
71 526 m 1
 93 526 l 1
 93 322 l 1
 107 346 l 2
 151 419 227 450 287 450 c 0
 424 450 514 357 514 217 c 0
 514 71 412 -14 275 -14 c 0
 129 -14 71 111 71 188 c 2
 71 526 l 1
275 7 m 0
 406 7 490 112 490 213 c 0
 490 321 418 429 285 429 c 0
 211 429 93 361 93 218 c 2
 93 199 l 2
 93 77 193 7 275 7 c 0
EndSplineSet
Validated: 1
Colour: ffff
EndChar

StartChar: uni044E.loclBGR
Encoding: 276 -1 199
Width: 720
GlyphClass: 2
Flags: MW
HStem: 0 21G<71 93 71 71> 280 20<93 160 93 161> 506 20G
VStem: 71 22<0 280 0 300 300 735> 442 22
LayerCount: 2
Fore
SplineSet
407 540 m 0
 555 540 654 429 654 262 c 0
 654 96 555 -14 407 -14 c 0
 259 -14 160 96 160 262 c 2
 160 280 l 1
 93 280 l 1
 93 0 l 1
 71 0 l 1
 71 735 l 1
 93 735 l 1
 93 300 l 1
 161 300 l 1
 175 445 270 540 407 540 c 0
407 7 m 0
 521 7 630 86 630 262 c 0
 630 439 521 519 407 519 c 0
 293 519 184 439 184 262 c 0
 184 86 293 7 407 7 c 0
EndSplineSet
Validated: 1
Colour: ffff
EndChar

StartChar: Aacute
Encoding: 277 193 200
Width: 616
GlyphClass: 2
Flags: MW
HStem: 0 21G<36 59 36 36 575 575 575 599> 269 21<170 462 170 471 162 462> 671 19<317 317> 736 94<305 386 305 386>
VStem: 36 563<0 0>
LayerCount: 2
Fore
SplineSet
324 736 m 1
 305 736 l 1
 358 830 l 1
 386 830 l 1
 324 736 l 1
471 269 m 1
 162 269 l 1
 59 0 l 1
 36 0 l 1
 303 690 l 1
 332 690 l 1
 599 0 l 1
 575 0 l 1
 471 269 l 1
170 290 m 1
 462 290 l 1
 317 671 l 1
 170 290 l 1
EndSplineSet
Validated: 1
Position2: "'cpsp' Capital Spacing in Latin lookup 7 subtable" dx=5 dy=0 dh=10 dv=0
Position2: "'cpsp' Capital Spacing in Latin lookup 6 subtable" dx=5 dy=0 dh=10 dv=0
Position2: "'cpsp' Capital Spacing in Latin lookup 5 subtable" dx=5 dy=0 dh=10 dv=0
Position2: "'cpsp' Capital Spacing in Latin lookup 4 subtable" dx=5 dy=0 dh=10 dv=0
Position2: "'cpsp' Capital Spacing in Cyrillic lookup 3 subtable" dx=5 dy=0 dh=10 dv=0
Position2: "'cpsp' Capital Spacing lookup 2 subtable" dx=5 dy=0 dh=10 dv=0
Position2: "'cpsp' Capital Spacing lookup 1 subtable" dx=5 dy=0 dh=10 dv=0
EndChar

StartChar: Abreve
Encoding: 278 258 201
Width: 616
GlyphClass: 2
Flags: MW
HStem: 0 21G<36 59 36 36 575 575 575 599> 269 21<170 462 170 471 162 462> 671 19<317 317> 722 21<294.5 339.5 294.5 345.5>
VStem: 220 18<796.5 830> 396 18<796.5 830>
LayerCount: 2
Fore
SplineSet
317 722 m 0
 259 722 220 763 220 830 c 1
 238 830 l 1
 239 774 272 743 317 743 c 0
 362 743 395 774 396 830 c 1
 414 830 l 1
 414 763 374 722 317 722 c 0
471 269 m 1
 162 269 l 1
 59 0 l 1
 36 0 l 1
 303 690 l 1
 332 690 l 1
 599 0 l 1
 575 0 l 1
 471 269 l 1
170 290 m 1
 462 290 l 1
 317 671 l 1
 170 290 l 1
EndSplineSet
Validated: 1
Position2: "'cpsp' Capital Spacing in Latin lookup 7 subtable" dx=5 dy=0 dh=10 dv=0
Position2: "'cpsp' Capital Spacing in Latin lookup 6 subtable" dx=5 dy=0 dh=10 dv=0
Position2: "'cpsp' Capital Spacing in Latin lookup 5 subtable" dx=5 dy=0 dh=10 dv=0
Position2: "'cpsp' Capital Spacing in Latin lookup 4 subtable" dx=5 dy=0 dh=10 dv=0
Position2: "'cpsp' Capital Spacing in Cyrillic lookup 3 subtable" dx=5 dy=0 dh=10 dv=0
Position2: "'cpsp' Capital Spacing lookup 2 subtable" dx=5 dy=0 dh=10 dv=0
Position2: "'cpsp' Capital Spacing lookup 1 subtable" dx=5 dy=0 dh=10 dv=0
EndChar

StartChar: Acircumflex
Encoding: 279 194 202
Width: 616
GlyphClass: 2
Flags: MW
HStem: 0 21G<36 59 36 36 575 575 575 599> 269 21<170 462 170 471 162 462> 671 19<317 317> 816 14<317 317>
VStem: 36 563<0 0>
LayerCount: 2
Fore
SplineSet
264 736 m 1
 241 736 l 1
 306 830 l 1
 329 830 l 1
 394 736 l 1
 370 736 l 1
 317 816 l 1
 264 736 l 1
471 269 m 1
 162 269 l 1
 59 0 l 1
 36 0 l 1
 303 690 l 1
 332 690 l 1
 599 0 l 1
 575 0 l 1
 471 269 l 1
170 290 m 1
 462 290 l 1
 317 671 l 1
 170 290 l 1
EndSplineSet
Validated: 1
Position2: "'cpsp' Capital Spacing in Latin lookup 7 subtable" dx=5 dy=0 dh=10 dv=0
Position2: "'cpsp' Capital Spacing in Latin lookup 6 subtable" dx=5 dy=0 dh=10 dv=0
Position2: "'cpsp' Capital Spacing in Latin lookup 5 subtable" dx=5 dy=0 dh=10 dv=0
Position2: "'cpsp' Capital Spacing in Latin lookup 4 subtable" dx=5 dy=0 dh=10 dv=0
Position2: "'cpsp' Capital Spacing in Cyrillic lookup 3 subtable" dx=5 dy=0 dh=10 dv=0
Position2: "'cpsp' Capital Spacing lookup 2 subtable" dx=5 dy=0 dh=10 dv=0
Position2: "'cpsp' Capital Spacing lookup 1 subtable" dx=5 dy=0 dh=10 dv=0
EndChar

StartChar: Adieresis
Encoding: 280 196 203
Width: 616
GlyphClass: 2
Flags: MW
HStem: 0 21G<36 59 36 36 575 575 575 599> 269 21<170 462 170 471 162 462> 671 19<317 317> 763 40<276.5 287.5 346.5 357.5>
VStem: 282 70<763 763 803 803>
LayerCount: 2
Fore
SplineSet
282 763 m 0
 271 763 262 772 262 783 c 0
 262 794 271 803 282 803 c 0
 293 803 302 794 302 783 c 0
 302 772 293 763 282 763 c 0
352 763 m 0
 341 763 332 772 332 783 c 0
 332 794 341 803 352 803 c 0
 363 803 372 794 372 783 c 0
 372 772 363 763 352 763 c 0
471 269 m 1
 162 269 l 1
 59 0 l 1
 36 0 l 1
 303 690 l 1
 332 690 l 1
 599 0 l 1
 575 0 l 1
 471 269 l 1
170 290 m 1
 462 290 l 1
 317 671 l 1
 170 290 l 1
EndSplineSet
Validated: 1
Position2: "'cpsp' Capital Spacing in Latin lookup 7 subtable" dx=5 dy=0 dh=10 dv=0
Position2: "'cpsp' Capital Spacing in Latin lookup 6 subtable" dx=5 dy=0 dh=10 dv=0
Position2: "'cpsp' Capital Spacing in Latin lookup 5 subtable" dx=5 dy=0 dh=10 dv=0
Position2: "'cpsp' Capital Spacing in Latin lookup 4 subtable" dx=5 dy=0 dh=10 dv=0
Position2: "'cpsp' Capital Spacing in Cyrillic lookup 3 subtable" dx=5 dy=0 dh=10 dv=0
Position2: "'cpsp' Capital Spacing lookup 2 subtable" dx=5 dy=0 dh=10 dv=0
Position2: "'cpsp' Capital Spacing lookup 1 subtable" dx=5 dy=0 dh=10 dv=0
EndChar

StartChar: Agrave
Encoding: 281 192 204
Width: 616
GlyphClass: 2
Flags: MW
HStem: 0 21G<36 59 36 36 575 575 575 599> 269 21<170 462 170 471 162 462> 671 19<317 317> 736 94<245 307 245 326>
VStem: 36 563<0 0>
LayerCount: 2
Fore
SplineSet
307 736 m 1
 245 830 l 1
 273 830 l 1
 326 736 l 1
 307 736 l 1
471 269 m 1
 162 269 l 1
 59 0 l 1
 36 0 l 1
 303 690 l 1
 332 690 l 1
 599 0 l 1
 575 0 l 1
 471 269 l 1
170 290 m 1
 462 290 l 1
 317 671 l 1
 170 290 l 1
EndSplineSet
Validated: 1
Position2: "'cpsp' Capital Spacing in Latin lookup 7 subtable" dx=5 dy=0 dh=10 dv=0
Position2: "'cpsp' Capital Spacing in Latin lookup 6 subtable" dx=5 dy=0 dh=10 dv=0
Position2: "'cpsp' Capital Spacing in Latin lookup 5 subtable" dx=5 dy=0 dh=10 dv=0
Position2: "'cpsp' Capital Spacing in Latin lookup 4 subtable" dx=5 dy=0 dh=10 dv=0
Position2: "'cpsp' Capital Spacing in Cyrillic lookup 3 subtable" dx=5 dy=0 dh=10 dv=0
Position2: "'cpsp' Capital Spacing lookup 2 subtable" dx=5 dy=0 dh=10 dv=0
Position2: "'cpsp' Capital Spacing lookup 1 subtable" dx=5 dy=0 dh=10 dv=0
EndChar

StartChar: Amacron
Encoding: 282 256 205
Width: 616
GlyphClass: 2
Flags: MW
HStem: 0 21G<36 59 36 36 575 575 575 599> 269 21<170 462 170 471 162 462> 671 19<317 317> 772 21<247 387 247 387>
VStem: 247 140<772 793 772 793>
LayerCount: 2
Fore
SplineSet
387 772 m 1
 247 772 l 1
 247 793 l 1
 387 793 l 1
 387 772 l 1
471 269 m 1
 162 269 l 1
 59 0 l 1
 36 0 l 1
 303 690 l 1
 332 690 l 1
 599 0 l 1
 575 0 l 1
 471 269 l 1
170 290 m 1
 462 290 l 1
 317 671 l 1
 170 290 l 1
EndSplineSet
Validated: 1
Position2: "'cpsp' Capital Spacing in Latin lookup 7 subtable" dx=5 dy=0 dh=10 dv=0
Position2: "'cpsp' Capital Spacing in Latin lookup 6 subtable" dx=5 dy=0 dh=10 dv=0
Position2: "'cpsp' Capital Spacing in Latin lookup 5 subtable" dx=5 dy=0 dh=10 dv=0
Position2: "'cpsp' Capital Spacing in Latin lookup 4 subtable" dx=5 dy=0 dh=10 dv=0
Position2: "'cpsp' Capital Spacing in Cyrillic lookup 3 subtable" dx=5 dy=0 dh=10 dv=0
Position2: "'cpsp' Capital Spacing lookup 2 subtable" dx=5 dy=0 dh=10 dv=0
Position2: "'cpsp' Capital Spacing lookup 1 subtable" dx=5 dy=0 dh=10 dv=0
EndChar

StartChar: Aogonek
Encoding: 283 260 206
Width: 616
GlyphClass: 2
Flags: MW
HStem: -223 20<506.5 530> 0 21G<36 59 36 36 594 599 594 594> 269 21<170 462 170 471 162 462> 671 19<317 317>
VStem: 452 22<-169.5 -119.5>
LayerCount: 2
Fore
SplineSet
599 0 m 1
 594 0 l 1
 525 -30 474 -84 474 -151 c 0
 474 -188 493 -203 520 -203 c 0
 543 -203 563 -194 585 -172 c 1
 585 -195 l 1
 566 -214 544 -223 516 -223 c 0
 484 -223 452 -208 452 -154 c 0
 452 -85 499 -23 572 8 c 1
 471 269 l 1
 162 269 l 1
 59 0 l 1
 36 0 l 1
 303 690 l 1
 332 690 l 1
 599 0 l 1
170 290 m 1
 462 290 l 1
 317 671 l 1
 170 290 l 1
EndSplineSet
Validated: 1
Position2: "'cpsp' Capital Spacing in Latin lookup 7 subtable" dx=5 dy=0 dh=10 dv=0
Position2: "'cpsp' Capital Spacing in Latin lookup 6 subtable" dx=5 dy=0 dh=10 dv=0
Position2: "'cpsp' Capital Spacing in Latin lookup 5 subtable" dx=5 dy=0 dh=10 dv=0
Position2: "'cpsp' Capital Spacing in Latin lookup 4 subtable" dx=5 dy=0 dh=10 dv=0
Position2: "'cpsp' Capital Spacing in Cyrillic lookup 3 subtable" dx=5 dy=0 dh=10 dv=0
Position2: "'cpsp' Capital Spacing lookup 2 subtable" dx=5 dy=0 dh=10 dv=0
Position2: "'cpsp' Capital Spacing lookup 1 subtable" dx=5 dy=0 dh=10 dv=0
EndChar

StartChar: Aring
Encoding: 284 197 207
Width: 616
GlyphClass: 2
Flags: MW
HStem: 0 21G<36 59 36 36 575 575 575 599> 269 21<170 462 170 471 162 462> 671 19<317 317> 722 21<304.5 329.5 304.5 334> 823 21<304.5 329.5>
VStem: 254 24<772 794 772 802> 356 24<772 794>
LayerCount: 2
Fore
SplineSet
317 722 m 0
 283 722 254 745 254 783 c 0
 254 821 283 844 317 844 c 0
 351 844 380 821 380 783 c 0
 380 745 351 722 317 722 c 0
317 823 m 0
 292 823 278 805 278 783 c 0
 278 761 292 743 317 743 c 0
 342 743 356 761 356 783 c 0
 356 805 342 823 317 823 c 0
471 269 m 1
 162 269 l 1
 59 0 l 1
 36 0 l 1
 303 690 l 1
 332 690 l 1
 599 0 l 1
 575 0 l 1
 471 269 l 1
170 290 m 1
 462 290 l 1
 317 671 l 1
 170 290 l 1
EndSplineSet
Validated: 1
Position2: "'cpsp' Capital Spacing in Latin lookup 7 subtable" dx=5 dy=0 dh=10 dv=0
Position2: "'cpsp' Capital Spacing in Latin lookup 6 subtable" dx=5 dy=0 dh=10 dv=0
Position2: "'cpsp' Capital Spacing in Latin lookup 5 subtable" dx=5 dy=0 dh=10 dv=0
Position2: "'cpsp' Capital Spacing in Latin lookup 4 subtable" dx=5 dy=0 dh=10 dv=0
Position2: "'cpsp' Capital Spacing in Cyrillic lookup 3 subtable" dx=5 dy=0 dh=10 dv=0
Position2: "'cpsp' Capital Spacing lookup 2 subtable" dx=5 dy=0 dh=10 dv=0
Position2: "'cpsp' Capital Spacing lookup 1 subtable" dx=5 dy=0 dh=10 dv=0
EndChar

StartChar: Atilde
Encoding: 285 195 208
Width: 616
GlyphClass: 2
Flags: MW
HStem: 0 21G<36 59 36 36 575 575 575 599> 269 21<170 462 170 471 162 462> 671 19<317 317> 761 20<364.5 374 364.5 381> 786 20<260 269.5>
VStem: 229 20<765 772.5 765 778> 385 20<794.5 802>
LayerCount: 2
Fore
SplineSet
265 786 m 0
 255 786 249 780 249 765 c 1
 229 765 l 1
 229 791 241 806 265 806 c 0
 281 806 295 802 322 793 c 0
 346 785 360 781 369 781 c 0
 379 781 385 787 385 802 c 1
 405 802 l 1
 405 776 393 761 369 761 c 0
 353 761 339 765 312 774 c 0
 288 782 274 786 265 786 c 0
471 269 m 1
 162 269 l 1
 59 0 l 1
 36 0 l 1
 303 690 l 1
 332 690 l 1
 599 0 l 1
 575 0 l 1
 471 269 l 1
170 290 m 1
 462 290 l 1
 317 671 l 1
 170 290 l 1
EndSplineSet
Validated: 1
Position2: "'cpsp' Capital Spacing in Latin lookup 7 subtable" dx=5 dy=0 dh=10 dv=0
Position2: "'cpsp' Capital Spacing in Latin lookup 6 subtable" dx=5 dy=0 dh=10 dv=0
Position2: "'cpsp' Capital Spacing in Latin lookup 5 subtable" dx=5 dy=0 dh=10 dv=0
Position2: "'cpsp' Capital Spacing in Latin lookup 4 subtable" dx=5 dy=0 dh=10 dv=0
Position2: "'cpsp' Capital Spacing in Cyrillic lookup 3 subtable" dx=5 dy=0 dh=10 dv=0
Position2: "'cpsp' Capital Spacing lookup 2 subtable" dx=5 dy=0 dh=10 dv=0
Position2: "'cpsp' Capital Spacing lookup 1 subtable" dx=5 dy=0 dh=10 dv=0
EndChar

StartChar: AE
Encoding: 286 198 209
Width: 897
GlyphClass: 2
Flags: MW
HStem: 0 20<484 865 484 865> 269 21<198 451 198 451 184 451> 335 20<470 835 470 835> 670 20<456 855 456 456>
VStem: 442 20 456 20
LayerCount: 2
Fore
SplineSet
865 20 m 1xf4
 865 0 l 1
 463 0 l 1
 451 269 l 1xf4
 184 269 l 1
 16 0 l 1
 -10 0 l 1
 424 690 l 1
 855 690 l 1
 855 670 l 1
 456 670 l 1
 470 355 l 1xf8
 835 355 l 1
 835 335 l 1
 470 335 l 1
 484 20 l 1
 865 20 l 1xf4
451 290 m 1xf8
 434 668 l 1
 198 290 l 1
 451 290 l 1xf8
EndSplineSet
Validated: 1
Position2: "'cpsp' Capital Spacing in Latin lookup 7 subtable" dx=5 dy=0 dh=10 dv=0
Position2: "'cpsp' Capital Spacing in Latin lookup 6 subtable" dx=5 dy=0 dh=10 dv=0
Position2: "'cpsp' Capital Spacing in Latin lookup 5 subtable" dx=5 dy=0 dh=10 dv=0
Position2: "'cpsp' Capital Spacing in Latin lookup 4 subtable" dx=5 dy=0 dh=10 dv=0
Position2: "'cpsp' Capital Spacing in Cyrillic lookup 3 subtable" dx=5 dy=0 dh=10 dv=0
Position2: "'cpsp' Capital Spacing lookup 2 subtable" dx=5 dy=0 dh=10 dv=0
Position2: "'cpsp' Capital Spacing lookup 1 subtable" dx=5 dy=0 dh=10 dv=0
EndChar

StartChar: Cacute
Encoding: 287 262 210
Width: 677
GlyphClass: 2
Flags: MW
HStem: -14 21<278 426 278 432.5> 683 21<288 428.5> 736 94<332 413 332 413>
VStem: 51 24<230.5 450.5> 603 22
LayerCount: 2
Fore
SplineSet
351 736 m 1
 332 736 l 1
 385 830 l 1
 413 830 l 1
 351 736 l 1
364 704 m 0
 515 704 599 608 624 484 c 2
 626 474 l 1
 604 474 l 1
 602 484 l 2
 579 597 497 683 360 683 c 0
 216 683 75 565 75 344 c 0
 75 115 204 7 352 7 c 0
 500 7 580 99 604 217 c 2
 606 227 l 1
 628 227 l 1
 626 217 l 2
 600 88 515 -14 350 -14 c 0
 179 -14 51 118 51 343 c 0
 51 558 187 704 364 704 c 0
EndSplineSet
Validated: 1
Position2: "'cpsp' Capital Spacing in Latin lookup 7 subtable" dx=5 dy=0 dh=10 dv=0
Position2: "'cpsp' Capital Spacing in Latin lookup 6 subtable" dx=5 dy=0 dh=10 dv=0
Position2: "'cpsp' Capital Spacing in Latin lookup 5 subtable" dx=5 dy=0 dh=10 dv=0
Position2: "'cpsp' Capital Spacing in Latin lookup 4 subtable" dx=5 dy=0 dh=10 dv=0
Position2: "'cpsp' Capital Spacing in Cyrillic lookup 3 subtable" dx=5 dy=0 dh=10 dv=0
Position2: "'cpsp' Capital Spacing lookup 2 subtable" dx=5 dy=0 dh=10 dv=0
Position2: "'cpsp' Capital Spacing lookup 1 subtable" dx=5 dy=0 dh=10 dv=0
EndChar

StartChar: Ccaron
Encoding: 288 268 211
Width: 677
GlyphClass: 2
Flags: MW
HStem: -14 21<278 426 278 432.5> 683 21<288 428.5> 736 14<333 345 345 345 345 356>
VStem: 51 24<230.5 450.5> 603 22
LayerCount: 2
Fore
SplineSet
333 736 m 1
 268 830 l 1
 292 830 l 1
 345 750 l 1
 398 830 l 1
 421 830 l 1
 356 736 l 1
 333 736 l 1
628 227 m 1
 626 217 l 2
 600 88 515 -14 350 -14 c 0
 179 -14 51 118 51 343 c 0
 51 558 187 704 364 704 c 0
 515 704 599 608 624 484 c 2
 626 474 l 1
 604 474 l 1
 602 484 l 2
 579 597 497 683 360 683 c 0
 216 683 75 565 75 344 c 0
 75 115 204 7 352 7 c 0
 500 7 580 99 604 217 c 2
 606 227 l 1
 628 227 l 1
EndSplineSet
Validated: 1
Position2: "'cpsp' Capital Spacing in Latin lookup 7 subtable" dx=5 dy=0 dh=10 dv=0
Position2: "'cpsp' Capital Spacing in Latin lookup 6 subtable" dx=5 dy=0 dh=10 dv=0
Position2: "'cpsp' Capital Spacing in Latin lookup 5 subtable" dx=5 dy=0 dh=10 dv=0
Position2: "'cpsp' Capital Spacing in Latin lookup 4 subtable" dx=5 dy=0 dh=10 dv=0
Position2: "'cpsp' Capital Spacing in Cyrillic lookup 3 subtable" dx=5 dy=0 dh=10 dv=0
Position2: "'cpsp' Capital Spacing lookup 2 subtable" dx=5 dy=0 dh=10 dv=0
Position2: "'cpsp' Capital Spacing lookup 1 subtable" dx=5 dy=0 dh=10 dv=0
EndChar

StartChar: Ccedilla
Encoding: 289 199 212
Width: 677
GlyphClass: 2
Flags: MW
HStem: -210 21<320 353.5 320 355.5> -69 18 -14 21<339 339 364 364> 683 21<288 428.5>
VStem: 51 24<233 450.5> 409 23<-148.5 -109.5> 603 22
LayerCount: 2
Fore
SplineSet
628 227 m 1
 626 217 l 2
 601 92 520 -8 364 -14 c 1
 344 -51 l 1
 398 -56 432 -79 432 -128 c 0
 432 -186 380 -210 331 -210 c 0
 309 -210 292 -207 278 -200 c 1
 278 -178 l 1
 293 -186 309 -189 331 -189 c 0
 376 -189 409 -169 409 -128 c 0
 409 -91 382 -69 323 -69 c 2
 311 -69 l 1
 339 -14 l 1
 174 -8 51 123 51 343 c 0
 51 558 187 704 364 704 c 0
 515 704 599 608 624 484 c 2
 626 474 l 1
 604 474 l 1
 602 484 l 2
 579 597 497 683 360 683 c 0
 216 683 75 565 75 344 c 0
 75 115 204 7 352 7 c 0
 500 7 580 99 604 217 c 2
 606 227 l 1
 628 227 l 1
EndSplineSet
Validated: 1
Position2: "'cpsp' Capital Spacing in Latin lookup 7 subtable" dx=5 dy=0 dh=10 dv=0
Position2: "'cpsp' Capital Spacing in Latin lookup 6 subtable" dx=5 dy=0 dh=10 dv=0
Position2: "'cpsp' Capital Spacing in Latin lookup 5 subtable" dx=5 dy=0 dh=10 dv=0
Position2: "'cpsp' Capital Spacing in Latin lookup 4 subtable" dx=5 dy=0 dh=10 dv=0
Position2: "'cpsp' Capital Spacing in Cyrillic lookup 3 subtable" dx=5 dy=0 dh=10 dv=0
Position2: "'cpsp' Capital Spacing lookup 2 subtable" dx=5 dy=0 dh=10 dv=0
Position2: "'cpsp' Capital Spacing lookup 1 subtable" dx=5 dy=0 dh=10 dv=0
EndChar

StartChar: Cdotaccent
Encoding: 290 266 213
Width: 677
GlyphClass: 2
Flags: MW
HStem: -14 21<278 426 278 432.5> 683 21<288 428.5> 763 40<338.5 349.5>
VStem: 51 24<230.5 450.5> 603 22
LayerCount: 2
Fore
SplineSet
344 803 m 0
 355 803 364 794 364 783 c 0
 364 772 355 763 344 763 c 0
 333 763 324 772 324 783 c 0
 324 794 333 803 344 803 c 0
364 704 m 0
 515 704 599 608 624 484 c 2
 626 474 l 1
 604 474 l 1
 602 484 l 2
 579 597 497 683 360 683 c 0
 216 683 75 565 75 344 c 0
 75 115 204 7 352 7 c 0
 500 7 580 99 604 217 c 2
 606 227 l 1
 628 227 l 1
 626 217 l 2
 600 88 515 -14 350 -14 c 0
 179 -14 51 118 51 343 c 0
 51 558 187 704 364 704 c 0
EndSplineSet
Validated: 1
Position2: "'cpsp' Capital Spacing in Latin lookup 7 subtable" dx=5 dy=0 dh=10 dv=0
Position2: "'cpsp' Capital Spacing in Latin lookup 6 subtable" dx=5 dy=0 dh=10 dv=0
Position2: "'cpsp' Capital Spacing in Latin lookup 5 subtable" dx=5 dy=0 dh=10 dv=0
Position2: "'cpsp' Capital Spacing in Latin lookup 4 subtable" dx=5 dy=0 dh=10 dv=0
Position2: "'cpsp' Capital Spacing in Cyrillic lookup 3 subtable" dx=5 dy=0 dh=10 dv=0
Position2: "'cpsp' Capital Spacing lookup 2 subtable" dx=5 dy=0 dh=10 dv=0
Position2: "'cpsp' Capital Spacing lookup 1 subtable" dx=5 dy=0 dh=10 dv=0
EndChar

StartChar: Eth
Encoding: 291 208 214
Width: 685
GlyphClass: 2
Flags: MW
HStem: 0 21<124 301 124 301> 323 21<42 102 42 102 124 308> 669 21<124 301 124 124>
VStem: 102 22<21 323 21 323 21 323 344 669> 623 24<244.5 456.5>
LayerCount: 2
Fore
SplineSet
374 688 m 0
 480 680 647 592 647 348 c 0
 647 105 482 15 389 4 c 0
 354 0 333 0 301 0 c 2
 102 0 l 1
 102 323 l 1
 42 323 l 1
 42 344 l 1
 102 344 l 1
 102 690 l 1
 301 690 l 2
 333 690 349 690 374 688 c 0
386 25 m 0
 495 38 623 141 623 348 c 0
 623 565 482 657 373 667 c 0
 351 669 337 669 301 669 c 2
 124 669 l 1
 124 344 l 1
 308 344 l 1
 308 323 l 1
 124 323 l 1
 124 21 l 1
 301 21 l 2
 332 21 353 21 386 25 c 0
EndSplineSet
Validated: 1
Position2: "'cpsp' Capital Spacing in Latin lookup 7 subtable" dx=5 dy=0 dh=10 dv=0
Position2: "'cpsp' Capital Spacing in Latin lookup 6 subtable" dx=5 dy=0 dh=10 dv=0
Position2: "'cpsp' Capital Spacing in Latin lookup 5 subtable" dx=5 dy=0 dh=10 dv=0
Position2: "'cpsp' Capital Spacing in Latin lookup 4 subtable" dx=5 dy=0 dh=10 dv=0
Position2: "'cpsp' Capital Spacing in Cyrillic lookup 3 subtable" dx=5 dy=0 dh=10 dv=0
Position2: "'cpsp' Capital Spacing lookup 2 subtable" dx=5 dy=0 dh=10 dv=0
Position2: "'cpsp' Capital Spacing lookup 1 subtable" dx=5 dy=0 dh=10 dv=0
EndChar

StartChar: Dcaron
Encoding: 292 270 215
Width: 679
GlyphClass: 2
Flags: MW
HStem: 0 21<118 295 118 295> 669 21<118 295 118 118> 736 14<331 343 343 343 343 354>
VStem: 96 22<21 669 21 690 21 690> 617 24<244.5 456.5>
LayerCount: 2
Fore
SplineSet
331 736 m 1
 266 830 l 1
 290 830 l 1
 343 750 l 1
 396 830 l 1
 419 830 l 1
 354 736 l 1
 331 736 l 1
368 688 m 0
 474 680 641 592 641 348 c 0
 641 105 476 15 383 4 c 0
 348 0 327 0 295 0 c 2
 96 0 l 1
 96 690 l 1
 295 690 l 2
 327 690 343 690 368 688 c 0
380 25 m 0
 489 38 617 141 617 348 c 0
 617 565 476 657 367 667 c 0
 345 669 331 669 295 669 c 2
 118 669 l 1
 118 21 l 1
 295 21 l 2
 326 21 347 21 380 25 c 0
EndSplineSet
Validated: 1
Position2: "'cpsp' Capital Spacing in Latin lookup 7 subtable" dx=5 dy=0 dh=10 dv=0
Position2: "'cpsp' Capital Spacing in Latin lookup 6 subtable" dx=5 dy=0 dh=10 dv=0
Position2: "'cpsp' Capital Spacing in Latin lookup 5 subtable" dx=5 dy=0 dh=10 dv=0
Position2: "'cpsp' Capital Spacing in Latin lookup 4 subtable" dx=5 dy=0 dh=10 dv=0
Position2: "'cpsp' Capital Spacing in Cyrillic lookup 3 subtable" dx=5 dy=0 dh=10 dv=0
Position2: "'cpsp' Capital Spacing lookup 2 subtable" dx=5 dy=0 dh=10 dv=0
Position2: "'cpsp' Capital Spacing lookup 1 subtable" dx=5 dy=0 dh=10 dv=0
EndChar

StartChar: Dcroat
Encoding: 293 272 216
Width: 685
GlyphClass: 2
Flags: MW
HStem: 0 21<124 301 124 301> 323 21<42 102 42 102 124 308> 669 21<124 301 124 124>
VStem: 102 22<21 323 21 323 21 323 344 669> 623 24<244.5 456.5>
LayerCount: 2
Fore
SplineSet
374 688 m 0
 480 680 647 592 647 348 c 0
 647 105 482 15 389 4 c 0
 354 0 333 0 301 0 c 2
 102 0 l 1
 102 323 l 1
 42 323 l 1
 42 344 l 1
 102 344 l 1
 102 690 l 1
 301 690 l 2
 333 690 349 690 374 688 c 0
386 25 m 0
 495 38 623 141 623 348 c 0
 623 565 482 657 373 667 c 0
 351 669 337 669 301 669 c 2
 124 669 l 1
 124 344 l 1
 308 344 l 1
 308 323 l 1
 124 323 l 1
 124 21 l 1
 301 21 l 2
 332 21 353 21 386 25 c 0
EndSplineSet
Validated: 1
Position2: "'cpsp' Capital Spacing in Latin lookup 7 subtable" dx=5 dy=0 dh=10 dv=0
Position2: "'cpsp' Capital Spacing in Latin lookup 6 subtable" dx=5 dy=0 dh=10 dv=0
Position2: "'cpsp' Capital Spacing in Latin lookup 5 subtable" dx=5 dy=0 dh=10 dv=0
Position2: "'cpsp' Capital Spacing in Latin lookup 4 subtable" dx=5 dy=0 dh=10 dv=0
Position2: "'cpsp' Capital Spacing in Cyrillic lookup 3 subtable" dx=5 dy=0 dh=10 dv=0
Position2: "'cpsp' Capital Spacing lookup 2 subtable" dx=5 dy=0 dh=10 dv=0
Position2: "'cpsp' Capital Spacing lookup 1 subtable" dx=5 dy=0 dh=10 dv=0
EndChar

StartChar: Eacute
Encoding: 294 201 217
Width: 557
GlyphClass: 2
Flags: MW
HStem: 0 20<118 525 118 525> 335 20<118 495 118 495> 670 20<118 515 118 118> 670 160<331 359 331 515>
VStem: 96 22<20 335 355 670>
LayerCount: 2
Fore
SplineSet
297 736 m 1xd8
 278 736 l 1
 331 830 l 1
 359 830 l 1
 297 736 l 1xd8
525 20 m 1
 525 0 l 1
 96 0 l 1
 96 690 l 1
 515 690 l 1
 515 670 l 1
 118 670 l 1xe8
 118 355 l 1
 495 355 l 1
 495 335 l 1
 118 335 l 1
 118 20 l 1
 525 20 l 1
EndSplineSet
Validated: 1
Position2: "'cpsp' Capital Spacing in Latin lookup 7 subtable" dx=5 dy=0 dh=10 dv=0
Position2: "'cpsp' Capital Spacing in Latin lookup 6 subtable" dx=5 dy=0 dh=10 dv=0
Position2: "'cpsp' Capital Spacing in Latin lookup 5 subtable" dx=5 dy=0 dh=10 dv=0
Position2: "'cpsp' Capital Spacing in Latin lookup 4 subtable" dx=5 dy=0 dh=10 dv=0
Position2: "'cpsp' Capital Spacing in Cyrillic lookup 3 subtable" dx=5 dy=0 dh=10 dv=0
Position2: "'cpsp' Capital Spacing lookup 2 subtable" dx=5 dy=0 dh=10 dv=0
Position2: "'cpsp' Capital Spacing lookup 1 subtable" dx=5 dy=0 dh=10 dv=0
EndChar

StartChar: Ecaron
Encoding: 295 282 218
Width: 557
GlyphClass: 2
Flags: MW
HStem: 0 20<118 525 118 525> 335 20<118 495 118 495> 670 20<118 515 118 118> 670 160<214 238 344 367 214 515 118 238> 736 14<279 291 291 291 291 302>
VStem: 96 22<20 335 355 670>
LayerCount: 2
Fore
SplineSet
279 736 m 1xec
 214 830 l 1
 238 830 l 1xd4
 291 750 l 1xec
 344 830 l 1
 367 830 l 1xd4
 302 736 l 1
 279 736 l 1xec
525 20 m 1
 525 0 l 1
 96 0 l 1
 96 690 l 1
 515 690 l 1
 515 670 l 1
 118 670 l 1xec
 118 355 l 1
 495 355 l 1
 495 335 l 1
 118 335 l 1
 118 20 l 1
 525 20 l 1
EndSplineSet
Validated: 1
Position2: "'cpsp' Capital Spacing in Latin lookup 7 subtable" dx=5 dy=0 dh=10 dv=0
Position2: "'cpsp' Capital Spacing in Latin lookup 6 subtable" dx=5 dy=0 dh=10 dv=0
Position2: "'cpsp' Capital Spacing in Latin lookup 5 subtable" dx=5 dy=0 dh=10 dv=0
Position2: "'cpsp' Capital Spacing in Latin lookup 4 subtable" dx=5 dy=0 dh=10 dv=0
Position2: "'cpsp' Capital Spacing in Cyrillic lookup 3 subtable" dx=5 dy=0 dh=10 dv=0
Position2: "'cpsp' Capital Spacing lookup 2 subtable" dx=5 dy=0 dh=10 dv=0
Position2: "'cpsp' Capital Spacing lookup 1 subtable" dx=5 dy=0 dh=10 dv=0
EndChar

StartChar: Ecircumflex
Encoding: 296 202 219
Width: 557
GlyphClass: 2
Flags: MW
HStem: 0 20<118 525 118 525> 335 20<118 495 118 495> 670 20<118 515 118 118> 816 14<290 290>
VStem: 96 22<20 335 355 670>
LayerCount: 2
Fore
SplineSet
237 736 m 1
 214 736 l 1
 279 830 l 1
 302 830 l 1
 367 736 l 1
 343 736 l 1
 290 816 l 1
 237 736 l 1
525 20 m 1
 525 0 l 1
 96 0 l 1
 96 690 l 1
 515 690 l 1
 515 670 l 1
 118 670 l 1
 118 355 l 1
 495 355 l 1
 495 335 l 1
 118 335 l 1
 118 20 l 1
 525 20 l 1
EndSplineSet
Validated: 1
Position2: "'cpsp' Capital Spacing in Latin lookup 7 subtable" dx=5 dy=0 dh=10 dv=0
Position2: "'cpsp' Capital Spacing in Latin lookup 6 subtable" dx=5 dy=0 dh=10 dv=0
Position2: "'cpsp' Capital Spacing in Latin lookup 5 subtable" dx=5 dy=0 dh=10 dv=0
Position2: "'cpsp' Capital Spacing in Latin lookup 4 subtable" dx=5 dy=0 dh=10 dv=0
Position2: "'cpsp' Capital Spacing in Cyrillic lookup 3 subtable" dx=5 dy=0 dh=10 dv=0
Position2: "'cpsp' Capital Spacing lookup 2 subtable" dx=5 dy=0 dh=10 dv=0
Position2: "'cpsp' Capital Spacing lookup 1 subtable" dx=5 dy=0 dh=10 dv=0
EndChar

StartChar: Edieresis
Encoding: 297 203 220
Width: 557
GlyphClass: 2
Flags: MW
HStem: 0 20<118 525 118 525> 335 20<118 495 118 495> 670 20<118 515 118 118> 670 133<249.5 260.5 319.5 330.5 249.5 515 118 260.5>
VStem: 96 22<20 335 355 670> 255 70<763 763 803 803>
LayerCount: 2
Fore
SplineSet
255 763 m 0xdc
 244 763 235 772 235 783 c 0
 235 794 244 803 255 803 c 0
 266 803 275 794 275 783 c 0
 275 772 266 763 255 763 c 0xdc
325 763 m 0
 314 763 305 772 305 783 c 0
 305 794 314 803 325 803 c 0
 336 803 345 794 345 783 c 0
 345 772 336 763 325 763 c 0
525 20 m 1
 525 0 l 1
 96 0 l 1
 96 690 l 1
 515 690 l 1
 515 670 l 1
 118 670 l 1xec
 118 355 l 1
 495 355 l 1
 495 335 l 1
 118 335 l 1
 118 20 l 1
 525 20 l 1
EndSplineSet
Validated: 1
Position2: "'cpsp' Capital Spacing in Latin lookup 7 subtable" dx=5 dy=0 dh=10 dv=0
Position2: "'cpsp' Capital Spacing in Latin lookup 6 subtable" dx=5 dy=0 dh=10 dv=0
Position2: "'cpsp' Capital Spacing in Latin lookup 5 subtable" dx=5 dy=0 dh=10 dv=0
Position2: "'cpsp' Capital Spacing in Latin lookup 4 subtable" dx=5 dy=0 dh=10 dv=0
Position2: "'cpsp' Capital Spacing in Cyrillic lookup 3 subtable" dx=5 dy=0 dh=10 dv=0
Position2: "'cpsp' Capital Spacing lookup 2 subtable" dx=5 dy=0 dh=10 dv=0
Position2: "'cpsp' Capital Spacing lookup 1 subtable" dx=5 dy=0 dh=10 dv=0
EndChar

StartChar: Edotaccent
Encoding: 298 278 221
Width: 557
GlyphClass: 2
Flags: MW
HStem: 0 20<118 525 118 525> 335 20<118 495 118 495> 670 20<118 515 118 118> 763 40<284.5 295.5>
VStem: 96 22<20 335 355 670>
LayerCount: 2
Fore
SplineSet
290 763 m 0
 279 763 270 772 270 783 c 0
 270 794 279 803 290 803 c 0
 301 803 310 794 310 783 c 0
 310 772 301 763 290 763 c 0
525 20 m 1
 525 0 l 1
 96 0 l 1
 96 690 l 1
 515 690 l 1
 515 670 l 1
 118 670 l 1
 118 355 l 1
 495 355 l 1
 495 335 l 1
 118 335 l 1
 118 20 l 1
 525 20 l 1
EndSplineSet
Validated: 1
Position2: "'cpsp' Capital Spacing in Latin lookup 7 subtable" dx=5 dy=0 dh=10 dv=0
Position2: "'cpsp' Capital Spacing in Latin lookup 6 subtable" dx=5 dy=0 dh=10 dv=0
Position2: "'cpsp' Capital Spacing in Latin lookup 5 subtable" dx=5 dy=0 dh=10 dv=0
Position2: "'cpsp' Capital Spacing in Latin lookup 4 subtable" dx=5 dy=0 dh=10 dv=0
Position2: "'cpsp' Capital Spacing in Cyrillic lookup 3 subtable" dx=5 dy=0 dh=10 dv=0
Position2: "'cpsp' Capital Spacing lookup 2 subtable" dx=5 dy=0 dh=10 dv=0
Position2: "'cpsp' Capital Spacing lookup 1 subtable" dx=5 dy=0 dh=10 dv=0
EndChar

StartChar: Egrave
Encoding: 299 200 222
Width: 557
GlyphClass: 2
Flags: MW
HStem: 0 20<118 525 118 525> 335 20<118 495 118 495> 670 20<118 515 118 118> 670 160<218 246 218 515 118 246>
VStem: 96 22<20 335 355 670>
LayerCount: 2
Fore
SplineSet
280 736 m 1xd8
 218 830 l 1
 246 830 l 1
 299 736 l 1
 280 736 l 1xd8
525 20 m 1
 525 0 l 1
 96 0 l 1
 96 690 l 1
 515 690 l 1
 515 670 l 1
 118 670 l 1xe8
 118 355 l 1
 495 355 l 1
 495 335 l 1
 118 335 l 1
 118 20 l 1
 525 20 l 1
EndSplineSet
Validated: 1
Position2: "'cpsp' Capital Spacing in Latin lookup 7 subtable" dx=5 dy=0 dh=10 dv=0
Position2: "'cpsp' Capital Spacing in Latin lookup 6 subtable" dx=5 dy=0 dh=10 dv=0
Position2: "'cpsp' Capital Spacing in Latin lookup 5 subtable" dx=5 dy=0 dh=10 dv=0
Position2: "'cpsp' Capital Spacing in Latin lookup 4 subtable" dx=5 dy=0 dh=10 dv=0
Position2: "'cpsp' Capital Spacing in Cyrillic lookup 3 subtable" dx=5 dy=0 dh=10 dv=0
Position2: "'cpsp' Capital Spacing lookup 2 subtable" dx=5 dy=0 dh=10 dv=0
Position2: "'cpsp' Capital Spacing lookup 1 subtable" dx=5 dy=0 dh=10 dv=0
EndChar

StartChar: Emacron
Encoding: 300 274 223
Width: 557
GlyphClass: 2
Flags: MW
HStem: 0 20<118 525 118 525> 335 20<118 495 118 495> 670 20<118 515 118 118> 772 21<220 360 220 360>
VStem: 96 22<20 335 355 670> 220 140<772 793 772 793>
LayerCount: 2
Fore
SplineSet
360 772 m 1
 220 772 l 1
 220 793 l 1
 360 793 l 1
 360 772 l 1
525 20 m 1
 525 0 l 1
 96 0 l 1
 96 690 l 1
 515 690 l 1
 515 670 l 1
 118 670 l 1
 118 355 l 1
 495 355 l 1
 495 335 l 1
 118 335 l 1
 118 20 l 1
 525 20 l 1
EndSplineSet
Validated: 1
Position2: "'cpsp' Capital Spacing in Latin lookup 7 subtable" dx=5 dy=0 dh=10 dv=0
Position2: "'cpsp' Capital Spacing in Latin lookup 6 subtable" dx=5 dy=0 dh=10 dv=0
Position2: "'cpsp' Capital Spacing in Latin lookup 5 subtable" dx=5 dy=0 dh=10 dv=0
Position2: "'cpsp' Capital Spacing in Latin lookup 4 subtable" dx=5 dy=0 dh=10 dv=0
Position2: "'cpsp' Capital Spacing in Cyrillic lookup 3 subtable" dx=5 dy=0 dh=10 dv=0
Position2: "'cpsp' Capital Spacing lookup 2 subtable" dx=5 dy=0 dh=10 dv=0
Position2: "'cpsp' Capital Spacing lookup 1 subtable" dx=5 dy=0 dh=10 dv=0
EndChar

StartChar: Eogonek
Encoding: 301 280 224
Width: 557
GlyphClass: 2
Flags: MW
HStem: -223 20<437.5 461> 0 20<118 485 118 525> 335 20<118 495 118 495> 670 20<118 515 118 118>
VStem: 96 22<20 335 355 670> 383 22<-169.5 -122>
LayerCount: 2
Fore
SplineSet
525 20 m 1
 525 0 l 1
 456 -30 405 -84 405 -151 c 0
 405 -188 424 -203 451 -203 c 0
 474 -203 494 -194 516 -172 c 1
 516 -195 l 1
 497 -214 475 -223 447 -223 c 0
 415 -223 383 -208 383 -154 c 0
 383 -90 423 -33 485 0 c 1
 96 0 l 1
 96 690 l 1
 515 690 l 1
 515 670 l 1
 118 670 l 1
 118 355 l 1
 495 355 l 1
 495 335 l 1
 118 335 l 1
 118 20 l 1
 525 20 l 1
EndSplineSet
Validated: 1
Position2: "'cpsp' Capital Spacing in Latin lookup 7 subtable" dx=5 dy=0 dh=10 dv=0
Position2: "'cpsp' Capital Spacing in Latin lookup 6 subtable" dx=5 dy=0 dh=10 dv=0
Position2: "'cpsp' Capital Spacing in Latin lookup 5 subtable" dx=5 dy=0 dh=10 dv=0
Position2: "'cpsp' Capital Spacing in Latin lookup 4 subtable" dx=5 dy=0 dh=10 dv=0
Position2: "'cpsp' Capital Spacing in Cyrillic lookup 3 subtable" dx=5 dy=0 dh=10 dv=0
Position2: "'cpsp' Capital Spacing lookup 2 subtable" dx=5 dy=0 dh=10 dv=0
Position2: "'cpsp' Capital Spacing lookup 1 subtable" dx=5 dy=0 dh=10 dv=0
EndChar

StartChar: Gbreve
Encoding: 302 286 225
Width: 694
GlyphClass: 2
Flags: MW
HStem: -14 21<279.5 397.5> 0 21G<612 634 612 612> 287 20<379 612 379 634> 683 21<294.5 438.5> 722 21<337.5 382.5 337.5 388.5>
VStem: 51 24<230.5 450.5> 263 18<796.5 830> 439 18<796.5 830> 612 22<0 184 181 287 184 184>
LayerCount: 2
Fore
SplineSet
360 722 m 0xbf80
 302 722 263 763 263 830 c 1
 281 830 l 1
 282 774 315 743 360 743 c 0
 405 743 438 774 439 830 c 1
 457 830 l 1
 457 763 417 722 360 722 c 0xbf80
379 307 m 1
 634 307 l 1
 634 0 l 1
 612 0 l 1x7780
 612 184 l 1
 592 119 l 1
 535 23 442 -14 353 -14 c 0
 179 -14 51 118 51 343 c 0
 51 558 190 704 374 704 c 0
 525 704 609 608 634 484 c 2
 636 474 l 1
 614 474 l 1
 612 484 l 2
 589 597 507 683 370 683 c 0xb780
 219 683 75 565 75 344 c 0
 75 115 204 7 355 7 c 0
 460 7 612 75 612 287 c 1
 379 287 l 1
 379 307 l 1
EndSplineSet
Validated: 1
Position2: "'cpsp' Capital Spacing in Latin lookup 7 subtable" dx=5 dy=0 dh=10 dv=0
Position2: "'cpsp' Capital Spacing in Latin lookup 6 subtable" dx=5 dy=0 dh=10 dv=0
Position2: "'cpsp' Capital Spacing in Latin lookup 5 subtable" dx=5 dy=0 dh=10 dv=0
Position2: "'cpsp' Capital Spacing in Latin lookup 4 subtable" dx=5 dy=0 dh=10 dv=0
Position2: "'cpsp' Capital Spacing in Cyrillic lookup 3 subtable" dx=5 dy=0 dh=10 dv=0
Position2: "'cpsp' Capital Spacing lookup 2 subtable" dx=5 dy=0 dh=10 dv=0
Position2: "'cpsp' Capital Spacing lookup 1 subtable" dx=5 dy=0 dh=10 dv=0
EndChar

StartChar: Gcommaaccent
Encoding: 303 290 226
Width: 694
GlyphClass: 2
Flags: MW
HStem: -173 122<305 373 305 373> -14 21<279.5 397.5> 0 21G<612 634 612 612> 287 20<379 612 379 634> 683 21<294.5 438.5>
VStem: 51 24<230.5 450.5> 612 22<0 184 181 287 184 184>
LayerCount: 2
Fore
SplineSet
379 307 m 1x5e
 634 307 l 1
 634 0 l 1
 612 0 l 1xbe
 612 184 l 1
 592 119 l 1
 535 23 442 -14 353 -14 c 0
 179 -14 51 118 51 343 c 0
 51 558 190 704 374 704 c 0
 525 704 609 608 634 484 c 2
 636 474 l 1
 614 474 l 1
 612 484 l 2
 589 597 507 683 370 683 c 0
 219 683 75 565 75 344 c 0
 75 115 204 7 355 7 c 0
 460 7 612 75 612 287 c 1
 379 287 l 1
 379 307 l 1x5e
348 -51 m 1
 373 -51 l 1
 373 -56 l 1
 324 -173 l 1
 305 -173 l 1
 348 -51 l 1
EndSplineSet
Validated: 1
Position2: "'cpsp' Capital Spacing in Latin lookup 7 subtable" dx=5 dy=0 dh=10 dv=0
Position2: "'cpsp' Capital Spacing in Latin lookup 6 subtable" dx=5 dy=0 dh=10 dv=0
Position2: "'cpsp' Capital Spacing in Latin lookup 5 subtable" dx=5 dy=0 dh=10 dv=0
Position2: "'cpsp' Capital Spacing in Latin lookup 4 subtable" dx=5 dy=0 dh=10 dv=0
Position2: "'cpsp' Capital Spacing in Cyrillic lookup 3 subtable" dx=5 dy=0 dh=10 dv=0
Position2: "'cpsp' Capital Spacing lookup 2 subtable" dx=5 dy=0 dh=10 dv=0
Position2: "'cpsp' Capital Spacing lookup 1 subtable" dx=5 dy=0 dh=10 dv=0
EndChar

StartChar: Gdotaccent
Encoding: 304 288 227
Width: 694
GlyphClass: 2
Flags: MW
HStem: -14 21<279.5 397.5> 0 21G<612 634 612 612> 287 20<379 612 379 634> 683 21<294.5 438.5> 763 40<354.5 365.5>
VStem: 51 24<230.5 450.5> 612 22<0 184 181 287 184 184>
LayerCount: 2
Fore
SplineSet
360 763 m 0xbe
 349 763 340 772 340 783 c 0
 340 794 349 803 360 803 c 0
 371 803 380 794 380 783 c 0
 380 772 371 763 360 763 c 0xbe
379 307 m 1
 634 307 l 1
 634 0 l 1
 612 0 l 1x7e
 612 184 l 1
 592 119 l 1
 535 23 442 -14 353 -14 c 0
 179 -14 51 118 51 343 c 0
 51 558 190 704 374 704 c 0
 525 704 609 608 634 484 c 2
 636 474 l 1
 614 474 l 1
 612 484 l 2
 589 597 507 683 370 683 c 0
 219 683 75 565 75 344 c 0
 75 115 204 7 355 7 c 0
 460 7 612 75 612 287 c 1
 379 287 l 1
 379 307 l 1
EndSplineSet
Validated: 1
Position2: "'cpsp' Capital Spacing in Latin lookup 7 subtable" dx=5 dy=0 dh=10 dv=0
Position2: "'cpsp' Capital Spacing in Latin lookup 6 subtable" dx=5 dy=0 dh=10 dv=0
Position2: "'cpsp' Capital Spacing in Latin lookup 5 subtable" dx=5 dy=0 dh=10 dv=0
Position2: "'cpsp' Capital Spacing in Latin lookup 4 subtable" dx=5 dy=0 dh=10 dv=0
Position2: "'cpsp' Capital Spacing in Cyrillic lookup 3 subtable" dx=5 dy=0 dh=10 dv=0
Position2: "'cpsp' Capital Spacing lookup 2 subtable" dx=5 dy=0 dh=10 dv=0
Position2: "'cpsp' Capital Spacing lookup 1 subtable" dx=5 dy=0 dh=10 dv=0
EndChar

StartChar: Hbar
Encoding: 305 294 228
Width: 655
GlyphClass: 2
Flags: MW
HStem: 0 21G<96 118 96 96 562 584 562 562> 328 21<118 562 118 562> 520 21<56 96 56 96 118 562 584 624> 520 170<56 118 56 118 96 118 96 562>
VStem: 96 22<0 328 0 349 349 520 541 690> 562 22<0 328 328 328 349 520 0 520 541 690>
LayerCount: 2
Fore
SplineSet
624 520 m 1xec
 584 520 l 1
 584 0 l 1
 562 0 l 1
 562 328 l 1
 118 328 l 1
 118 0 l 1
 96 0 l 1
 96 520 l 1
 56 520 l 1
 56 541 l 1
 96 541 l 1xec
 96 690 l 1
 118 690 l 1xdc
 118 541 l 1
 562 541 l 1xec
 562 690 l 1
 584 690 l 1xdc
 584 541 l 1
 624 541 l 1
 624 520 l 1xec
562 520 m 1
 118 520 l 1
 118 349 l 1
 562 349 l 1
 562 520 l 1
EndSplineSet
Validated: 1
Position2: "'cpsp' Capital Spacing in Latin lookup 7 subtable" dx=5 dy=0 dh=10 dv=0
Position2: "'cpsp' Capital Spacing in Latin lookup 6 subtable" dx=5 dy=0 dh=10 dv=0
Position2: "'cpsp' Capital Spacing in Latin lookup 5 subtable" dx=5 dy=0 dh=10 dv=0
Position2: "'cpsp' Capital Spacing in Latin lookup 4 subtable" dx=5 dy=0 dh=10 dv=0
Position2: "'cpsp' Capital Spacing in Cyrillic lookup 3 subtable" dx=5 dy=0 dh=10 dv=0
Position2: "'cpsp' Capital Spacing lookup 2 subtable" dx=5 dy=0 dh=10 dv=0
Position2: "'cpsp' Capital Spacing lookup 1 subtable" dx=5 dy=0 dh=10 dv=0
EndChar

StartChar: IJ
Encoding: 306 306 229
Width: 684
GlyphClass: 2
Flags: MW
HStem: -14 21<383.5 479 383.5 491> 0 21G<96 118 96 96> 670 20G<96 118 118 118 596 618 618 618>
VStem: 96 22<0 690> 236 22<224 224> 595 22
LayerCount: 2
Fore
SplineSet
118 0 m 1x7c
 96 0 l 1
 96 690 l 1
 118 690 l 1
 118 0 l 1x7c
618 690 m 1
 618 260 l 2
 618 229 618 201 616 169 c 0
 610 77 554 -14 428 -14 c 0
 312 -14 242 53 237 194 c 2
 236 224 l 1
 258 224 l 1
 259 194 l 2
 264 56 337 7 430 7 c 0xbc
 528 7 585 68 594 172 c 0
 596 194 596 221 596 252 c 2
 596 690 l 1
 618 690 l 1
EndSplineSet
Validated: 1
Position2: "'cpsp' Capital Spacing in Latin lookup 7 subtable" dx=5 dy=0 dh=10 dv=0
Position2: "'cpsp' Capital Spacing in Latin lookup 6 subtable" dx=5 dy=0 dh=10 dv=0
Position2: "'cpsp' Capital Spacing in Latin lookup 5 subtable" dx=5 dy=0 dh=10 dv=0
Position2: "'cpsp' Capital Spacing in Latin lookup 4 subtable" dx=5 dy=0 dh=10 dv=0
Position2: "'cpsp' Capital Spacing in Cyrillic lookup 3 subtable" dx=5 dy=0 dh=10 dv=0
Position2: "'cpsp' Capital Spacing lookup 2 subtable" dx=5 dy=0 dh=10 dv=0
Position2: "'cpsp' Capital Spacing lookup 1 subtable" dx=5 dy=0 dh=10 dv=0
EndChar

StartChar: Iacute
Encoding: 307 205 230
Width: 189
GlyphClass: 2
Flags: MW
HStem: 0 21G<96 118 96 96> 670 20G<96 118 118 118> 736 94<95 176 95 176>
VStem: 96 22<0 690>
LayerCount: 2
Fore
SplineSet
114 736 m 1
 95 736 l 1
 148 830 l 1
 176 830 l 1
 114 736 l 1
118 0 m 1
 96 0 l 1
 96 690 l 1
 118 690 l 1
 118 0 l 1
EndSplineSet
Validated: 1
Position2: "'cpsp' Capital Spacing in Latin lookup 7 subtable" dx=5 dy=0 dh=10 dv=0
Position2: "'cpsp' Capital Spacing in Latin lookup 6 subtable" dx=5 dy=0 dh=10 dv=0
Position2: "'cpsp' Capital Spacing in Latin lookup 5 subtable" dx=5 dy=0 dh=10 dv=0
Position2: "'cpsp' Capital Spacing in Latin lookup 4 subtable" dx=5 dy=0 dh=10 dv=0
Position2: "'cpsp' Capital Spacing in Cyrillic lookup 3 subtable" dx=5 dy=0 dh=10 dv=0
Position2: "'cpsp' Capital Spacing lookup 2 subtable" dx=5 dy=0 dh=10 dv=0
Position2: "'cpsp' Capital Spacing lookup 1 subtable" dx=5 dy=0 dh=10 dv=0
EndChar

StartChar: Icircumflex
Encoding: 308 206 231
Width: 189
GlyphClass: 2
Flags: MW
HStem: 0 21G<96 118 96 96> 670 20G<96 118 118 118> 816 14<107 107>
VStem: 96 22<0 690 0 690>
LayerCount: 2
Fore
SplineSet
184 736 m 1
 160 736 l 1
 107 816 l 1
 54 736 l 1
 31 736 l 1
 96 830 l 1
 119 830 l 1
 184 736 l 1
96 690 m 1
 118 690 l 1
 118 0 l 1
 96 0 l 1
 96 690 l 1
EndSplineSet
Validated: 1
Position2: "'cpsp' Capital Spacing in Latin lookup 7 subtable" dx=5 dy=0 dh=10 dv=0
Position2: "'cpsp' Capital Spacing in Latin lookup 6 subtable" dx=5 dy=0 dh=10 dv=0
Position2: "'cpsp' Capital Spacing in Latin lookup 5 subtable" dx=5 dy=0 dh=10 dv=0
Position2: "'cpsp' Capital Spacing in Latin lookup 4 subtable" dx=5 dy=0 dh=10 dv=0
Position2: "'cpsp' Capital Spacing in Cyrillic lookup 3 subtable" dx=5 dy=0 dh=10 dv=0
Position2: "'cpsp' Capital Spacing lookup 2 subtable" dx=5 dy=0 dh=10 dv=0
Position2: "'cpsp' Capital Spacing lookup 1 subtable" dx=5 dy=0 dh=10 dv=0
EndChar

StartChar: Idieresis
Encoding: 309 207 232
Width: 189
GlyphClass: 2
Flags: MW
HStem: 0 21G<96 118 96 96> 670 20G<96 118 118 118> 763 40<66.5 77.5 136.5 147.5>
VStem: 96 22<0 690>
LayerCount: 2
Fore
SplineSet
72 803 m 0
 83 803 92 794 92 783 c 0
 92 772 83 763 72 763 c 0
 61 763 52 772 52 783 c 0
 52 794 61 803 72 803 c 0
142 803 m 0
 153 803 162 794 162 783 c 0
 162 772 153 763 142 763 c 0
 131 763 122 772 122 783 c 0
 122 794 131 803 142 803 c 0
118 0 m 1
 96 0 l 1
 96 690 l 1
 118 690 l 1
 118 0 l 1
EndSplineSet
Validated: 1
Position2: "'cpsp' Capital Spacing in Latin lookup 7 subtable" dx=5 dy=0 dh=10 dv=0
Position2: "'cpsp' Capital Spacing in Latin lookup 6 subtable" dx=5 dy=0 dh=10 dv=0
Position2: "'cpsp' Capital Spacing in Latin lookup 5 subtable" dx=5 dy=0 dh=10 dv=0
Position2: "'cpsp' Capital Spacing in Latin lookup 4 subtable" dx=5 dy=0 dh=10 dv=0
Position2: "'cpsp' Capital Spacing in Cyrillic lookup 3 subtable" dx=5 dy=0 dh=10 dv=0
Position2: "'cpsp' Capital Spacing lookup 2 subtable" dx=5 dy=0 dh=10 dv=0
Position2: "'cpsp' Capital Spacing lookup 1 subtable" dx=5 dy=0 dh=10 dv=0
EndChar

StartChar: Idotaccent
Encoding: 310 304 233
Width: 189
GlyphClass: 2
Flags: MW
HStem: 0 21G<96 118 96 96> 670 20G<96 118 118 118> 763 40<101.5 112.5>
VStem: 96 22<0 690>
LayerCount: 2
Fore
SplineSet
107 803 m 0
 118 803 127 794 127 783 c 0
 127 772 118 763 107 763 c 0
 96 763 87 772 87 783 c 0
 87 794 96 803 107 803 c 0
118 0 m 1
 96 0 l 1
 96 690 l 1
 118 690 l 1
 118 0 l 1
EndSplineSet
Validated: 1
Position2: "'cpsp' Capital Spacing in Latin lookup 7 subtable" dx=5 dy=0 dh=10 dv=0
Position2: "'cpsp' Capital Spacing in Latin lookup 6 subtable" dx=5 dy=0 dh=10 dv=0
Position2: "'cpsp' Capital Spacing in Latin lookup 5 subtable" dx=5 dy=0 dh=10 dv=0
Position2: "'cpsp' Capital Spacing in Latin lookup 4 subtable" dx=5 dy=0 dh=10 dv=0
Position2: "'cpsp' Capital Spacing in Cyrillic lookup 3 subtable" dx=5 dy=0 dh=10 dv=0
Position2: "'cpsp' Capital Spacing lookup 2 subtable" dx=5 dy=0 dh=10 dv=0
Position2: "'cpsp' Capital Spacing lookup 1 subtable" dx=5 dy=0 dh=10 dv=0
EndChar

StartChar: Igrave
Encoding: 311 204 234
Width: 189
GlyphClass: 2
Flags: MW
HStem: 0 21G<96 118 96 96> 670 20G<96 118 118 118> 736 94<35 116 35 97>
VStem: 96 22<0 690>
LayerCount: 2
Fore
SplineSet
116 736 m 1
 97 736 l 1
 35 830 l 1
 63 830 l 1
 116 736 l 1
118 0 m 1
 96 0 l 1
 96 690 l 1
 118 690 l 1
 118 0 l 1
EndSplineSet
Validated: 1
Position2: "'cpsp' Capital Spacing in Latin lookup 7 subtable" dx=5 dy=0 dh=10 dv=0
Position2: "'cpsp' Capital Spacing in Latin lookup 6 subtable" dx=5 dy=0 dh=10 dv=0
Position2: "'cpsp' Capital Spacing in Latin lookup 5 subtable" dx=5 dy=0 dh=10 dv=0
Position2: "'cpsp' Capital Spacing in Latin lookup 4 subtable" dx=5 dy=0 dh=10 dv=0
Position2: "'cpsp' Capital Spacing in Cyrillic lookup 3 subtable" dx=5 dy=0 dh=10 dv=0
Position2: "'cpsp' Capital Spacing lookup 2 subtable" dx=5 dy=0 dh=10 dv=0
Position2: "'cpsp' Capital Spacing lookup 1 subtable" dx=5 dy=0 dh=10 dv=0
EndChar

StartChar: Imacron
Encoding: 312 298 235
Width: 189
GlyphClass: 2
Flags: MW
HStem: 0 21G<96 118 96 96> 670 20G<96 118 118 118> 772 21<37 177 37 177>
VStem: 96 22<0 690>
LayerCount: 2
Fore
SplineSet
177 772 m 1
 37 772 l 1
 37 793 l 1
 177 793 l 1
 177 772 l 1
118 0 m 1
 96 0 l 1
 96 690 l 1
 118 690 l 1
 118 0 l 1
EndSplineSet
Validated: 1
Position2: "'cpsp' Capital Spacing in Latin lookup 7 subtable" dx=5 dy=0 dh=10 dv=0
Position2: "'cpsp' Capital Spacing in Latin lookup 6 subtable" dx=5 dy=0 dh=10 dv=0
Position2: "'cpsp' Capital Spacing in Latin lookup 5 subtable" dx=5 dy=0 dh=10 dv=0
Position2: "'cpsp' Capital Spacing in Latin lookup 4 subtable" dx=5 dy=0 dh=10 dv=0
Position2: "'cpsp' Capital Spacing in Cyrillic lookup 3 subtable" dx=5 dy=0 dh=10 dv=0
Position2: "'cpsp' Capital Spacing lookup 2 subtable" dx=5 dy=0 dh=10 dv=0
Position2: "'cpsp' Capital Spacing lookup 1 subtable" dx=5 dy=0 dh=10 dv=0
EndChar

StartChar: Iogonek
Encoding: 313 302 236
Width: 189
GlyphClass: 2
Flags: MW
HStem: -223 20<30.5 54> 0 21G<118 118> 670 20G<96 118 118 118>
VStem: -24 22<-169.5 -119> 96 22<9 690 0 690>
LayerCount: 2
Fore
SplineSet
118 690 m 1
 118 0 l 1
 49 -30 -2 -84 -2 -151 c 0
 -2 -188 17 -203 44 -203 c 0
 67 -203 87 -194 109 -172 c 1
 109 -195 l 1
 90 -214 68 -223 40 -223 c 0
 8 -223 -24 -208 -24 -154 c 0
 -24 -84 23 -23 96 9 c 1
 96 690 l 1
 118 690 l 1
EndSplineSet
Validated: 1
Position2: "'cpsp' Capital Spacing in Latin lookup 7 subtable" dx=5 dy=0 dh=10 dv=0
Position2: "'cpsp' Capital Spacing in Latin lookup 6 subtable" dx=5 dy=0 dh=10 dv=0
Position2: "'cpsp' Capital Spacing in Latin lookup 5 subtable" dx=5 dy=0 dh=10 dv=0
Position2: "'cpsp' Capital Spacing in Latin lookup 4 subtable" dx=5 dy=0 dh=10 dv=0
Position2: "'cpsp' Capital Spacing in Cyrillic lookup 3 subtable" dx=5 dy=0 dh=10 dv=0
Position2: "'cpsp' Capital Spacing lookup 2 subtable" dx=5 dy=0 dh=10 dv=0
Position2: "'cpsp' Capital Spacing lookup 1 subtable" dx=5 dy=0 dh=10 dv=0
EndChar

StartChar: Kcommaaccent
Encoding: 314 310 237
Width: 553
GlyphClass: 2
Flags: MW
HStem: -173 122<242 310 242 310> 0 21G<96 118 96 96 502 535 502 502> 670 20G<96 118 118 118 512 541 541 541>
VStem: 96 22<0 299 324 690>
LayerCount: 2
Fore
SplineSet
180 355 m 1
 535 0 l 1
 502 0 l 1
 163 341 l 1
 118 299 l 1
 118 0 l 1
 96 0 l 1
 96 690 l 1
 118 690 l 1
 118 324 l 1
 512 690 l 1
 541 690 l 1
 180 355 l 1
285 -51 m 1
 310 -51 l 1
 310 -56 l 1
 261 -173 l 1
 242 -173 l 1
 285 -51 l 1
EndSplineSet
Validated: 1
Position2: "'cpsp' Capital Spacing in Latin lookup 7 subtable" dx=5 dy=0 dh=10 dv=0
Position2: "'cpsp' Capital Spacing in Latin lookup 6 subtable" dx=5 dy=0 dh=10 dv=0
Position2: "'cpsp' Capital Spacing in Latin lookup 5 subtable" dx=5 dy=0 dh=10 dv=0
Position2: "'cpsp' Capital Spacing in Latin lookup 4 subtable" dx=5 dy=0 dh=10 dv=0
Position2: "'cpsp' Capital Spacing in Cyrillic lookup 3 subtable" dx=5 dy=0 dh=10 dv=0
Position2: "'cpsp' Capital Spacing lookup 2 subtable" dx=5 dy=0 dh=10 dv=0
Position2: "'cpsp' Capital Spacing lookup 1 subtable" dx=5 dy=0 dh=10 dv=0
EndChar

StartChar: Lacute
Encoding: 315 313 238
Width: 539
GlyphClass: 2
Flags: MW
HStem: 0 20<118 525 118 525> 670 20G<96 118 118 118> 736 94<95 176 95 176>
VStem: 96 22<20 690 20 690 20 690>
LayerCount: 2
Fore
SplineSet
114 736 m 1
 95 736 l 1
 148 830 l 1
 176 830 l 1
 114 736 l 1
525 20 m 1
 525 0 l 1
 96 0 l 1
 96 690 l 1
 118 690 l 1
 118 20 l 1
 525 20 l 1
EndSplineSet
Validated: 1
Position2: "'cpsp' Capital Spacing in Latin lookup 7 subtable" dx=5 dy=0 dh=10 dv=0
Position2: "'cpsp' Capital Spacing in Latin lookup 6 subtable" dx=5 dy=0 dh=10 dv=0
Position2: "'cpsp' Capital Spacing in Latin lookup 5 subtable" dx=5 dy=0 dh=10 dv=0
Position2: "'cpsp' Capital Spacing in Latin lookup 4 subtable" dx=5 dy=0 dh=10 dv=0
Position2: "'cpsp' Capital Spacing in Cyrillic lookup 3 subtable" dx=5 dy=0 dh=10 dv=0
Position2: "'cpsp' Capital Spacing lookup 2 subtable" dx=5 dy=0 dh=10 dv=0
Position2: "'cpsp' Capital Spacing lookup 1 subtable" dx=5 dy=0 dh=10 dv=0
EndChar

StartChar: Lcaron
Encoding: 316 317 239
Width: 539
GlyphClass: 2
Flags: MW
HStem: 0 20<118 525 118 525> 670 20G<96 118 118 118>
VStem: 96 22<20 690 20 690 20 690>
LayerCount: 2
Fore
SplineSet
525 20 m 1
 525 0 l 1
 96 0 l 1
 96 690 l 1
 118 690 l 1
 118 20 l 1
 525 20 l 1
EndSplineSet
Validated: 1
Position2: "'cpsp' Capital Spacing in Latin lookup 7 subtable" dx=5 dy=0 dh=10 dv=0
Position2: "'cpsp' Capital Spacing in Latin lookup 6 subtable" dx=5 dy=0 dh=10 dv=0
Position2: "'cpsp' Capital Spacing in Latin lookup 5 subtable" dx=5 dy=0 dh=10 dv=0
Position2: "'cpsp' Capital Spacing in Latin lookup 4 subtable" dx=5 dy=0 dh=10 dv=0
Position2: "'cpsp' Capital Spacing in Cyrillic lookup 3 subtable" dx=5 dy=0 dh=10 dv=0
Position2: "'cpsp' Capital Spacing lookup 2 subtable" dx=5 dy=0 dh=10 dv=0
Position2: "'cpsp' Capital Spacing lookup 1 subtable" dx=5 dy=0 dh=10 dv=0
EndChar

StartChar: Lcommaaccent
Encoding: 317 315 240
Width: 539
GlyphClass: 2
Flags: MW
HStem: -173 122<235 303 235 303> 0 20<118 525 118 525> 670 20G<96 118 118 118>
VStem: 96 22<20 690 20 690 20 690>
LayerCount: 2
Fore
SplineSet
525 20 m 1
 525 0 l 1
 96 0 l 1
 96 690 l 1
 118 690 l 1
 118 20 l 1
 525 20 l 1
278 -51 m 1
 303 -51 l 1
 303 -56 l 1
 254 -173 l 1
 235 -173 l 1
 278 -51 l 1
EndSplineSet
Validated: 1
Position2: "'cpsp' Capital Spacing in Latin lookup 7 subtable" dx=5 dy=0 dh=10 dv=0
Position2: "'cpsp' Capital Spacing in Latin lookup 6 subtable" dx=5 dy=0 dh=10 dv=0
Position2: "'cpsp' Capital Spacing in Latin lookup 5 subtable" dx=5 dy=0 dh=10 dv=0
Position2: "'cpsp' Capital Spacing in Latin lookup 4 subtable" dx=5 dy=0 dh=10 dv=0
Position2: "'cpsp' Capital Spacing in Cyrillic lookup 3 subtable" dx=5 dy=0 dh=10 dv=0
Position2: "'cpsp' Capital Spacing lookup 2 subtable" dx=5 dy=0 dh=10 dv=0
Position2: "'cpsp' Capital Spacing lookup 1 subtable" dx=5 dy=0 dh=10 dv=0
EndChar

StartChar: Ldot
Encoding: 318 319 241
Width: 539
GlyphClass: 3
Flags: MW
HStem: 0 20<118 525 118 525> 380 40<324.5 335.5> 670 20G<96 118 118 118>
VStem: 96 22<20 690 20 690 20 690>
LayerCount: 2
Fore
SplineSet
525 20 m 1
 525 0 l 1
 96 0 l 1
 96 690 l 1
 118 690 l 1
 118 20 l 1
 525 20 l 1
330 380 m 0
 319 380 310 389 310 400 c 0
 310 411 319 420 330 420 c 0
 341 420 350 411 350 400 c 0
 350 389 341 380 330 380 c 0
EndSplineSet
Validated: 1
Ligature2: "Ligature Substitution lookup 12 subtable" L periodcentered
Position2: "'cpsp' Capital Spacing in Latin lookup 7 subtable" dx=5 dy=0 dh=10 dv=0
Position2: "'cpsp' Capital Spacing in Latin lookup 6 subtable" dx=5 dy=0 dh=10 dv=0
Position2: "'cpsp' Capital Spacing in Latin lookup 5 subtable" dx=5 dy=0 dh=10 dv=0
Position2: "'cpsp' Capital Spacing in Latin lookup 4 subtable" dx=5 dy=0 dh=10 dv=0
Position2: "'cpsp' Capital Spacing in Cyrillic lookup 3 subtable" dx=5 dy=0 dh=10 dv=0
Position2: "'cpsp' Capital Spacing lookup 2 subtable" dx=5 dy=0 dh=10 dv=0
Position2: "'cpsp' Capital Spacing lookup 1 subtable" dx=5 dy=0 dh=10 dv=0
EndChar

StartChar: Lslash
Encoding: 319 321 242
Width: 571
GlyphClass: 2
Flags: MW
HStem: 0 20<150 557 150 557> 670 20G<128 150 150 150>
VStem: 128 22<20 313 313 313 350 690>
LayerCount: 2
Fore
SplineSet
557 20 m 1
 557 0 l 1
 128 0 l 1
 128 313 l 1
 14 245 l 1
 14 269 l 1
 128 337 l 1
 128 690 l 1
 150 690 l 1
 150 350 l 1
 334 459 l 1
 334 435 l 1
 150 326 l 1
 150 20 l 1
 557 20 l 1
EndSplineSet
Validated: 1
Position2: "'cpsp' Capital Spacing in Latin lookup 7 subtable" dx=5 dy=0 dh=10 dv=0
Position2: "'cpsp' Capital Spacing in Latin lookup 6 subtable" dx=5 dy=0 dh=10 dv=0
Position2: "'cpsp' Capital Spacing in Latin lookup 5 subtable" dx=5 dy=0 dh=10 dv=0
Position2: "'cpsp' Capital Spacing in Latin lookup 4 subtable" dx=5 dy=0 dh=10 dv=0
Position2: "'cpsp' Capital Spacing in Cyrillic lookup 3 subtable" dx=5 dy=0 dh=10 dv=0
Position2: "'cpsp' Capital Spacing lookup 2 subtable" dx=5 dy=0 dh=10 dv=0
Position2: "'cpsp' Capital Spacing lookup 1 subtable" dx=5 dy=0 dh=10 dv=0
EndChar

StartChar: Nacute
Encoding: 320 323 243
Width: 637
GlyphClass: 2
Flags: MW
HStem: 0 20<546 546 546 566 532 546> 670 20<116 116> 736 94<319 400 319 400>
VStem: 96 22<0 375 0 690> 544 22<315 690>
LayerCount: 2
Fore
SplineSet
338 736 m 1
 319 736 l 1
 372 830 l 1
 400 830 l 1
 338 736 l 1
566 0 m 1
 532 0 l 1
 116 670 l 1
 118 577 118 468 118 375 c 2
 118 0 l 1
 96 0 l 1
 96 690 l 1
 129 690 l 1
 546 20 l 1
 544 113 544 222 544 315 c 2
 544 690 l 1
 566 690 l 1
 566 0 l 1
EndSplineSet
Validated: 1
Position2: "'cpsp' Capital Spacing in Latin lookup 7 subtable" dx=5 dy=0 dh=10 dv=0
Position2: "'cpsp' Capital Spacing in Latin lookup 6 subtable" dx=5 dy=0 dh=10 dv=0
Position2: "'cpsp' Capital Spacing in Latin lookup 5 subtable" dx=5 dy=0 dh=10 dv=0
Position2: "'cpsp' Capital Spacing in Latin lookup 4 subtable" dx=5 dy=0 dh=10 dv=0
Position2: "'cpsp' Capital Spacing in Cyrillic lookup 3 subtable" dx=5 dy=0 dh=10 dv=0
Position2: "'cpsp' Capital Spacing lookup 2 subtable" dx=5 dy=0 dh=10 dv=0
Position2: "'cpsp' Capital Spacing lookup 1 subtable" dx=5 dy=0 dh=10 dv=0
EndChar

StartChar: Ncaron
Encoding: 321 327 244
Width: 637
GlyphClass: 2
Flags: MW
HStem: 0 20<546 546 546 566 532 546> 670 20<116 116> 736 14<320 332 332 332 332 343>
VStem: 96 22<0 375 0 690> 544 22<315 690 0 690>
LayerCount: 2
Fore
SplineSet
320 736 m 1
 255 830 l 1
 279 830 l 1
 332 750 l 1
 385 830 l 1
 408 830 l 1
 343 736 l 1
 320 736 l 1
566 690 m 1
 566 0 l 1
 532 0 l 1
 116 670 l 1
 118 577 118 468 118 375 c 2
 118 0 l 1
 96 0 l 1
 96 690 l 1
 129 690 l 1
 546 20 l 1
 544 113 544 222 544 315 c 2
 544 690 l 1
 566 690 l 1
EndSplineSet
Validated: 1
Position2: "'cpsp' Capital Spacing in Latin lookup 7 subtable" dx=5 dy=0 dh=10 dv=0
Position2: "'cpsp' Capital Spacing in Latin lookup 6 subtable" dx=5 dy=0 dh=10 dv=0
Position2: "'cpsp' Capital Spacing in Latin lookup 5 subtable" dx=5 dy=0 dh=10 dv=0
Position2: "'cpsp' Capital Spacing in Latin lookup 4 subtable" dx=5 dy=0 dh=10 dv=0
Position2: "'cpsp' Capital Spacing in Cyrillic lookup 3 subtable" dx=5 dy=0 dh=10 dv=0
Position2: "'cpsp' Capital Spacing lookup 2 subtable" dx=5 dy=0 dh=10 dv=0
Position2: "'cpsp' Capital Spacing lookup 1 subtable" dx=5 dy=0 dh=10 dv=0
EndChar

StartChar: Ncommaaccent
Encoding: 322 325 245
Width: 637
GlyphClass: 2
Flags: MW
HStem: -173 122<276 344 276 344> 0 20<546 546 546 566 532 546> 670 20<116 116>
VStem: 96 22<0 375 0 690> 544 22<315 690>
LayerCount: 2
Fore
SplineSet
566 0 m 1
 532 0 l 1
 116 670 l 1
 118 577 118 468 118 375 c 2
 118 0 l 1
 96 0 l 1
 96 690 l 1
 129 690 l 1
 546 20 l 1
 544 113 544 222 544 315 c 2
 544 690 l 1
 566 690 l 1
 566 0 l 1
344 -56 m 1
 295 -173 l 1
 276 -173 l 1
 319 -51 l 1
 344 -51 l 1
 344 -56 l 1
EndSplineSet
Validated: 1
Position2: "'cpsp' Capital Spacing in Latin lookup 7 subtable" dx=5 dy=0 dh=10 dv=0
Position2: "'cpsp' Capital Spacing in Latin lookup 6 subtable" dx=5 dy=0 dh=10 dv=0
Position2: "'cpsp' Capital Spacing in Latin lookup 5 subtable" dx=5 dy=0 dh=10 dv=0
Position2: "'cpsp' Capital Spacing in Latin lookup 4 subtable" dx=5 dy=0 dh=10 dv=0
Position2: "'cpsp' Capital Spacing in Cyrillic lookup 3 subtable" dx=5 dy=0 dh=10 dv=0
Position2: "'cpsp' Capital Spacing lookup 2 subtable" dx=5 dy=0 dh=10 dv=0
Position2: "'cpsp' Capital Spacing lookup 1 subtable" dx=5 dy=0 dh=10 dv=0
EndChar

StartChar: Eng
Encoding: 323 330 246
Width: 637
GlyphClass: 2
Flags: MW
HStem: -223 21<428 466.5> 0 20 670 20<116 116>
VStem: 96 22<0 375 0 690> 544 22<-76 -67 -67 -19 -19 -19 315 690>
LayerCount: 2
Fore
SplineSet
566 690 m 1
 566 -67 l 2
 566 -85 566 -94 565 -108 c 0
 559 -189 515 -220 428 -223 c 1
 428 -202 l 1
 505 -202 544 -175 544 -83 c 2
 544 -19 l 1
 116 670 l 1
 118 577 118 468 118 375 c 2
 118 0 l 1
 96 0 l 1
 96 690 l 1
 129 690 l 1
 546 20 l 1
 544 113 544 222 544 315 c 2
 544 690 l 1
 566 690 l 1
EndSplineSet
Validated: 1
Position2: "'cpsp' Capital Spacing in Latin lookup 7 subtable" dx=5 dy=0 dh=10 dv=0
Position2: "'cpsp' Capital Spacing in Latin lookup 6 subtable" dx=5 dy=0 dh=10 dv=0
Position2: "'cpsp' Capital Spacing in Latin lookup 5 subtable" dx=5 dy=0 dh=10 dv=0
Position2: "'cpsp' Capital Spacing in Latin lookup 4 subtable" dx=5 dy=0 dh=10 dv=0
Position2: "'cpsp' Capital Spacing in Cyrillic lookup 3 subtable" dx=5 dy=0 dh=10 dv=0
Position2: "'cpsp' Capital Spacing lookup 2 subtable" dx=5 dy=0 dh=10 dv=0
Position2: "'cpsp' Capital Spacing lookup 1 subtable" dx=5 dy=0 dh=10 dv=0
EndChar

StartChar: Ntilde
Encoding: 324 209 247
Width: 637
GlyphClass: 2
Flags: MW
HStem: 0 20<546 546 546 566 532 546> 670 20<116 116> 761 20<378.5 388 378.5 395> 786 20<274 283.5>
VStem: 96 22<0 375 0 690> 243 20<765 772.5 765 778> 399 20<794.5 802> 544 22<315 690>
LayerCount: 2
Fore
SplineSet
279 806 m 0
 295 806 309 802 336 793 c 0
 360 785 374 781 383 781 c 0
 393 781 399 787 399 802 c 1
 419 802 l 1
 419 776 407 761 383 761 c 0
 367 761 353 765 326 774 c 0
 302 782 288 786 279 786 c 0
 269 786 263 780 263 765 c 1
 243 765 l 1
 243 791 255 806 279 806 c 0
566 0 m 1
 532 0 l 1
 116 670 l 1
 118 577 118 468 118 375 c 2
 118 0 l 1
 96 0 l 1
 96 690 l 1
 129 690 l 1
 546 20 l 1
 544 113 544 222 544 315 c 2
 544 690 l 1
 566 690 l 1
 566 0 l 1
EndSplineSet
Validated: 1
Position2: "'cpsp' Capital Spacing in Latin lookup 7 subtable" dx=5 dy=0 dh=10 dv=0
Position2: "'cpsp' Capital Spacing in Latin lookup 6 subtable" dx=5 dy=0 dh=10 dv=0
Position2: "'cpsp' Capital Spacing in Latin lookup 5 subtable" dx=5 dy=0 dh=10 dv=0
Position2: "'cpsp' Capital Spacing in Latin lookup 4 subtable" dx=5 dy=0 dh=10 dv=0
Position2: "'cpsp' Capital Spacing in Cyrillic lookup 3 subtable" dx=5 dy=0 dh=10 dv=0
Position2: "'cpsp' Capital Spacing lookup 2 subtable" dx=5 dy=0 dh=10 dv=0
Position2: "'cpsp' Capital Spacing lookup 1 subtable" dx=5 dy=0 dh=10 dv=0
EndChar

StartChar: Oacute
Encoding: 325 211 248
Width: 713
GlyphClass: 2
Flags: MW
HStem: -14 21<286 440 286 457> 683 21<286 440> 736 94<351 432 351 432>
VStem: 51 24<242 448.5> 651 24<242 448.5 242 453.5>
LayerCount: 2
Fore
SplineSet
370 736 m 1
 351 736 l 1
 404 830 l 1
 432 830 l 1
 370 736 l 1
363 704 m 0
 551 704 675 552 675 345 c 0
 675 139 551 -14 363 -14 c 0
 175 -14 51 139 51 345 c 0
 51 552 175 704 363 704 c 0
363 7 m 0
 517 7 651 129 651 345 c 0
 651 562 517 683 363 683 c 0
 209 683 75 562 75 345 c 0
 75 129 209 7 363 7 c 0
EndSplineSet
Validated: 1
Position2: "'cpsp' Capital Spacing in Latin lookup 7 subtable" dx=5 dy=0 dh=10 dv=0
Position2: "'cpsp' Capital Spacing in Latin lookup 6 subtable" dx=5 dy=0 dh=10 dv=0
Position2: "'cpsp' Capital Spacing in Latin lookup 5 subtable" dx=5 dy=0 dh=10 dv=0
Position2: "'cpsp' Capital Spacing in Latin lookup 4 subtable" dx=5 dy=0 dh=10 dv=0
Position2: "'cpsp' Capital Spacing in Cyrillic lookup 3 subtable" dx=5 dy=0 dh=10 dv=0
Position2: "'cpsp' Capital Spacing lookup 2 subtable" dx=5 dy=0 dh=10 dv=0
Position2: "'cpsp' Capital Spacing lookup 1 subtable" dx=5 dy=0 dh=10 dv=0
EndChar

StartChar: Ocircumflex
Encoding: 326 212 249
Width: 713
GlyphClass: 2
Flags: MW
HStem: -14 21<286 440 286 457> 683 21<286 440> 816 14<363 363>
VStem: 51 24<242 448.5> 651 24<242 448.5 242 453.5>
LayerCount: 2
Fore
SplineSet
310 736 m 1
 287 736 l 1
 352 830 l 1
 375 830 l 1
 440 736 l 1
 416 736 l 1
 363 816 l 1
 310 736 l 1
363 704 m 0
 551 704 675 552 675 345 c 0
 675 139 551 -14 363 -14 c 0
 175 -14 51 139 51 345 c 0
 51 552 175 704 363 704 c 0
363 7 m 0
 517 7 651 129 651 345 c 0
 651 562 517 683 363 683 c 0
 209 683 75 562 75 345 c 0
 75 129 209 7 363 7 c 0
EndSplineSet
Validated: 1
Position2: "'cpsp' Capital Spacing in Latin lookup 7 subtable" dx=5 dy=0 dh=10 dv=0
Position2: "'cpsp' Capital Spacing in Latin lookup 6 subtable" dx=5 dy=0 dh=10 dv=0
Position2: "'cpsp' Capital Spacing in Latin lookup 5 subtable" dx=5 dy=0 dh=10 dv=0
Position2: "'cpsp' Capital Spacing in Latin lookup 4 subtable" dx=5 dy=0 dh=10 dv=0
Position2: "'cpsp' Capital Spacing in Cyrillic lookup 3 subtable" dx=5 dy=0 dh=10 dv=0
Position2: "'cpsp' Capital Spacing lookup 2 subtable" dx=5 dy=0 dh=10 dv=0
Position2: "'cpsp' Capital Spacing lookup 1 subtable" dx=5 dy=0 dh=10 dv=0
EndChar

StartChar: Odieresis
Encoding: 327 214 250
Width: 713
GlyphClass: 2
Flags: MW
HStem: -14 21<286 440 286 457> 683 21<286 440> 763 40<322.5 333.5 392.5 403.5>
VStem: 51 24<242 448.5> 328 70<763 763 803 803> 651 24<242 448.5 242 453.5>
CounterMasks: 1 1c
LayerCount: 2
Fore
SplineSet
328 763 m 0
 317 763 308 772 308 783 c 0
 308 794 317 803 328 803 c 0
 339 803 348 794 348 783 c 0
 348 772 339 763 328 763 c 0
398 763 m 0
 387 763 378 772 378 783 c 0
 378 794 387 803 398 803 c 0
 409 803 418 794 418 783 c 0
 418 772 409 763 398 763 c 0
363 704 m 0
 551 704 675 552 675 345 c 0
 675 139 551 -14 363 -14 c 0
 175 -14 51 139 51 345 c 0
 51 552 175 704 363 704 c 0
363 7 m 0
 517 7 651 129 651 345 c 0
 651 562 517 683 363 683 c 0
 209 683 75 562 75 345 c 0
 75 129 209 7 363 7 c 0
EndSplineSet
Validated: 1
Position2: "'cpsp' Capital Spacing in Latin lookup 7 subtable" dx=5 dy=0 dh=10 dv=0
Position2: "'cpsp' Capital Spacing in Latin lookup 6 subtable" dx=5 dy=0 dh=10 dv=0
Position2: "'cpsp' Capital Spacing in Latin lookup 5 subtable" dx=5 dy=0 dh=10 dv=0
Position2: "'cpsp' Capital Spacing in Latin lookup 4 subtable" dx=5 dy=0 dh=10 dv=0
Position2: "'cpsp' Capital Spacing in Cyrillic lookup 3 subtable" dx=5 dy=0 dh=10 dv=0
Position2: "'cpsp' Capital Spacing lookup 2 subtable" dx=5 dy=0 dh=10 dv=0
Position2: "'cpsp' Capital Spacing lookup 1 subtable" dx=5 dy=0 dh=10 dv=0
EndChar

StartChar: Ograve
Encoding: 328 210 251
Width: 713
GlyphClass: 2
Flags: MW
HStem: -14 21<286 440 286 457> 683 21<286 440> 736 94<291 353 291 372>
VStem: 51 24<242 448.5> 651 24<242 448.5 242 453.5>
LayerCount: 2
Fore
SplineSet
353 736 m 1
 291 830 l 1
 319 830 l 1
 372 736 l 1
 353 736 l 1
363 704 m 0
 551 704 675 552 675 345 c 0
 675 139 551 -14 363 -14 c 0
 175 -14 51 139 51 345 c 0
 51 552 175 704 363 704 c 0
363 7 m 0
 517 7 651 129 651 345 c 0
 651 562 517 683 363 683 c 0
 209 683 75 562 75 345 c 0
 75 129 209 7 363 7 c 0
EndSplineSet
Validated: 1
Position2: "'cpsp' Capital Spacing in Latin lookup 7 subtable" dx=5 dy=0 dh=10 dv=0
Position2: "'cpsp' Capital Spacing in Latin lookup 6 subtable" dx=5 dy=0 dh=10 dv=0
Position2: "'cpsp' Capital Spacing in Latin lookup 5 subtable" dx=5 dy=0 dh=10 dv=0
Position2: "'cpsp' Capital Spacing in Latin lookup 4 subtable" dx=5 dy=0 dh=10 dv=0
Position2: "'cpsp' Capital Spacing in Cyrillic lookup 3 subtable" dx=5 dy=0 dh=10 dv=0
Position2: "'cpsp' Capital Spacing lookup 2 subtable" dx=5 dy=0 dh=10 dv=0
Position2: "'cpsp' Capital Spacing lookup 1 subtable" dx=5 dy=0 dh=10 dv=0
EndChar

StartChar: Ohungarumlaut
Encoding: 329 336 252
Width: 713
GlyphClass: 2
Flags: MW
HStem: -14 21<286 440 286 457> 683 21<286 440> 736 94<309 390 309 390 362 396 362 415>
VStem: 51 24<242 448.5> 651 24<242 448.5 242 453.5>
LayerCount: 2
Fore
SplineSet
328 736 m 1
 309 736 l 1
 362 830 l 1
 390 830 l 1
 328 736 l 1
415 736 m 1
 396 736 l 1
 449 830 l 1
 477 830 l 1
 415 736 l 1
363 704 m 0
 551 704 675 552 675 345 c 0
 675 139 551 -14 363 -14 c 0
 175 -14 51 139 51 345 c 0
 51 552 175 704 363 704 c 0
363 7 m 0
 517 7 651 129 651 345 c 0
 651 562 517 683 363 683 c 0
 209 683 75 562 75 345 c 0
 75 129 209 7 363 7 c 0
EndSplineSet
Validated: 1
Position2: "'cpsp' Capital Spacing in Latin lookup 7 subtable" dx=5 dy=0 dh=10 dv=0
Position2: "'cpsp' Capital Spacing in Latin lookup 6 subtable" dx=5 dy=0 dh=10 dv=0
Position2: "'cpsp' Capital Spacing in Latin lookup 5 subtable" dx=5 dy=0 dh=10 dv=0
Position2: "'cpsp' Capital Spacing in Latin lookup 4 subtable" dx=5 dy=0 dh=10 dv=0
Position2: "'cpsp' Capital Spacing in Cyrillic lookup 3 subtable" dx=5 dy=0 dh=10 dv=0
Position2: "'cpsp' Capital Spacing lookup 2 subtable" dx=5 dy=0 dh=10 dv=0
Position2: "'cpsp' Capital Spacing lookup 1 subtable" dx=5 dy=0 dh=10 dv=0
EndChar

StartChar: Omacron
Encoding: 330 332 253
Width: 713
GlyphClass: 2
Flags: MW
HStem: -14 21<286 440 286 457> 683 21<286 440> 772 21<293 433 293 433>
VStem: 51 24<242 448.5> 293 140<772 793 772 793> 651 24<242 448.5 242 453.5>
CounterMasks: 1 1c
LayerCount: 2
Fore
SplineSet
433 772 m 1
 293 772 l 1
 293 793 l 1
 433 793 l 1
 433 772 l 1
363 704 m 0
 551 704 675 552 675 345 c 0
 675 139 551 -14 363 -14 c 0
 175 -14 51 139 51 345 c 0
 51 552 175 704 363 704 c 0
363 7 m 0
 517 7 651 129 651 345 c 0
 651 562 517 683 363 683 c 0
 209 683 75 562 75 345 c 0
 75 129 209 7 363 7 c 0
EndSplineSet
Validated: 1
Position2: "'cpsp' Capital Spacing in Latin lookup 7 subtable" dx=5 dy=0 dh=10 dv=0
Position2: "'cpsp' Capital Spacing in Latin lookup 6 subtable" dx=5 dy=0 dh=10 dv=0
Position2: "'cpsp' Capital Spacing in Latin lookup 5 subtable" dx=5 dy=0 dh=10 dv=0
Position2: "'cpsp' Capital Spacing in Latin lookup 4 subtable" dx=5 dy=0 dh=10 dv=0
Position2: "'cpsp' Capital Spacing in Cyrillic lookup 3 subtable" dx=5 dy=0 dh=10 dv=0
Position2: "'cpsp' Capital Spacing lookup 2 subtable" dx=5 dy=0 dh=10 dv=0
Position2: "'cpsp' Capital Spacing lookup 1 subtable" dx=5 dy=0 dh=10 dv=0
EndChar

StartChar: Oslash
Encoding: 331 216 254
Width: 713
GlyphClass: 2
Flags: MW
HStem: -14 21<320.5 440 320.5 457> 683 21<286 405.5>
VStem: 51 24<301 448.5> 651 24<242 389>
LayerCount: 2
Fore
SplineSet
679 646 m 1
 609 576 l 1
 651 515 675 435 675 345 c 0
 675 139 551 -14 363 -14 c 0
 265 -14 184 28 130 97 c 1
 62 29 l 1
 47 44 l 1
 117 114 l 1
 75 175 51 255 51 345 c 0
 51 552 175 704 363 704 c 0
 461 704 542 663 597 594 c 1
 664 661 l 1
 679 646 l 1
75 345 m 0
 75 257 97 185 133 130 c 1
 580 577 l 1
 527 646 448 683 363 683 c 0
 209 683 75 562 75 345 c 0
651 345 m 0
 651 433 629 505 593 560 c 1
 146 113 l 1
 200 44 278 7 363 7 c 0
 517 7 651 129 651 345 c 0
EndSplineSet
Validated: 1
Position2: "'cpsp' Capital Spacing in Latin lookup 7 subtable" dx=5 dy=0 dh=10 dv=0
Position2: "'cpsp' Capital Spacing in Latin lookup 6 subtable" dx=5 dy=0 dh=10 dv=0
Position2: "'cpsp' Capital Spacing in Latin lookup 5 subtable" dx=5 dy=0 dh=10 dv=0
Position2: "'cpsp' Capital Spacing in Latin lookup 4 subtable" dx=5 dy=0 dh=10 dv=0
Position2: "'cpsp' Capital Spacing in Cyrillic lookup 3 subtable" dx=5 dy=0 dh=10 dv=0
Position2: "'cpsp' Capital Spacing lookup 2 subtable" dx=5 dy=0 dh=10 dv=0
Position2: "'cpsp' Capital Spacing lookup 1 subtable" dx=5 dy=0 dh=10 dv=0
EndChar

StartChar: Otilde
Encoding: 332 213 255
Width: 713
GlyphClass: 2
Flags: MW
HStem: -14 21<286 440 286 457> 683 21<286 440> 761 20<410.5 420 410.5 427> 786 20<306 315.5>
VStem: 51 24<242 448.5> 275 20<765 772.5 765 778> 431 20<794.5 802> 651 24<242 448.5 242 453.5>
LayerCount: 2
Fore
SplineSet
311 786 m 0
 301 786 295 780 295 765 c 1
 275 765 l 1
 275 791 287 806 311 806 c 0
 327 806 341 802 368 793 c 0
 392 785 406 781 415 781 c 0
 425 781 431 787 431 802 c 1
 451 802 l 1
 451 776 439 761 415 761 c 0
 399 761 385 765 358 774 c 0
 334 782 320 786 311 786 c 0
363 704 m 0
 551 704 675 552 675 345 c 0
 675 139 551 -14 363 -14 c 0
 175 -14 51 139 51 345 c 0
 51 552 175 704 363 704 c 0
363 7 m 0
 517 7 651 129 651 345 c 0
 651 562 517 683 363 683 c 0
 209 683 75 562 75 345 c 0
 75 129 209 7 363 7 c 0
EndSplineSet
Validated: 1
Position2: "'cpsp' Capital Spacing in Latin lookup 7 subtable" dx=5 dy=0 dh=10 dv=0
Position2: "'cpsp' Capital Spacing in Latin lookup 6 subtable" dx=5 dy=0 dh=10 dv=0
Position2: "'cpsp' Capital Spacing in Latin lookup 5 subtable" dx=5 dy=0 dh=10 dv=0
Position2: "'cpsp' Capital Spacing in Latin lookup 4 subtable" dx=5 dy=0 dh=10 dv=0
Position2: "'cpsp' Capital Spacing in Cyrillic lookup 3 subtable" dx=5 dy=0 dh=10 dv=0
Position2: "'cpsp' Capital Spacing lookup 2 subtable" dx=5 dy=0 dh=10 dv=0
Position2: "'cpsp' Capital Spacing lookup 1 subtable" dx=5 dy=0 dh=10 dv=0
EndChar

StartChar: OE
Encoding: 333 338 256
Width: 1112
GlyphClass: 2
Flags: MW
HStem: -14 21<286 418.5> 0 20<673 1080 673 1080> 335 20<673 1050 673 1050> 670 20<673 1070 673 673> 683 21<286 420.5 269 445>
VStem: 51 24<242 448.5> 651 22<20 206 206 206 237 335 355 453.5 484 670>
LayerCount: 2
Fore
SplineSet
1080 20 m 1x76
 1080 0 l 1
 651 0 l 1x76
 651 206 l 1
 620 128 l 1
 554 27 474 -14 363 -14 c 0
 175 -14 51 139 51 345 c 0
 51 552 175 704 363 704 c 0xae
 478 704 546 667 620 566 c 1
 651 484 l 1
 651 690 l 1
 1070 690 l 1
 1070 670 l 1
 673 670 l 1
 673 355 l 1
 1050 355 l 1
 1050 335 l 1
 673 335 l 1
 673 20 l 1
 1080 20 l 1x76
363 7 m 0xae
 527 7 651 129 651 345 c 0
 651 562 527 683 363 683 c 0
 209 683 75 562 75 345 c 0
 75 129 209 7 363 7 c 0xae
EndSplineSet
Validated: 1
Position2: "'cpsp' Capital Spacing in Latin lookup 7 subtable" dx=5 dy=0 dh=10 dv=0
Position2: "'cpsp' Capital Spacing in Latin lookup 6 subtable" dx=5 dy=0 dh=10 dv=0
Position2: "'cpsp' Capital Spacing in Latin lookup 5 subtable" dx=5 dy=0 dh=10 dv=0
Position2: "'cpsp' Capital Spacing in Latin lookup 4 subtable" dx=5 dy=0 dh=10 dv=0
Position2: "'cpsp' Capital Spacing in Cyrillic lookup 3 subtable" dx=5 dy=0 dh=10 dv=0
Position2: "'cpsp' Capital Spacing lookup 2 subtable" dx=5 dy=0 dh=10 dv=0
Position2: "'cpsp' Capital Spacing lookup 1 subtable" dx=5 dy=0 dh=10 dv=0
EndChar

StartChar: Thorn
Encoding: 334 222 257
Width: 640
GlyphClass: 2
Flags: MW
HStem: 0 21G<96 118 96 96> 210 21<118 249 118 249> 551 21<118 249 118 249> 670 20G<96 118 118 118>
VStem: 96 22<0 210 0 231 231 551 572 690> 491 24<344 445>
LayerCount: 2
Fore
SplineSet
348 567 m 0
 441 555 515 508 515 396 c 0
 515 281 441 227 348 215 c 0
 316 211 284 210 249 210 c 2
 118 210 l 1
 118 0 l 1
 96 0 l 1
 96 690 l 1
 118 690 l 1
 118 572 l 1
 249 572 l 2
 284 572 316 571 348 567 c 0
344 236 m 0
 428 246 491 292 491 396 c 0
 491 494 428 536 344 546 c 0
 312 550 285 551 249 551 c 2
 118 551 l 1
 118 231 l 1
 249 231 l 2
 285 231 312 232 344 236 c 0
EndSplineSet
Validated: 1
Position2: "'cpsp' Capital Spacing in Latin lookup 7 subtable" dx=5 dy=0 dh=10 dv=0
Position2: "'cpsp' Capital Spacing in Latin lookup 6 subtable" dx=5 dy=0 dh=10 dv=0
Position2: "'cpsp' Capital Spacing in Latin lookup 5 subtable" dx=5 dy=0 dh=10 dv=0
Position2: "'cpsp' Capital Spacing in Latin lookup 4 subtable" dx=5 dy=0 dh=10 dv=0
Position2: "'cpsp' Capital Spacing in Cyrillic lookup 3 subtable" dx=5 dy=0 dh=10 dv=0
Position2: "'cpsp' Capital Spacing lookup 2 subtable" dx=5 dy=0 dh=10 dv=0
Position2: "'cpsp' Capital Spacing lookup 1 subtable" dx=5 dy=0 dh=10 dv=0
EndChar

StartChar: Racute
Encoding: 335 340 258
Width: 571
GlyphClass: 2
Flags: MW
HStem: 0 21G<96 118 96 96 513 539 513 513> 338 21<118 279 118 279> 669 21<118 263 118 118> 736 94<291 372 291 372>
VStem: 96 22<0 338 359 669> 505 24<472 559.5>
LayerCount: 2
Fore
SplineSet
310 736 m 1
 291 736 l 1
 344 830 l 1
 372 830 l 1
 310 736 l 1
493 189 m 0
 505 86 520 43 539 0 c 1
 513 0 l 1
 498 44 482 84 470 184 c 0
 461 261 426 333 342 337 c 0
 320 338 295 338 279 338 c 2
 118 338 l 1
 118 0 l 1
 96 0 l 1
 96 690 l 1
 263 690 l 2
 298 690 330 689 362 685 c 0
 469 672 529 615 529 516 c 0
 529 428 475 364 385 348 c 1
 449 330 484 269 493 189 c 0
118 359 m 1
 279 359 l 2
 305 359 322 359 354 361 c 0
 448 368 505 429 505 515 c 0
 505 604 452 652 358 664 c 0
 326 668 299 669 263 669 c 2
 118 669 l 1
 118 359 l 1
EndSplineSet
Validated: 1
Position2: "'cpsp' Capital Spacing in Latin lookup 7 subtable" dx=5 dy=0 dh=10 dv=0
Position2: "'cpsp' Capital Spacing in Latin lookup 6 subtable" dx=5 dy=0 dh=10 dv=0
Position2: "'cpsp' Capital Spacing in Latin lookup 5 subtable" dx=5 dy=0 dh=10 dv=0
Position2: "'cpsp' Capital Spacing in Latin lookup 4 subtable" dx=5 dy=0 dh=10 dv=0
Position2: "'cpsp' Capital Spacing in Cyrillic lookup 3 subtable" dx=5 dy=0 dh=10 dv=0
Position2: "'cpsp' Capital Spacing lookup 2 subtable" dx=5 dy=0 dh=10 dv=0
Position2: "'cpsp' Capital Spacing lookup 1 subtable" dx=5 dy=0 dh=10 dv=0
EndChar

StartChar: Rcaron
Encoding: 336 344 259
Width: 571
GlyphClass: 2
Flags: MW
HStem: 0 21G<96 118 96 96 513 539 513 513> 338 21<118 279 118 279> 669 21<118 263 118 118> 736 14<292 304 304 304 304 315>
VStem: 96 22<0 338 359 669> 505 24<472 559.5>
LayerCount: 2
Fore
SplineSet
292 736 m 1
 227 830 l 1
 251 830 l 1
 304 750 l 1
 357 830 l 1
 380 830 l 1
 315 736 l 1
 292 736 l 1
493 189 m 0
 505 86 520 43 539 0 c 1
 513 0 l 1
 498 44 482 84 470 184 c 0
 461 261 426 333 342 337 c 0
 320 338 295 338 279 338 c 2
 118 338 l 1
 118 0 l 1
 96 0 l 1
 96 690 l 1
 263 690 l 2
 298 690 330 689 362 685 c 0
 469 672 529 615 529 516 c 0
 529 428 475 364 385 348 c 1
 449 330 484 269 493 189 c 0
118 359 m 1
 279 359 l 2
 305 359 322 359 354 361 c 0
 448 368 505 429 505 515 c 0
 505 604 452 652 358 664 c 0
 326 668 299 669 263 669 c 2
 118 669 l 1
 118 359 l 1
EndSplineSet
Validated: 1
Position2: "'cpsp' Capital Spacing in Latin lookup 7 subtable" dx=5 dy=0 dh=10 dv=0
Position2: "'cpsp' Capital Spacing in Latin lookup 6 subtable" dx=5 dy=0 dh=10 dv=0
Position2: "'cpsp' Capital Spacing in Latin lookup 5 subtable" dx=5 dy=0 dh=10 dv=0
Position2: "'cpsp' Capital Spacing in Latin lookup 4 subtable" dx=5 dy=0 dh=10 dv=0
Position2: "'cpsp' Capital Spacing in Cyrillic lookup 3 subtable" dx=5 dy=0 dh=10 dv=0
Position2: "'cpsp' Capital Spacing lookup 2 subtable" dx=5 dy=0 dh=10 dv=0
Position2: "'cpsp' Capital Spacing lookup 1 subtable" dx=5 dy=0 dh=10 dv=0
EndChar

StartChar: Rcommaaccent
Encoding: 337 342 260
Width: 571
GlyphClass: 2
Flags: MW
HStem: -173 122<238 306 238 306> 0 21G<96 118 96 96 513 539 513 513> 338 21<118 279 118 279> 669 21<118 263 118 118>
VStem: 96 22<0 338 359 669> 505 24<472 559.5>
LayerCount: 2
Fore
SplineSet
493 189 m 0
 505 86 520 43 539 0 c 1
 513 0 l 1
 498 44 482 84 470 184 c 0
 461 261 426 333 342 337 c 0
 320 338 295 338 279 338 c 2
 118 338 l 1
 118 0 l 1
 96 0 l 1
 96 690 l 1
 263 690 l 2
 298 690 330 689 362 685 c 0
 469 672 529 615 529 516 c 0
 529 428 475 364 385 348 c 1
 449 330 484 269 493 189 c 0
118 359 m 1
 279 359 l 2
 305 359 322 359 354 361 c 0
 448 368 505 429 505 515 c 0
 505 604 452 652 358 664 c 0
 326 668 299 669 263 669 c 2
 118 669 l 1
 118 359 l 1
281 -51 m 1
 306 -51 l 1
 306 -56 l 1
 257 -173 l 1
 238 -173 l 1
 281 -51 l 1
EndSplineSet
Validated: 1
Position2: "'cpsp' Capital Spacing in Latin lookup 7 subtable" dx=5 dy=0 dh=10 dv=0
Position2: "'cpsp' Capital Spacing in Latin lookup 6 subtable" dx=5 dy=0 dh=10 dv=0
Position2: "'cpsp' Capital Spacing in Latin lookup 5 subtable" dx=5 dy=0 dh=10 dv=0
Position2: "'cpsp' Capital Spacing in Latin lookup 4 subtable" dx=5 dy=0 dh=10 dv=0
Position2: "'cpsp' Capital Spacing in Cyrillic lookup 3 subtable" dx=5 dy=0 dh=10 dv=0
Position2: "'cpsp' Capital Spacing lookup 2 subtable" dx=5 dy=0 dh=10 dv=0
Position2: "'cpsp' Capital Spacing lookup 1 subtable" dx=5 dy=0 dh=10 dv=0
EndChar

StartChar: Sacute
Encoding: 338 346 261
Width: 560
GlyphClass: 2
Flags: MW
HStem: -14 21<228 340.5 228 347.5> 683 21<239 331.5> 736 94<268 349 268 349>
VStem: 39 22<180 180> 71 24<483.5 581.5> 483 24<118.5 214.5>
LayerCount: 2
Fore
SplineSet
287 736 m 1
 268 736 l 1
 321 830 l 1
 349 830 l 1
 287 736 l 1
284 704 m 0
 413 704 482 617 495 514 c 1
 473 514 l 1
 455 620 380 683 283 683 c 0
 195 683 95 632 95 533 c 0
 95 434 156 403 294 363 c 0
 437 322 507 275 507 167 c 0
 507 65 412 -14 283 -14 c 0
 162 -14 53 47 39 180 c 1
 61 180 l 1
 74 67 172 7 284 7 c 0
 397 7 483 72 483 165 c 0
 483 264 424 301 284 341 c 0
 136 383 71 425 71 531 c 0
 71 632 170 704 284 704 c 0
EndSplineSet
Validated: 1
Position2: "'cpsp' Capital Spacing in Latin lookup 7 subtable" dx=5 dy=0 dh=10 dv=0
Position2: "'cpsp' Capital Spacing in Latin lookup 6 subtable" dx=5 dy=0 dh=10 dv=0
Position2: "'cpsp' Capital Spacing in Latin lookup 5 subtable" dx=5 dy=0 dh=10 dv=0
Position2: "'cpsp' Capital Spacing in Latin lookup 4 subtable" dx=5 dy=0 dh=10 dv=0
Position2: "'cpsp' Capital Spacing in Cyrillic lookup 3 subtable" dx=5 dy=0 dh=10 dv=0
Position2: "'cpsp' Capital Spacing lookup 2 subtable" dx=5 dy=0 dh=10 dv=0
Position2: "'cpsp' Capital Spacing lookup 1 subtable" dx=5 dy=0 dh=10 dv=0
EndChar

